SplineFontDB: 3.2
FontName: BertiogaSans-Italic
FullName: Bertioga Sans Italic
FamilyName: Bertioga Sans
Weight: Book
Copyright: Copyright 2020 The Arimo Project Authors (https://github.com/googlefonts/arimo)\nCopyright 2020 The Libra Sans Project Authors (https://github.com/stefanpeev/libra-sans)\nCopyright 2024 The Bertioga Sans Project Authors (https://github.com/cssobral2013/bertioga-sans)
Version: 3.004
ItalicAngle: -12
UnderlinePosition: -292
UnderlineWidth: 150
Ascent: 1638
Descent: 410
InvalidEm: 0
sfntRevision: 0x000300c4
LayerCount: 2
Layer: 0 1 "Back" 1
Layer: 1 1 "Fore" 0
XUID: [1021 531 -1996577725 8559281]
StyleMap: 0x0001
FSType: 0
OS2Version: 4
OS2_WeightWidthSlopeOnly: 0
OS2_UseTypoMetrics: 1
CreationTime: 1574117783
ModificationTime: 1708631693
PfmFamily: 17
TTFWeight: 400
TTFWidth: 5
LineGap: 67
VLineGap: 0
Panose: 2 11 6 4 2 2 2 9 2 4
OS2TypoAscent: 1854
OS2TypoAOffset: 0
OS2TypoDescent: -434
OS2TypoDOffset: 0
OS2TypoLinegap: 67
OS2WinAscent: 2136
OS2WinAOffset: 0
OS2WinDescent: 797
OS2WinDOffset: 0
HheadAscent: 1854
HheadAOffset: 0
HheadDescent: -434
HheadDOffset: 0
OS2SubXSize: 1331
OS2SubYSize: 1229
OS2SubXOff: -33
OS2SubYOff: 154
OS2SupXSize: 1331
OS2SupYSize: 1229
OS2SupXOff: 152
OS2SupYOff: 717
OS2StrikeYSize: 102
OS2StrikeYPos: 530
OS2CapHeight: 1409
OS2XHeight: 1082
OS2Vendor: 'GOOG'
OS2CodePages: 600001bf.dff70000
OS2UnicodeRanges: e0000aff.500078ff.00000021.00000000
Lookup: 4 1 0 "Ligature Substitution lookup 0" { "Ligature Substitution lookup 0 subtable"  } []
Lookup: 4 1 0 "'dlig' Discretionary Ligatures in Hebrew lookup 1" { "'dlig' Discretionary Ligatures in Hebrew lookup 1 subtable"  } ['dlig' ('hebr' <'dflt' > ) ]
Lookup: 4 0 0 "'ccmp' Glyph Composition/Decomposition lookup 2" { "'ccmp' Glyph Composition/Decomposition lookup 2 subtable"  } ['ccmp' ('cyrl' <'dflt' > 'grek' <'dflt' > 'latn' <'MAH ' 'dflt' > ) ]

StartChar: .notdef
Encoding: 65536 -1 0
Width: 1536
GlyphClass: 2
Flags: W
LayerCount: 2
Fore
SplineSet
1330 1409 m 1,0,-1
 1330 0 l 1,1,-1
 205 0 l 1,2,-1
 205 1409 l 1,3,-1
 1330 1409 l 1,0,-1
281 76 m 1,4,-1
 1254 76 l 1,5,-1
 1254 1333 l 1,6,-1
 281 1333 l 1,7,-1
 281 76 l 1,4,-1
EndSplineSet
EndChar

StartChar: exclam
Encoding: 33 33 4
Width: 569
GlyphClass: 2
Flags: W
LayerCount: 2
Fore
SplineSet
549 1409 m 1,0,-1
 329 397 l 1,1,-1
 181 397 l 1,2,-1
 353 1409 l 1,3,-1
 549 1409 l 1,0,-1
311 201 m 1,4,-1
 271 0 l 1,5,-1
 77 0 l 1,6,-1
 117 201 l 1,7,-1
 311 201 l 1,4,-1
EndSplineSet
EndChar

StartChar: quotedbl
Encoding: 34 34 5
Width: 727
GlyphClass: 2
Flags: W
LayerCount: 2
Fore
SplineSet
803 1409 m 1,0,-1
 697 966 l 1,1,-1
 555 966 l 1,2,-1
 619 1409 l 1,3,-1
 803 1409 l 1,0,-1
434 1409 m 1,4,-1
 328 966 l 1,5,-1
 187 966 l 1,6,-1
 250 1409 l 1,7,-1
 434 1409 l 1,4,-1
EndSplineSet
EndChar

StartChar: numbersign
Encoding: 35 35 6
Width: 1139
GlyphClass: 2
Flags: W
LayerCount: 2
Fore
SplineSet
350 408 m 1,0,-1
 266 0 l 1,1,-1
 156 0 l 1,2,-1
 240 408 l 1,3,-1
 39 408 l 1,4,-1
 39 516 l 1,5,-1
 264 516 l 1,6,-1
 342 885 l 1,7,-1
 90 885 l 1,8,-1
 90 993 l 1,9,-1
 364 993 l 1,10,-1
 453 1401 l 1,11,-1
 563 1401 l 1,12,-1
 475 993 l 1,13,-1
 838 993 l 1,14,-1
 926 1401 l 1,15,-1
 1036 1401 l 1,16,-1
 948 993 l 1,17,-1
 1159 993 l 1,18,-1
 1159 885 l 1,19,-1
 926 885 l 1,20,-1
 848 516 l 1,21,-1
 1108 516 l 1,22,-1
 1108 408 l 1,23,-1
 825 408 l 1,24,-1
 737 0 l 1,25,-1
 627 0 l 1,26,-1
 713 408 l 1,27,-1
 350 408 l 1,0,-1
375 516 m 1,28,-1
 737 516 l 1,29,-1
 815 885 l 1,30,-1
 455 885 l 1,31,-1
 375 516 l 1,28,-1
EndSplineSet
EndChar

StartChar: dollar
Encoding: 36 36 7
Width: 1139
GlyphClass: 2
Flags: W
LayerCount: 2
Fore
SplineSet
1072 425 m 0,0,1
 1072 240 1072 240 934.5 134.5 c 128,-1,2
 797 29 797 29 540 21 c 1,3,-1
 509 -140 l 1,4,-1
 395 -140 l 1,5,-1
 427 23 l 1,6,7
 226 37 226 37 120.5 127 c 128,-1,8
 15 217 15 217 -12 376 c 1,9,-1
 151 413 l 1,10,11
 176 298 176 298 248.5 239 c 128,-1,12
 321 180 321 180 455 170 c 1,13,-1
 551 663 l 1,14,15
 402 704 402 704 330 750 c 0,16,17
 257 795 257 795 219 859.5 c 128,-1,18
 181 924 181 924 181 1018 c 0,19,20
 181 1130 181 1130 246 1213 c 256,21,22
 311 1296 311 1296 427.5 1340 c 128,-1,23
 544 1384 544 1384 691 1385 c 1,24,-1
 716 1516 l 1,25,-1
 830 1516 l 1,26,-1
 803 1379 l 1,27,28
 959 1360 959 1360 1051.5 1285 c 128,-1,29
 1144 1210 1144 1210 1170 1087 c 1,30,-1
 1014 1042 l 1,31,32
 969 1209 969 1209 776 1236 c 1,33,-1
 690 795 l 1,34,35
 886 742 886 742 979 650 c 128,-1,36
 1072 558 1072 558 1072 425 c 0,0,1
363 1018 m 0,37,38
 363 951 363 951 408 908 c 128,-1,39
 453 865 453 865 582 825 c 1,40,-1
 663 1240 l 1,41,42
 518 1235 518 1235 440.5 1178 c 128,-1,43
 363 1121 363 1121 363 1018 c 0,37,38
887 413 m 0,44,45
 887 491 887 491 836.5 541.5 c 128,-1,46
 786 592 786 592 659 632 c 1,47,-1
 569 169 l 1,48,49
 728 177 728 177 807.5 238.5 c 128,-1,50
 887 300 887 300 887 413 c 0,44,45
EndSplineSet
EndChar

StartChar: percent
Encoding: 37 37 8
Width: 1821
GlyphClass: 2
Flags: W
LayerCount: 2
Fore
SplineSet
545 1421 m 0,0,1
 670 1421 670 1421 737 1342 c 128,-1,2
 804 1263 804 1263 804 1113 c 0,3,4
 804 1025 804 1025 788 941 c 0,5,6
 775 873 775 873 752 808.5 c 128,-1,7
 729 744 729 744 695 693 c 0,8,9
 585 524 585 524 406 524 c 0,10,11
 282 524 282 524 214 606.5 c 128,-1,12
 146 689 146 689 146 841 c 0,13,14
 146 987 146 987 193 1131 c 0,15,16
 288 1421 288 1421 545 1421 c 0,0,1
425 0 m 1,17,-1
 260 0 l 1,18,-1
 1446 1409 l 1,19,-1
 1613 1409 l 1,20,-1
 425 0 l 1,17,-1
544 1313 m 0,21,22
 477 1313 477 1313 434 1282 c 128,-1,23
 391 1251 391 1251 359 1185 c 0,24,25
 338 1141 338 1141 321 1076.5 c 128,-1,26
 304 1012 304 1012 294 945.5 c 128,-1,27
 284 879 284 879 284 827 c 0,28,29
 284 637 284 637 410 637 c 0,30,31
 495 637 495 637 550 704 c 0,32,33
 583 745 583 745 607.5 812 c 128,-1,34
 632 879 632 879 646 952 c 0,35,36
 665 1053 665 1053 665 1131 c 0,37,38
 665 1313 665 1313 544 1313 c 0,21,22
1474 885 m 0,39,40
 1599 885 1599 885 1666 806 c 128,-1,41
 1733 727 1733 727 1733 577 c 0,42,43
 1733 491 1733 491 1716 400 c 0,44,45
 1703 333 1703 333 1680 270 c 128,-1,46
 1657 207 1657 207 1624 157 c 0,47,48
 1514 -12 1514 -12 1335 -12 c 0,49,50
 1211 -12 1211 -12 1143 70.5 c 128,-1,51
 1075 153 1075 153 1075 305 c 0,52,53
 1075 451 1075 451 1122 595 c 0,54,55
 1217 885 1217 885 1474 885 c 0,39,40
1473 777 m 0,56,57
 1406 777 1406 777 1363 746 c 128,-1,58
 1320 715 1320 715 1288 649 c 0,59,60
 1267 605 1267 605 1250 540.5 c 128,-1,61
 1233 476 1233 476 1223 409.5 c 128,-1,62
 1213 343 1213 343 1213 291 c 0,63,64
 1213 101 1213 101 1339 101 c 0,65,66
 1424 101 1424 101 1479 168 c 0,67,68
 1514 210 1514 210 1539 281.5 c 128,-1,69
 1564 353 1564 353 1577 429 c 0,70,71
 1594 522 1594 522 1594 595 c 0,72,73
 1594 777 1594 777 1473 777 c 0,56,57
EndSplineSet
EndChar

StartChar: ampersand
Encoding: 38 38 9
Width: 1366
GlyphClass: 2
Flags: W
LayerCount: 2
Fore
SplineSet
1248 684 m 1,0,1
 1178 527 1178 527 1105.5 407.5 c 128,-1,2
 1033 288 1033 288 957 208 c 1,3,4
 997 170 997 170 1047.5 149.5 c 128,-1,5
 1098 129 1098 129 1144 129 c 0,6,7
 1205 129 1205 129 1256 145 c 1,8,-1
 1243 10 l 1,9,10
 1184 -12 1184 -12 1118 -12 c 0,11,12
 969 -12 969 -12 847 110 c 1,13,14
 812 85 812 85 775 64 c 128,-1,15
 738 43 738 43 699 28 c 0,16,17
 639 4 639 4 574 -8 c 128,-1,18
 509 -20 509 -20 440 -20 c 0,19,20
 251 -20 251 -20 142 80.5 c 128,-1,21
 33 181 33 181 33 351 c 0,22,23
 33 456 33 456 73 535 c 128,-1,24
 113 614 113 614 206.5 679 c 128,-1,25
 300 744 300 744 462 806 c 1,26,27
 448 865 448 865 441 923 c 128,-1,28
 434 981 434 981 434 1036 c 0,29,30
 434 1209 434 1209 542.5 1313 c 128,-1,31
 651 1417 651 1417 833 1417 c 0,32,33
 971 1417 971 1417 1057.5 1345 c 128,-1,34
 1144 1273 1144 1273 1144 1155 c 0,35,36
 1144 1039 1144 1039 1062.5 953 c 128,-1,37
 981 867 981 867 771 784 c 0,38,39
 740 771 740 771 709 759 c 128,-1,40
 678 747 678 747 646 734 c 1,41,42
 684 622 684 622 738.5 517.5 c 128,-1,43
 793 413 793 413 864 315 c 1,44,45
 924 383 924 383 981 477 c 128,-1,46
 1038 571 1038 571 1116 739 c 1,47,-1
 1248 684 l 1,0,1
592 1041 m 0,48,49
 592 961 592 961 611 863 c 1,50,51
 690 892 690 892 759 918 c 128,-1,52
 828 944 828 944 880 976 c 0,53,54
 931 1008 931 1008 960.5 1049 c 128,-1,55
 990 1090 990 1090 990 1148 c 0,56,57
 990 1213 990 1213 944.5 1254.5 c 128,-1,58
 899 1296 899 1296 826 1296 c 0,59,60
 714 1296 714 1296 653 1228.5 c 128,-1,61
 592 1161 592 1161 592 1041 c 0,48,49
452 111 m 0,62,63
 534 111 534 111 609 136.5 c 128,-1,64
 684 162 684 162 753 212 c 1,65,66
 680 302 680 302 613 424.5 c 128,-1,67
 546 547 546 547 502 675 c 1,68,69
 334 609 334 609 268.5 536.5 c 128,-1,70
 203 464 203 464 203 354 c 0,71,72
 203 243 203 243 271.5 177 c 128,-1,73
 340 111 340 111 452 111 c 0,62,63
EndSplineSet
EndChar

StartChar: quotesingle
Encoding: 39 39 10
Width: 391
GlyphClass: 2
Flags: W
LayerCount: 2
Fore
SplineSet
449 1409 m 1,0,-1
 343 966 l 1,1,-1
 202 966 l 1,2,-1
 265 1409 l 1,3,-1
 449 1409 l 1,0,-1
EndSplineSet
EndChar

StartChar: parenleft
Encoding: 40 40 11
Width: 682
GlyphClass: 2
Flags: W
LayerCount: 2
Fore
SplineSet
855 1484 m 1,0,1
 277 975 277 975 277 262 c 0,2,3
 277 -127 277 -127 484 -424 c 1,4,-1
 310 -424 l 1,5,6
 96 -129 96 -129 96 278 c 0,7,8
 96 650 96 650 246 957 c 128,-1,9
 396 1264 396 1264 681 1484 c 1,10,-1
 855 1484 l 1,0,1
EndSplineSet
EndChar

StartChar: parenright
Encoding: 41 41 12
Width: 682
GlyphClass: 2
Flags: W
LayerCount: 2
Fore
SplineSet
-199 -424 m 1,0,1
 379 85 379 85 379 798 c 0,2,3
 379 992 379 992 327.5 1164 c 128,-1,4
 276 1336 276 1336 172 1484 c 1,5,-1
 346 1484 l 1,6,7
 560 1189 560 1189 560 782 c 0,8,9
 560 410 560 410 410 103 c 128,-1,10
 260 -204 260 -204 -25 -424 c 1,11,-1
 -199 -424 l 1,0,1
EndSplineSet
EndChar

StartChar: asterisk
Encoding: 42 42 13
Width: 797
GlyphClass: 2
Flags: W
LayerCount: 2
Fore
SplineSet
755 762 m 1,0,-1
 636 690 l 1,1,-1
 486 948 l 1,2,-1
 330 692 l 1,3,-1
 211 764 l 1,4,-1
 400 1012 l 1,5,-1
 120 1085 l 1,6,-1
 165 1219 l 1,7,-1
 432 1112 l 1,8,-1
 420 1409 l 1,9,-1
 556 1409 l 1,10,-1
 543 1114 l 1,11,-1
 807 1217 l 1,12,-1
 852 1085 l 1,13,-1
 570 1012 l 1,14,-1
 755 762 l 1,0,-1
EndSplineSet
EndChar

StartChar: plus
Encoding: 43 43 14
Width: 1196
GlyphClass: 2
Flags: W
LayerCount: 2
Fore
SplineSet
701 608 m 1,0,-1
 701 180 l 1,1,-1
 554 180 l 1,2,-1
 554 608 l 1,3,-1
 130 608 l 1,4,-1
 130 754 l 1,5,-1
 554 754 l 1,6,-1
 554 1182 l 1,7,-1
 701 1182 l 1,8,-1
 701 754 l 1,9,-1
 1125 754 l 1,10,-1
 1125 608 l 1,11,-1
 701 608 l 1,0,-1
EndSplineSet
EndChar

StartChar: comma
Encoding: 44 44 15
Width: 569
GlyphClass: 2
Flags: W
LayerCount: 2
Fore
SplineSet
299 51 m 2,0,1
 281 -44 281 -44 248 -119 c 128,-1,2
 215 -194 215 -194 160 -262 c 1,3,-1
 37 -262 l 1,4,5
 97 -194 97 -194 133 -128 c 128,-1,6
 169 -62 169 -62 182 0 c 1,7,-1
 94 0 l 1,8,-1
 136 219 l 1,9,-1
 331 219 l 1,10,-1
 299 51 l 2,0,1
EndSplineSet
EndChar

StartChar: hyphen
Encoding: 45 45 16
AltUni2: 0000ad.ffffffff.0
Width: 682
GlyphClass: 2
Flags: W
LayerCount: 2
Fore
SplineSet
636 624 m 1,0,-1
 605 464 l 1,1,-1
 105 464 l 1,2,-1
 136 624 l 1,3,-1
 636 624 l 1,0,-1
EndSplineSet
EndChar

StartChar: period
Encoding: 46 46 17
Width: 569
GlyphClass: 2
Flags: W
LayerCount: 2
Fore
SplineSet
318 219 m 1,0,-1
 275 0 l 1,1,-1
 80 0 l 1,2,-1
 123 219 l 1,3,-1
 318 219 l 1,0,-1
EndSplineSet
EndChar

StartChar: slash
Encoding: 47 47 18
Width: 569
GlyphClass: 2
Flags: W
LayerCount: 2
Fore
SplineSet
745 1484 m 1,0,-1
 45 -20 l 1,1,-1
 -116 -20 l 1,2,-1
 587 1484 l 1,3,-1
 745 1484 l 1,0,-1
EndSplineSet
EndChar

StartChar: zero
Encoding: 48 48 19
Width: 1139
GlyphClass: 2
Flags: W
LayerCount: 2
Fore
SplineSet
732 1430 m 0,0,1
 915 1430 915 1430 1018.5 1307 c 128,-1,2
 1122 1184 1122 1184 1122 964 c 0,3,4
 1122 708 1122 708 1044 469 c 0,5,6
 966 229 966 229 823 104.5 c 128,-1,7
 680 -20 680 -20 476 -20 c 0,8,9
 295 -20 295 -20 192 109 c 128,-1,10
 89 238 89 238 89 465 c 0,11,12
 89 585 89 585 109 709.5 c 128,-1,13
 129 834 129 834 167 948.5 c 128,-1,14
 205 1063 205 1063 258 1153 c 0,15,16
 338 1289 338 1289 455 1359.5 c 128,-1,17
 572 1430 572 1430 732 1430 c 0,0,1
491 127 m 0,18,19
 642 127 642 127 738 233 c 0,20,21
 776 275 776 275 808.5 339.5 c 128,-1,22
 841 404 841 404 866.5 482.5 c 128,-1,23
 892 561 892 561 910 646 c 128,-1,24
 928 731 928 731 937.5 814.5 c 128,-1,25
 947 898 947 898 947 973 c 0,26,27
 947 1128 947 1128 887.5 1206 c 128,-1,28
 828 1284 828 1284 720 1284 c 0,29,30
 644 1284 644 1284 582.5 1257.5 c 128,-1,31
 521 1231 521 1231 474 1178 c 0,32,33
 426 1125 426 1125 387.5 1038.5 c 128,-1,34
 349 952 349 952 321 848.5 c 128,-1,35
 293 745 293 745 278.5 638 c 128,-1,36
 264 531 264 531 264 438 c 0,37,38
 264 283 264 283 323.5 205 c 128,-1,39
 383 127 383 127 491 127 c 0,18,19
EndSplineSet
EndChar

StartChar: one
Encoding: 49 49 20
Width: 1139
GlyphClass: 2
Flags: W
LayerCount: 2
Fore
SplineSet
966 153 m 1,0,-1
 936 0 l 1,1,-1
 53 0 l 1,2,-1
 83 153 l 1,3,-1
 442 153 l 1,4,-1
 650 1223 l 1,5,-1
 289 1000 l 1,6,-1
 324 1180 l 1,7,-1
 701 1409 l 1,8,-1
 867 1409 l 1,9,-1
 623 153 l 1,10,-1
 966 153 l 1,0,-1
EndSplineSet
EndChar

StartChar: two
Encoding: 50 50 21
Width: 1139
GlyphClass: 2
Flags: W
LayerCount: 2
Fore
SplineSet
949 153 m 1,0,-1
 920 0 l 1,1,-1
 -12 0 l 1,2,-1
 12 127 l 1,3,4
 67 220 67 220 135 293 c 128,-1,5
 203 366 203 366 277 426 c 0,6,7
 327 466 327 466 377.5 500.5 c 128,-1,8
 428 535 428 535 478 567 c 128,-1,9
 528 599 528 599 576 629 c 0,10,11
 647 674 647 674 709.5 719 c 128,-1,12
 772 764 772 764 819 815 c 256,13,14
 866 866 866 866 893 926.5 c 128,-1,15
 920 987 920 987 920 1063 c 0,16,17
 920 1161 920 1161 857.5 1221.5 c 128,-1,18
 795 1282 795 1282 689 1282 c 0,19,20
 580 1282 580 1282 499 1222.5 c 128,-1,21
 418 1163 418 1163 381 1044 c 1,22,-1
 211 1081 l 1,23,24
 265 1251 265 1251 389 1340.5 c 128,-1,25
 513 1430 513 1430 700 1430 c 0,26,27
 822 1430 822 1430 914 1385.5 c 128,-1,28
 1006 1341 1006 1341 1057.5 1261.5 c 128,-1,29
 1109 1182 1109 1182 1109 1078 c 0,30,31
 1109 973 1109 973 1058 875 c 0,32,33
 1024 811 1024 811 968.5 751 c 128,-1,34
 913 691 913 691 823.5 624 c 128,-1,35
 734 557 734 557 596 470 c 0,36,37
 449 377 449 377 358.5 301 c 128,-1,38
 268 225 268 225 222 153 c 1,39,-1
 949 153 l 1,0,-1
EndSplineSet
EndChar

StartChar: three
Encoding: 51 51 22
Width: 1139
GlyphClass: 2
Flags: W
LayerCount: 2
Fore
SplineSet
566 795 m 2,0,1
 749 795 749 795 839.5 868 c 128,-1,2
 930 941 930 941 930 1081 c 0,3,4
 930 1174 930 1174 869.5 1228 c 128,-1,5
 809 1282 809 1282 708 1282 c 0,6,7
 589 1282 589 1282 503.5 1221 c 128,-1,8
 418 1160 418 1160 384 1049 c 1,9,-1
 206 1063 l 1,10,11
 264 1249 264 1249 397.5 1339.5 c 128,-1,12
 531 1430 531 1430 718 1430 c 256,13,14
 905 1430 905 1430 1013 1338 c 128,-1,15
 1121 1246 1121 1246 1121 1086 c 0,16,17
 1121 933 1121 933 1024.5 836.5 c 128,-1,18
 928 740 928 740 753 717 c 1,19,-1
 752 713 l 1,20,21
 883 687 883 687 956 608.5 c 128,-1,22
 1029 530 1029 530 1029 407 c 0,23,24
 1029 283 1029 283 969 185 c 0,25,26
 908 88 908 88 793.5 34 c 128,-1,27
 679 -20 679 -20 526 -20 c 0,28,29
 399 -20 399 -20 300 24 c 0,30,31
 99 115 99 115 48 338 c 1,32,-1
 212 386 l 1,33,34
 242 270 242 270 330 199.5 c 128,-1,35
 418 129 418 129 541 129 c 0,36,37
 682 129 682 129 761.5 203.5 c 128,-1,38
 841 278 841 278 841 404 c 0,39,40
 841 516 841 516 766 577.5 c 128,-1,41
 691 639 691 639 562 639 c 2,42,-1
 438 639 l 1,43,-1
 468 795 l 1,44,-1
 566 795 l 2,0,1
EndSplineSet
EndChar

StartChar: four
Encoding: 52 52 23
Width: 1139
GlyphClass: 2
Flags: W
LayerCount: 2
Fore
SplineSet
846 319 m 1,0,-1
 784 0 l 1,1,-1
 604 0 l 1,2,-1
 666 319 l 1,3,-1
 13 319 l 1,4,-1
 40 459 l 1,5,-1
 859 1409 l 1,6,-1
 1058 1409 l 1,7,-1
 874 461 l 1,8,-1
 1062 461 l 1,9,-1
 1034 319 l 1,10,-1
 846 319 l 1,0,-1
826 1157 m 1,11,12
 798 1123 798 1123 769 1090 c 128,-1,13
 740 1057 740 1057 711 1023 c 2,14,-1
 227 461 l 1,15,-1
 694 461 l 1,16,-1
 798 1007 l 2,17,18
 806 1045 806 1045 812.5 1082.5 c 128,-1,19
 819 1120 819 1120 826 1157 c 1,11,12
EndSplineSet
EndChar

StartChar: five
Encoding: 53 53 24
Width: 1139
GlyphClass: 2
Flags: W
LayerCount: 2
Fore
SplineSet
968 194 m 0,0,1
 901 91 901 91 783.5 35.5 c 128,-1,2
 666 -20 666 -20 505 -20 c 0,3,4
 320 -20 320 -20 205 62.5 c 128,-1,5
 90 145 90 145 46 309 c 1,6,-1
 209 352 l 1,7,8
 240 238 240 238 319 182.5 c 128,-1,9
 398 127 398 127 515 127 c 0,10,11
 681 127 681 127 771 220.5 c 128,-1,12
 861 314 861 314 861 486 c 0,13,14
 861 608 861 608 792 680 c 128,-1,15
 723 752 723 752 607 752 c 0,16,17
 444 752 444 752 325 651 c 1,18,-1
 149 651 l 1,19,-1
 343 1409 l 1,20,-1
 1144 1409 l 1,21,-1
 1115 1256 l 1,22,-1
 478 1256 l 1,23,-1
 364 809 l 1,24,25
 414 851 414 851 486 875 c 128,-1,26
 558 899 558 899 641 899 c 0,27,28
 825 899 825 899 938 792.5 c 128,-1,29
 1051 686 1051 686 1051 506 c 0,30,31
 1051 322 1051 322 968 194 c 0,0,1
EndSplineSet
EndChar

StartChar: six
Encoding: 54 54 25
Width: 1139
GlyphClass: 2
Flags: W
LayerCount: 2
Fore
SplineSet
534 -20 m 0,0,1
 406 -20 406 -20 311.5 41 c 128,-1,2
 217 102 217 102 166 211 c 128,-1,3
 115 320 115 320 115 464 c 0,4,5
 115 706 115 706 199 941 c 0,6,7
 282 1177 282 1177 427 1303.5 c 128,-1,8
 572 1430 572 1430 761 1430 c 0,9,10
 911 1430 911 1430 1007.5 1358.5 c 128,-1,11
 1104 1287 1104 1287 1139 1151 c 1,12,-1
 973 1115 l 1,13,14
 948 1196 948 1196 891 1240 c 128,-1,15
 834 1284 834 1284 753 1284 c 0,16,17
 589 1284 589 1284 474 1138 c 128,-1,18
 359 992 359 992 307 726 c 1,19,20
 367 816 367 816 458.5 863.5 c 128,-1,21
 550 911 550 911 663 911 c 0,22,23
 778 911 778 911 864 863 c 128,-1,24
 950 815 950 815 998.5 730 c 128,-1,25
 1047 645 1047 645 1047 533 c 0,26,27
 1047 381 1047 381 981 253 c 0,28,29
 914 124 914 124 796.5 52 c 128,-1,30
 679 -20 679 -20 534 -20 c 0,0,1
288 421 m 0,31,32
 288 290 288 290 356 207.5 c 128,-1,33
 424 125 424 125 538 125 c 0,34,35
 631 125 631 125 704 176.5 c 128,-1,36
 777 228 777 228 819 318 c 128,-1,37
 861 408 861 408 861 522 c 0,38,39
 861 637 861 637 801.5 704.5 c 128,-1,40
 742 772 742 772 630 772 c 0,41,42
 537 772 537 772 459 730 c 0,43,44
 380 687 380 687 334 609 c 128,-1,45
 288 531 288 531 288 421 c 0,31,32
EndSplineSet
EndChar

StartChar: seven
Encoding: 55 55 26
Width: 1139
GlyphClass: 2
Flags: W
LayerCount: 2
Fore
SplineSet
435 0 m 1,0,-1
 247 0 l 1,1,2
 267 102 267 102 298.5 199 c 128,-1,3
 330 296 330 296 372 388 c 256,4,5
 414 480 414 480 462.5 567.5 c 128,-1,6
 511 655 511 655 579.5 753 c 128,-1,7
 648 851 648 851 746.5 973 c 128,-1,8
 845 1095 845 1095 986 1256 c 1,9,-1
 212 1256 l 1,10,-1
 241 1409 l 1,11,-1
 1202 1409 l 1,12,-1
 1174 1263 l 1,13,14
 1062 1132 1062 1132 985.5 1039 c 128,-1,15
 909 946 909 946 866 891 c 256,16,17
 823 836 823 836 785 782.5 c 128,-1,18
 747 729 747 729 713 677 c 256,19,20
 679 625 679 625 648.5 572.5 c 128,-1,21
 618 520 618 520 592 467 c 0,22,23
 539 361 539 361 499.5 244.5 c 128,-1,24
 460 128 460 128 435 0 c 1,0,-1
EndSplineSet
EndChar

StartChar: eight
Encoding: 56 56 27
Width: 1139
GlyphClass: 2
Flags: W
LayerCount: 2
Fore
SplineSet
704 1429 m 0,0,1
 895 1429 895 1429 1011 1337.5 c 128,-1,2
 1127 1246 1127 1246 1127 1091 c 0,3,4
 1127 951 1127 951 1040.5 853 c 128,-1,5
 954 755 954 755 807 733 c 1,6,-1
 806 729 l 1,7,8
 916 696 916 696 974.5 619 c 128,-1,9
 1033 542 1033 542 1033 432 c 0,10,11
 1033 224 1033 224 891 102 c 128,-1,12
 749 -20 749 -20 500 -20 c 0,13,14
 287 -20 287 -20 170.5 81 c 128,-1,15
 54 182 54 182 54 360 c 0,16,17
 54 510 54 510 145 613.5 c 128,-1,18
 236 717 236 717 411 756 c 1,19,-1
 411 760 l 1,20,21
 320 798 320 798 270 873.5 c 128,-1,22
 220 949 220 949 220 1052 c 0,23,24
 220 1229 220 1229 350 1329 c 128,-1,25
 480 1429 480 1429 704 1429 c 0,0,1
658 811 m 0,26,27
 792 811 792 811 866.5 882.5 c 128,-1,28
 941 954 941 954 941 1087 c 0,29,30
 941 1185 941 1185 875.5 1239.5 c 128,-1,31
 810 1294 810 1294 683 1294 c 0,32,33
 550 1294 550 1294 475 1227 c 128,-1,34
 400 1160 400 1160 400 1033 c 0,35,36
 400 930 400 930 468.5 870.5 c 128,-1,37
 537 811 537 811 658 811 c 0,26,27
566 672 m 0,38,39
 410 672 410 672 324.5 589 c 128,-1,40
 239 506 239 506 239 356 c 0,41,42
 239 244 239 244 313 180.5 c 128,-1,43
 387 117 387 117 519 117 c 0,44,45
 667 117 667 117 758.5 203 c 128,-1,46
 850 289 850 289 850 436 c 0,47,48
 850 547 850 547 773.5 609.5 c 128,-1,49
 697 672 697 672 566 672 c 0,38,39
EndSplineSet
EndChar

StartChar: nine
Encoding: 57 57 28
Width: 1139
GlyphClass: 2
Flags: W
LayerCount: 2
Fore
SplineSet
898 684 m 1,0,1
 831 583 831 583 746.5 532 c 128,-1,2
 662 481 662 481 559 481 c 0,3,4
 440 481 440 481 351 533 c 0,5,6
 261 584 261 584 212 676 c 128,-1,7
 163 768 163 768 163 881 c 0,8,9
 163 1033 163 1033 229 1160 c 0,10,11
 295 1286 295 1286 414.5 1358 c 128,-1,12
 534 1430 534 1430 682 1430 c 0,13,14
 813 1430 813 1430 905.5 1372.5 c 128,-1,15
 998 1315 998 1315 1047.5 1209 c 128,-1,16
 1097 1103 1097 1103 1097 957 c 0,17,18
 1097 854 1097 854 1080 743 c 128,-1,19
 1063 632 1063 632 1032 528 c 128,-1,20
 1001 424 1001 424 959 340 c 0,21,22
 895 214 895 214 816 135 c 0,23,24
 736 54 736 54 643 17 c 128,-1,25
 550 -20 550 -20 453 -20 c 0,26,27
 299 -20 299 -20 203.5 49 c 128,-1,28
 108 118 108 118 70 257 c 1,29,-1
 228 302 l 1,30,31
 252 217 252 217 311 171 c 128,-1,32
 370 125 370 125 461 125 c 0,33,34
 619 125 619 125 730.5 269.5 c 128,-1,35
 842 414 842 414 898 684 c 1,0,1
925 1017 m 0,36,37
 925 1138 925 1138 856 1211 c 128,-1,38
 787 1284 787 1284 678 1284 c 0,39,40
 530 1284 530 1284 438 1176 c 128,-1,41
 346 1068 346 1068 346 879 c 0,42,43
 346 757 346 757 409 690 c 128,-1,44
 472 623 472 623 580 623 c 0,45,46
 675 623 675 623 757 674 c 0,47,48
 925 778 925 778 925 1017 c 0,36,37
EndSplineSet
EndChar

StartChar: colon
Encoding: 58 58 29
Width: 569
GlyphClass: 2
Flags: W
LayerCount: 2
Fore
SplineSet
487 1082 m 1,0,-1
 446 875 l 1,1,-1
 251 875 l 1,2,-1
 292 1082 l 1,3,-1
 487 1082 l 1,0,-1
317 207 m 1,4,-1
 276 0 l 1,5,-1
 81 0 l 1,6,-1
 122 207 l 1,7,-1
 317 207 l 1,4,-1
EndSplineSet
EndChar

StartChar: semicolon
Encoding: 59 59 30
AltUni2: 00037e.ffffffff.0
Width: 569
GlyphClass: 2
Flags: W
LayerCount: 2
Fore
SplineSet
500 1082 m 1,0,-1
 460 875 l 1,1,-1
 265 875 l 1,2,-1
 305 1082 l 1,3,-1
 500 1082 l 1,0,-1
300 51 m 2,4,5
 282 -44 282 -44 249 -119 c 128,-1,6
 216 -194 216 -194 161 -262 c 1,7,-1
 38 -262 l 1,8,9
 98 -194 98 -194 134 -128 c 128,-1,10
 170 -62 170 -62 183 0 c 1,11,-1
 95 0 l 1,12,-1
 135 207 l 1,13,-1
 330 207 l 1,14,-1
 300 51 l 2,4,5
EndSplineSet
EndChar

StartChar: less
Encoding: 60 60 31
Width: 1196
GlyphClass: 2
Flags: W
LayerCount: 2
Fore
SplineSet
1126 307 m 1,0,-1
 1126 154 l 1,1,-1
 131 571 l 1,2,-1
 131 776 l 1,3,-1
 1126 1194 l 1,4,-1
 1126 1040 l 1,5,-1
 268 674 l 1,6,-1
 1126 307 l 1,0,-1
EndSplineSet
EndChar

StartChar: equal
Encoding: 61 61 32
Width: 1196
GlyphClass: 2
Flags: W
LayerCount: 2
Fore
SplineSet
1125 1004 m 1,0,-1
 1125 856 l 1,1,-1
 130 856 l 1,2,-1
 130 1004 l 1,3,-1
 1125 1004 l 1,0,-1
1125 492 m 1,4,-1
 1125 344 l 1,5,-1
 130 344 l 1,6,-1
 130 492 l 1,7,-1
 1125 492 l 1,4,-1
EndSplineSet
EndChar

StartChar: greater
Encoding: 62 62 33
Width: 1196
GlyphClass: 2
Flags: W
LayerCount: 2
Fore
SplineSet
1126 571 m 1,0,-1
 131 154 l 1,1,-1
 131 307 l 1,2,-1
 989 674 l 1,3,-1
 131 1040 l 1,4,-1
 131 1194 l 1,5,-1
 1126 776 l 1,6,-1
 1126 571 l 1,0,-1
EndSplineSet
EndChar

StartChar: question
Encoding: 63 63 34
Width: 1139
GlyphClass: 2
Flags: W
LayerCount: 2
Fore
SplineSet
701 1430 m 0,0,1
 833 1430 833 1430 930 1384.5 c 128,-1,2
 1027 1339 1027 1339 1080 1258.5 c 128,-1,3
 1133 1178 1133 1178 1133 1073 c 0,4,5
 1133 976 1133 976 1102.5 907.5 c 128,-1,6
 1072 839 1072 839 1024 789 c 0,7,8
 992 755 992 755 953.5 727.5 c 128,-1,9
 915 700 915 700 874.5 676.5 c 128,-1,10
 834 653 834 653 794 629 c 0,11,12
 731 594 731 594 689 563 c 128,-1,13
 647 532 647 532 619 502 c 256,14,15
 591 472 591 472 576.5 442 c 128,-1,16
 562 412 562 412 555 377 c 1,17,-1
 380 377 l 1,18,19
 394 457 394 457 428 517 c 0,20,21
 452 557 452 557 481 589.5 c 128,-1,22
 510 622 510 622 561.5 659 c 128,-1,23
 613 696 613 696 702 746 c 0,24,25
 755 776 755 776 793 801.5 c 128,-1,26
 831 827 831 827 854 848 c 0,27,28
 900 889 900 889 923 939 c 128,-1,29
 946 989 946 989 946 1052 c 0,30,31
 946 1150 946 1150 873 1210 c 128,-1,32
 800 1270 800 1270 684 1270 c 0,33,34
 544 1270 544 1270 453 1200 c 128,-1,35
 362 1130 362 1130 324 1008 c 1,36,-1
 159 1048 l 1,37,38
 222 1243 222 1243 358.5 1336.5 c 128,-1,39
 495 1430 495 1430 701 1430 c 0,0,1
533 201 m 1,40,-1
 494 0 l 1,41,-1
 299 0 l 1,42,-1
 338 201 l 1,43,-1
 533 201 l 1,40,-1
EndSplineSet
EndChar

StartChar: at
Encoding: 64 64 35
Width: 2079
GlyphClass: 2
Flags: W
LayerCount: 2
Fore
SplineSet
1935 755 m 0,0,1
 1935 569 1935 569 1878 419 c 0,2,3
 1820 268 1820 268 1717.5 186 c 128,-1,4
 1615 104 1615 104 1488 104 c 0,5,6
 1387 104 1387 104 1334 149.5 c 128,-1,7
 1281 195 1281 195 1281 280 c 0,8,9
 1282 297 1282 297 1282.5 315 c 128,-1,10
 1283 333 1283 333 1284 350 c 1,11,-1
 1278 350 l 1,12,13
 1212 227 1212 227 1114.5 165.5 c 128,-1,14
 1017 104 1017 104 904 104 c 0,15,16
 747 104 747 104 660.5 206 c 128,-1,17
 574 308 574 308 574 489 c 0,18,19
 574 652 574 652 639 794 c 0,20,21
 704 935 704 935 819.5 1018 c 128,-1,22
 935 1101 935 1101 1076 1101 c 0,23,24
 1294 1101 1294 1101 1377 919 c 1,25,-1
 1383 919 l 1,26,-1
 1422 1079 l 1,27,-1
 1578 1079 l 1,28,-1
 1462 573 l 2,29,30
 1425 412 1425 412 1425 320 c 0,31,32
 1425 273 1425 273 1445.5 249.5 c 128,-1,33
 1466 226 1466 226 1506 226 c 0,34,35
 1587 226 1587 226 1654 295 c 0,36,37
 1722 364 1722 364 1760.5 485 c 128,-1,38
 1799 606 1799 606 1799 753 c 0,39,40
 1799 931 1799 931 1722 1071 c 0,41,42
 1645 1209 1645 1209 1500 1283.5 c 128,-1,43
 1355 1358 1355 1358 1161 1358 c 0,44,45
 920 1358 920 1358 733 1251 c 0,46,47
 547 1144 547 1144 441 942.5 c 128,-1,48
 335 741 335 741 335 491 c 0,49,50
 335 297 335 297 414 151 c 0,51,52
 492 3 492 3 640.5 -76 c 128,-1,53
 789 -155 789 -155 987 -155 c 0,54,55
 1301 -155 1301 -155 1590 7 c 1,56,-1
 1645 -105 l 1,57,58
 1500 -192 1500 -192 1330.5 -237.5 c 128,-1,59
 1161 -283 1161 -283 987 -283 c 0,60,61
 747 -283 747 -283 568 -188 c 0,62,63
 388 -93 388 -93 291 84 c 128,-1,64
 194 261 194 261 194 491 c 0,65,66
 194 770 194 770 319 1000 c 0,67,68
 444 1229 444 1229 664.5 1356.5 c 128,-1,69
 885 1484 885 1484 1159 1484 c 0,70,71
 1400 1484 1400 1484 1575 1394 c 0,72,73
 1750 1303 1750 1303 1842.5 1138 c 128,-1,74
 1935 973 1935 973 1935 755 c 0,0,1
1329 747 m 0,75,76
 1329 849 1329 849 1263 911.5 c 128,-1,77
 1197 974 1197 974 1087 974 c 0,78,79
 986 974 986 974 908 911 c 0,80,81
 829 847 829 847 784 733 c 128,-1,82
 739 619 739 619 739 491 c 0,83,84
 739 371 739 371 786.5 303 c 128,-1,85
 834 235 834 235 933 235 c 0,86,87
 1013 235 1013 235 1086 279 c 128,-1,88
 1159 323 1159 323 1214 401 c 0,89,90
 1251 453 1251 453 1276.5 515 c 128,-1,91
 1302 577 1302 577 1315.5 638 c 128,-1,92
 1329 699 1329 699 1329 747 c 0,75,76
EndSplineSet
EndChar

StartChar: A
Encoding: 65 65 36
Width: 1366
GlyphClass: 2
Flags: W
LayerCount: 2
Fore
SplineSet
347 412 m 1,0,-1
 107 0 l 1,1,-1
 -101 0 l 1,2,-1
 747 1409 l 1,3,-1
 964 1409 l 1,4,-1
 1256 0 l 1,5,-1
 1061 0 l 1,6,-1
 986 412 l 1,7,-1
 347 412 l 1,0,-1
830 1265 m 1,8,9
 823 1252 823 1252 814 1235 c 128,-1,10
 805 1218 805 1218 793 1196 c 2,11,-1
 431 561 l 1,12,-1
 958 561 l 1,13,-1
 856 1114 l 2,14,15
 849 1152 849 1152 843 1190 c 128,-1,16
 837 1228 837 1228 830 1265 c 1,8,9
EndSplineSet
EndChar

StartChar: B
Encoding: 66 66 37
Width: 1366
GlyphClass: 2
Flags: W
LayerCount: 2
Fore
SplineSet
1247 439 m 0,0,1
 1247 226 1247 226 1091 113 c 128,-1,2
 935 0 935 0 658 0 c 2,3,-1
 63 0 l 1,4,-1
 336 1409 l 1,5,-1
 846 1409 l 2,6,7
 1055 1409 1055 1409 1175.5 1322.5 c 128,-1,8
 1296 1236 1296 1236 1296 1087 c 0,9,10
 1296 802 1296 802 957 743 c 1,11,12
 1095 720 1095 720 1171 638.5 c 128,-1,13
 1247 557 1247 557 1247 439 c 0,0,1
411 810 m 1,14,-1
 742 810 l 2,15,16
 920 810 920 810 1008.5 874.5 c 128,-1,17
 1097 939 1097 939 1097 1068 c 0,18,19
 1097 1162 1097 1162 1030 1209 c 128,-1,20
 963 1256 963 1256 829 1256 c 2,21,-1
 498 1256 l 1,22,-1
 411 810 l 1,14,-1
283 153 m 1,23,-1
 651 153 l 2,24,25
 861 153 861 153 958.5 226.5 c 128,-1,26
 1056 300 1056 300 1056 442 c 0,27,28
 1056 549 1056 549 976.5 605 c 128,-1,29
 897 661 897 661 748 661 c 2,30,-1
 382 661 l 1,31,-1
 283 153 l 1,23,-1
EndSplineSet
EndChar

StartChar: C
Encoding: 67 67 38
Width: 1479
GlyphClass: 2
Flags: W
LayerCount: 2
Fore
SplineSet
1215 426 m 1,0,-1
 1358 337 l 1,1,2
 1232 149 1232 149 1072 64.5 c 128,-1,3
 912 -20 912 -20 700 -20 c 0,4,5
 519 -20 519 -20 386 53 c 0,6,7
 253 125 253 125 183 259 c 128,-1,8
 113 393 113 393 113 569 c 0,9,10
 113 815 113 815 218 1014 c 256,11,12
 323 1213 323 1213 509.5 1321.5 c 128,-1,13
 696 1430 696 1430 926 1430 c 0,14,15
 1143 1430 1143 1430 1292.5 1339.5 c 128,-1,16
 1442 1249 1442 1249 1490 1085 c 1,17,-1
 1310 1030 l 1,18,19
 1274 1142 1274 1142 1170.5 1208 c 128,-1,20
 1067 1274 1067 1274 916 1274 c 0,21,22
 731 1274 731 1274 592 1186 c 0,23,24
 452 1098 452 1098 377 937 c 128,-1,25
 302 776 302 776 302 566 c 0,26,27
 302 366 302 366 411 250.5 c 128,-1,28
 520 135 520 135 713 135 c 0,29,30
 861 135 861 135 989 208.5 c 128,-1,31
 1117 282 1117 282 1215 426 c 1,0,-1
EndSplineSet
EndChar

StartChar: D
Encoding: 68 68 39
Width: 1479
GlyphClass: 2
Flags: W
LayerCount: 2
Fore
SplineSet
744 1409 m 2,0,1
 952 1409 952 1409 1102 1334.5 c 128,-1,2
 1252 1260 1252 1260 1332.5 1122 c 128,-1,3
 1413 984 1413 984 1413 791 c 0,4,5
 1413 554 1413 554 1310 378 c 0,6,7
 1207 201 1207 201 1013.5 100.5 c 128,-1,8
 820 0 820 0 575 0 c 2,9,-1
 63 0 l 1,10,-1
 336 1409 l 1,11,-1
 744 1409 l 2,0,1
283 153 m 1,12,-1
 567 153 l 2,13,14
 763 153 763 153 911 231 c 0,15,16
 1060 308 1060 308 1139.5 453.5 c 128,-1,17
 1219 599 1219 599 1219 793 c 0,18,19
 1219 1012 1219 1012 1093 1134 c 128,-1,20
 967 1256 967 1256 740 1256 c 2,21,-1
 498 1256 l 1,22,-1
 283 153 l 1,12,-1
EndSplineSet
EndChar

StartChar: E
Encoding: 69 69 40
Width: 1366
GlyphClass: 2
Flags: W
LayerCount: 2
Fore
SplineSet
1183 156 m 1,0,-1
 1153 0 l 1,1,-1
 63 0 l 1,2,-1
 336 1409 l 1,3,-1
 1385 1409 l 1,4,-1
 1355 1253 l 1,5,-1
 497 1253 l 1,6,-1
 409 801 l 1,7,-1
 1207 801 l 1,8,-1
 1177 647 l 1,9,-1
 379 647 l 1,10,-1
 284 156 l 1,11,-1
 1183 156 l 1,0,-1
EndSplineSet
EndChar

StartChar: F
Encoding: 70 70 41
Width: 1251
GlyphClass: 2
Flags: W
LayerCount: 2
Fore
SplineSet
364 571 m 1,0,-1
 254 0 l 1,1,-1
 63 0 l 1,2,-1
 336 1409 l 1,3,-1
 1347 1409 l 1,4,-1
 1317 1253 l 1,5,-1
 497 1253 l 1,6,-1
 395 729 l 1,7,-1
 1191 729 l 1,8,-1
 1160 571 l 1,9,-1
 364 571 l 1,0,-1
EndSplineSet
EndChar

StartChar: G
Encoding: 71 71 42
Width: 1593
GlyphClass: 2
Flags: W
LayerCount: 2
Fore
SplineSet
742 -20 m 0,0,1
 437 -20 437 -20 269 136 c 128,-1,2
 101 292 101 292 101 573 c 0,3,4
 101 823 101 823 206 1019 c 0,5,6
 311 1216 311 1216 503.5 1323 c 128,-1,7
 696 1430 696 1430 944 1430 c 0,8,9
 1166 1430 1166 1430 1308 1346 c 128,-1,10
 1450 1262 1450 1262 1505 1098 c 1,11,-1
 1312 1044 l 1,12,13
 1275 1159 1275 1159 1178 1216.5 c 128,-1,14
 1081 1274 1081 1274 932 1274 c 0,15,16
 741 1274 741 1274 596 1188 c 256,17,18
 451 1102 451 1102 374 943.5 c 128,-1,19
 297 785 297 785 297 577 c 0,20,21
 297 366 297 366 415 250.5 c 128,-1,22
 533 135 533 135 748 135 c 0,23,24
 886 135 886 135 1012 174.5 c 128,-1,25
 1138 214 1138 214 1231 291 c 1,26,-1
 1282 545 l 1,27,-1
 861 545 l 1,28,-1
 893 705 l 1,29,-1
 1490 705 l 1,30,-1
 1390 210 l 1,31,32
 1250 90 1250 90 1091.5 35 c 128,-1,33
 933 -20 933 -20 742 -20 c 0,0,1
EndSplineSet
EndChar

StartChar: H
Encoding: 72 72 43
Width: 1479
GlyphClass: 2
Flags: W
LayerCount: 2
Fore
SplineSet
381 653 m 1,0,-1
 254 0 l 1,1,-1
 63 0 l 1,2,-1
 337 1409 l 1,3,-1
 528 1409 l 1,4,-1
 412 813 l 1,5,-1
 1179 813 l 1,6,-1
 1295 1409 l 1,7,-1
 1481 1409 l 1,8,-1
 1207 0 l 1,9,-1
 1021 0 l 1,10,-1
 1148 653 l 1,11,-1
 381 653 l 1,0,-1
EndSplineSet
EndChar

StartChar: I
Encoding: 73 73 44
Width: 569
GlyphClass: 2
Flags: W
LayerCount: 2
Fore
SplineSet
546 1409 m 1,0,-1
 272 0 l 1,1,-1
 81 0 l 1,2,-1
 355 1409 l 1,3,-1
 546 1409 l 1,0,-1
EndSplineSet
EndChar

StartChar: J
Encoding: 74 74 45
Width: 1024
GlyphClass: 2
Flags: W
LayerCount: 2
Fore
SplineSet
381 -20 m 0,0,1
 222 -20 222 -20 121.5 73 c 128,-1,2
 21 166 21 166 -5 343 c 1,3,-1
 163 376 l 1,4,5
 186 259 186 259 242 197 c 128,-1,6
 298 135 298 135 398 135 c 0,7,8
 463 135 463 135 511 161 c 0,9,10
 567 192 567 192 604.5 260.5 c 128,-1,11
 642 329 642 329 663 440 c 2,12,-1
 850 1409 l 1,13,-1
 1040 1409 l 1,14,-1
 847 423 l 2,15,16
 804 199 804 199 690 89.5 c 128,-1,17
 576 -20 576 -20 381 -20 c 0,0,1
EndSplineSet
EndChar

StartChar: K
Encoding: 75 75 46
Width: 1366
GlyphClass: 2
Flags: W
LayerCount: 2
Fore
SplineSet
360 545 m 1,0,-1
 254 0 l 1,1,-1
 63 0 l 1,2,-1
 336 1409 l 1,3,-1
 527 1409 l 1,4,-1
 391 718 l 1,5,-1
 531 847 l 1,6,-1
 1196 1409 l 1,7,-1
 1441 1409 l 1,8,-1
 691 779 l 1,9,-1
 1248 0 l 1,10,-1
 1022 0 l 1,11,-1
 550 674 l 1,12,-1
 360 545 l 1,0,-1
EndSplineSet
EndChar

StartChar: L
Encoding: 76 76 47
Width: 1139
GlyphClass: 2
Flags: W
LayerCount: 2
Fore
SplineSet
996 156 m 1,0,-1
 966 0 l 1,1,-1
 63 0 l 1,2,-1
 336 1409 l 1,3,-1
 527 1409 l 1,4,-1
 284 156 l 1,5,-1
 996 156 l 1,0,-1
EndSplineSet
EndChar

StartChar: M
Encoding: 77 77 48
Width: 1706
GlyphClass: 2
Flags: W
LayerCount: 2
Fore
SplineSet
433 1041 m 2,0,-1
 233 0 l 1,1,-1
 63 0 l 1,2,-1
 336 1409 l 1,3,-1
 572 1409 l 1,4,-1
 761 432 l 2,5,6
 765 413 765 413 773 361.5 c 128,-1,7
 781 310 781 310 793 227 c 1,8,9
 819 280 819 280 845 333.5 c 128,-1,10
 871 387 871 387 897 440 c 2,11,-1
 1450 1409 l 1,12,-1
 1706 1409 l 1,13,-1
 1433 0 l 1,14,-1
 1261 0 l 1,15,-1
 1441 928 l 2,16,17
 1459 1020 1459 1020 1475.5 1095 c 128,-1,18
 1492 1170 1492 1170 1506 1228 c 1,19,20
 1476 1165 1476 1165 1449.5 1113 c 128,-1,21
 1423 1061 1423 1061 1401 1020 c 128,-1,22
 1379 979 1379 979 1361 948 c 2,23,-1
 813 0 l 1,24,-1
 689 0 l 1,25,-1
 504 948 l 2,26,27
 501 962 501 962 490.5 1032.5 c 128,-1,28
 480 1103 480 1103 463 1228 c 1,29,30
 459 1198 459 1198 451.5 1151.5 c 128,-1,31
 444 1105 444 1105 433 1041 c 2,0,-1
EndSplineSet
EndChar

StartChar: N
Encoding: 78 78 49
Width: 1479
GlyphClass: 2
Flags: W
LayerCount: 2
Fore
SplineSet
414 943 m 2,0,-1
 233 0 l 1,1,-1
 63 0 l 1,2,-1
 336 1409 l 1,3,-1
 548 1409 l 1,4,-1
 1082 194 l 1,5,6
 1095 289 1095 289 1106 360 c 128,-1,7
 1117 431 1117 431 1127 478 c 2,8,-1
 1308 1409 l 1,9,-1
 1480 1409 l 1,10,-1
 1207 0 l 1,11,-1
 987 0 l 1,12,-1
 456 1210 l 1,13,14
 445 1125 445 1125 434.5 1058 c 128,-1,15
 424 991 424 991 414 943 c 2,0,-1
EndSplineSet
EndChar

StartChar: O
Encoding: 79 79 50
Width: 1593
GlyphClass: 2
Flags: W
LayerCount: 2
Fore
SplineSet
938 1430 m 0,0,1
 1123 1430 1123 1430 1257 1359 c 128,-1,2
 1391 1288 1391 1288 1463.5 1158 c 128,-1,3
 1536 1028 1536 1028 1536 851 c 0,4,5
 1532 585 1532 585 1424 388 c 0,6,7
 1317 192 1317 192 1131 86 c 128,-1,8
 945 -20 945 -20 709 -20 c 0,9,10
 508 -20 508 -20 369 61 c 0,11,12
 244 132 244 132 177.5 263 c 128,-1,13
 111 394 111 394 111 573 c 0,14,15
 111 813 111 813 217 1013 c 0,16,17
 322 1213 322 1213 511 1321.5 c 128,-1,18
 700 1430 700 1430 938 1430 c 0,0,1
929 1276 m 256,19,20
 730 1276 730 1276 590 1187 c 0,21,22
 497 1128 497 1128 433 1027 c 128,-1,23
 369 926 369 926 335.5 805 c 128,-1,24
 302 684 302 684 302 563 c 0,25,26
 302 354 302 354 408.5 244.5 c 128,-1,27
 515 135 515 135 718 135 c 0,28,29
 915 135 915 135 1054 222 c 0,30,31
 1146 280 1146 280 1211 377.5 c 128,-1,32
 1276 475 1276 475 1310.5 597 c 128,-1,33
 1345 719 1345 719 1345 847 c 0,34,35
 1345 1054 1345 1054 1236.5 1165 c 128,-1,36
 1128 1276 1128 1276 929 1276 c 256,19,20
EndSplineSet
EndChar

StartChar: P
Encoding: 80 80 51
Width: 1366
GlyphClass: 2
Flags: W
LayerCount: 2
Fore
SplineSet
852 1409 m 2,0,1
 1083 1409 1083 1409 1218 1305 c 128,-1,2
 1353 1201 1353 1201 1353 1020 c 0,3,4
 1353 874 1353 874 1284 768 c 128,-1,5
 1215 662 1215 662 1087.5 605.5 c 128,-1,6
 960 549 960 549 784 549 c 2,7,-1
 360 549 l 1,8,-1
 254 0 l 1,9,-1
 63 0 l 1,10,-1
 336 1409 l 1,11,-1
 852 1409 l 2,0,1
390 700 m 1,12,-1
 777 700 l 2,13,14
 968 700 968 700 1063.5 778 c 128,-1,15
 1159 856 1159 856 1159 1011 c 0,16,17
 1159 1130 1159 1130 1080 1193 c 128,-1,18
 1001 1256 1001 1256 847 1256 c 2,19,-1
 498 1256 l 1,20,-1
 390 700 l 1,12,-1
EndSplineSet
EndChar

StartChar: Q
Encoding: 81 81 52
Width: 1593
GlyphClass: 2
Flags: W
LayerCount: 2
Fore
SplineSet
928 1430 m 0,0,1
 1113 1430 1113 1430 1247 1359 c 128,-1,2
 1381 1288 1381 1288 1453.5 1158 c 128,-1,3
 1526 1028 1526 1028 1526 851 c 0,4,5
 1522 610 1522 610 1437.5 434 c 128,-1,6
 1353 258 1353 258 1217 150 c 0,7,8
 1050 18 1050 18 822 -12 c 1,9,10
 839 -133 839 -133 889 -188.5 c 128,-1,11
 939 -244 939 -244 1038 -244 c 0,12,13
 1099 -244 1099 -244 1161 -231 c 1,14,-1
 1143 -365 l 1,15,16
 1068 -387 1068 -387 974 -387 c 0,17,18
 823 -387 823 -387 742 -301 c 128,-1,19
 661 -215 661 -215 638 -17 c 1,20,21
 511 -8 511 -8 411.5 36 c 128,-1,22
 312 80 312 80 243 156 c 0,23,24
 101 310 101 310 101 573 c 0,25,26
 101 813 101 813 207 1013 c 0,27,28
 312 1213 312 1213 501 1321.5 c 128,-1,29
 690 1430 690 1430 928 1430 c 0,0,1
919 1276 m 256,30,31
 720 1276 720 1276 580 1187 c 0,32,33
 487 1128 487 1128 423 1027 c 128,-1,34
 359 926 359 926 325.5 805 c 128,-1,35
 292 684 292 684 292 563 c 0,36,37
 292 354 292 354 398.5 244.5 c 128,-1,38
 505 135 505 135 708 135 c 0,39,40
 905 135 905 135 1044 222 c 0,41,42
 1136 280 1136 280 1201 377.5 c 128,-1,43
 1266 475 1266 475 1300.5 597 c 128,-1,44
 1335 719 1335 719 1335 847 c 0,45,46
 1335 1054 1335 1054 1226.5 1165 c 128,-1,47
 1118 1276 1118 1276 919 1276 c 256,30,31
EndSplineSet
EndChar

StartChar: R
Encoding: 82 82 53
Width: 1479
GlyphClass: 2
Flags: W
LayerCount: 2
Fore
SplineSet
367 585 m 1,0,-1
 254 0 l 1,1,-1
 63 0 l 1,2,-1
 336 1409 l 1,3,-1
 948 1409 l 2,4,5
 1101 1409 1101 1409 1212 1355 c 0,6,7
 1309 1309 1309 1309 1362.5 1227.5 c 128,-1,8
 1416 1146 1416 1146 1416 1039 c 0,9,10
 1416 851 1416 851 1308 741 c 128,-1,11
 1200 631 1200 631 989 602 c 1,12,-1
 1257 0 l 1,13,-1
 1051 0 l 1,14,-1
 808 585 l 1,15,-1
 367 585 l 1,0,-1
857 736 m 2,16,17
 1038 736 1038 736 1130 811.5 c 128,-1,18
 1222 887 1222 887 1222 1024 c 0,19,20
 1222 1136 1222 1136 1147.5 1196 c 128,-1,21
 1073 1256 1073 1256 925 1256 c 2,22,-1
 498 1256 l 1,23,-1
 397 736 l 1,24,-1
 857 736 l 2,16,17
EndSplineSet
EndChar

StartChar: S
Encoding: 83 83 54
Width: 1366
GlyphClass: 2
Flags: W
LayerCount: 2
Fore
SplineSet
616 -20 m 0,0,1
 367 -20 367 -20 229.5 68.5 c 128,-1,2
 92 157 92 157 58 338 c 1,3,-1
 235 375 l 1,4,5
 262 246 262 246 355 188 c 128,-1,6
 448 130 448 130 630 130 c 0,7,8
 849 130 849 130 950 195.5 c 128,-1,9
 1051 261 1051 261 1051 396 c 0,10,11
 1051 463 1051 463 1022 503.5 c 128,-1,12
 993 544 993 544 923 577 c 0,13,14
 888 593 888 593 828 613 c 128,-1,15
 768 633 768 633 682 657 c 0,16,17
 514 703 514 703 427 754 c 0,18,19
 342 804 342 804 298.5 873.5 c 128,-1,20
 255 943 255 943 255 1041 c 0,21,22
 255 1163 255 1163 324.5 1250 c 128,-1,23
 394 1337 394 1337 522 1383.5 c 128,-1,24
 650 1430 650 1430 824 1430 c 0,25,26
 1044 1430 1044 1430 1177 1354 c 128,-1,27
 1310 1278 1310 1278 1344 1132 c 1,28,-1
 1171 1081 l 1,29,30
 1138 1186 1138 1186 1052.5 1236 c 128,-1,31
 967 1286 967 1286 823 1286 c 0,32,33
 635 1286 635 1286 541 1227 c 128,-1,34
 447 1168 447 1168 447 1050 c 0,35,36
 447 990 447 990 473 952.5 c 128,-1,37
 499 915 499 915 557 886 c 0,38,39
 586 872 586 872 644 852.5 c 128,-1,40
 702 833 702 833 789 810 c 0,41,42
 887 783 887 783 957 757 c 128,-1,43
 1027 731 1027 731 1070 706 c 0,44,45
 1156 656 1156 656 1201 584.5 c 128,-1,46
 1246 513 1246 513 1246 408 c 0,47,48
 1246 202 1246 202 1091 91 c 128,-1,49
 936 -20 936 -20 616 -20 c 0,0,1
EndSplineSet
EndChar

StartChar: T
Encoding: 84 84 55
Width: 1251
GlyphClass: 2
Flags: W
LayerCount: 2
Fore
SplineSet
858 1253 m 1,0,-1
 614 0 l 1,1,-1
 424 0 l 1,2,-1
 668 1253 l 1,3,-1
 184 1253 l 1,4,-1
 214 1409 l 1,5,-1
 1372 1409 l 1,6,-1
 1342 1253 l 1,7,-1
 858 1253 l 1,0,-1
EndSplineSet
EndChar

StartChar: U
Encoding: 85 85 56
Width: 1479
GlyphClass: 2
Flags: W
LayerCount: 2
Fore
SplineSet
654 -20 m 0,0,1
 421 -20 421 -20 287 100.5 c 128,-1,2
 153 221 153 221 153 431 c 0,3,4
 153 475 153 475 160.5 536.5 c 128,-1,5
 168 598 168 598 176 635 c 2,6,-1
 326 1409 l 1,7,-1
 517 1409 l 1,8,-1
 355 566 l 2,9,10
 338 476 338 476 338 423 c 0,11,12
 338 287 338 287 425.5 211 c 128,-1,13
 513 135 513 135 670 135 c 0,14,15
 862 135 862 135 977.5 236.5 c 128,-1,16
 1093 338 1093 338 1131 541 c 2,17,-1
 1299 1409 l 1,18,-1
 1489 1409 l 1,19,-1
 1319 530 l 2,20,21
 1265 257 1265 257 1097 118.5 c 128,-1,22
 929 -20 929 -20 654 -20 c 0,0,1
EndSplineSet
EndChar

StartChar: V
Encoding: 86 86 57
Width: 1366
GlyphClass: 2
Flags: W
LayerCount: 2
Fore
SplineSet
1525 1409 m 1,0,-1
 677 0 l 1,1,-1
 479 0 l 1,2,-1
 177 1409 l 1,3,-1
 371 1409 l 1,4,-1
 569 417 l 2,5,6
 578 355 578 355 586.5 292.5 c 128,-1,7
 595 230 595 230 604 168 c 1,8,9
 637 230 637 230 670.5 292.5 c 128,-1,10
 704 355 704 355 737 417 c 2,11,-1
 1317 1409 l 1,12,-1
 1525 1409 l 1,0,-1
EndSplineSet
EndChar

StartChar: W
Encoding: 87 87 58
Width: 1933
GlyphClass: 2
Flags: W
LayerCount: 2
Fore
SplineSet
961 895 m 2,0,-1
 542 0 l 1,1,-1
 319 0 l 1,2,-1
 177 1409 l 1,3,-1
 374 1409 l 1,4,-1
 453 514 l 2,5,6
 459 437 459 437 463 350 c 128,-1,7
 467 263 467 263 469 168 c 1,8,9
 509 262 509 262 541.5 337.5 c 128,-1,10
 574 413 574 413 600 470 c 2,11,-1
 1043 1409 l 1,12,-1
 1226 1409 l 1,13,-1
 1301 532 l 2,14,15
 1308 455 1308 455 1312.5 364 c 128,-1,16
 1317 273 1317 273 1318 168 c 1,17,18
 1356 251 1356 251 1376.5 302 c 128,-1,19
 1397 353 1397 353 1412 387 c 2,20,-1
 1893 1409 l 1,21,-1
 2094 1409 l 1,22,-1
 1406 0 l 1,23,-1
 1183 0 l 1,24,-1
 1112 895 l 2,25,26
 1105 1032 1105 1032 1101 1113 c 128,-1,27
 1097 1194 1097 1194 1096 1219 c 1,28,29
 1058 1119 1058 1119 1024 1038 c 128,-1,30
 990 957 990 957 961 895 c 2,0,-1
EndSplineSet
EndChar

StartChar: X
Encoding: 88 88 59
Width: 1366
GlyphClass: 2
Flags: W
LayerCount: 2
Fore
SplineSet
999 0 m 1,0,-1
 696 606 l 1,1,-1
 172 0 l 1,2,-1
 -39 0 l 1,3,-1
 615 746 l 1,4,-1
 275 1409 l 1,5,-1
 474 1409 l 1,6,-1
 744 858 l 1,7,-1
 1219 1409 l 1,8,-1
 1430 1409 l 1,9,-1
 830 733 l 1,10,-1
 1198 0 l 1,11,-1
 999 0 l 1,0,-1
EndSplineSet
EndChar

StartChar: Y
Encoding: 89 89 60
Width: 1366
GlyphClass: 2
Flags: W
LayerCount: 2
Fore
SplineSet
785 584 m 1,0,-1
 672 0 l 1,1,-1
 482 0 l 1,2,-1
 597 584 l 1,3,-1
 213 1409 l 1,4,-1
 409 1409 l 1,5,-1
 715 735 l 1,6,-1
 1275 1409 l 1,7,-1
 1489 1409 l 1,8,-1
 785 584 l 1,0,-1
EndSplineSet
EndChar

StartChar: Z
Encoding: 90 90 61
Width: 1251
GlyphClass: 2
Flags: W
LayerCount: 2
Fore
SplineSet
1112 156 m 1,0,-1
 1082 0 l 1,1,-1
 -40 0 l 1,2,-1
 -13 143 l 1,3,-1
 1041 1253 l 1,4,-1
 276 1253 l 1,5,-1
 306 1409 l 1,6,-1
 1308 1409 l 1,7,-1
 1281 1270 l 1,8,-1
 227 156 l 1,9,-1
 1112 156 l 1,0,-1
EndSplineSet
EndChar

StartChar: bracketleft
Encoding: 91 91 62
Width: 569
GlyphClass: 2
Flags: W
LayerCount: 2
Fore
SplineSet
392 -296 m 1,0,-1
 367 -425 l 1,1,-1
 -39 -425 l 1,2,-1
 331 1484 l 1,3,-1
 738 1484 l 1,4,-1
 713 1355 l 1,5,-1
 480 1355 l 1,6,-1
 159 -296 l 1,7,-1
 392 -296 l 1,0,-1
EndSplineSet
EndChar

StartChar: backslash
Encoding: 92 92 63
Width: 569
GlyphClass: 2
Flags: W
LayerCount: 2
Fore
SplineSet
294 1484 m 1,0,-1
 472 -20 l 1,1,-1
 320 -20 l 1,2,-1
 146 1484 l 1,3,-1
 294 1484 l 1,0,-1
EndSplineSet
EndChar

StartChar: bracketright
Encoding: 93 93 64
Width: 569
GlyphClass: 2
Flags: W
LayerCount: 2
Fore
SplineSet
608 1484 m 1,0,-1
 237 -425 l 1,1,-1
 -169 -425 l 1,2,-1
 -144 -296 l 1,3,-1
 88 -296 l 1,4,-1
 409 1355 l 1,5,-1
 176 1355 l 1,6,-1
 201 1484 l 1,7,-1
 608 1484 l 1,0,-1
EndSplineSet
EndChar

StartChar: asciicircum
Encoding: 94 94 65
Width: 961
GlyphClass: 2
Flags: W
LayerCount: 2
Fore
SplineSet
508 1306 m 1,0,-1
 202 673 l 1,1,-1
 40 673 l 1,2,-1
 408 1409 l 1,3,-1
 611 1409 l 1,4,-1
 981 673 l 1,5,-1
 817 673 l 1,6,-1
 508 1306 l 1,0,-1
EndSplineSet
EndChar

StartChar: underscore
Encoding: 95 95 66
Width: 1139
GlyphClass: 2
Flags: W
LayerCount: 2
Fore
SplineSet
1018 -174 m 1,0,-1
 1018 -250 l 1,1,-1
 -160 -250 l 1,2,-1
 -160 -174 l 1,3,-1
 1018 -174 l 1,0,-1
EndSplineSet
EndChar

StartChar: grave
Encoding: 96 96 67
Width: 682
GlyphClass: 2
Flags: W
LayerCount: 2
Fore
SplineSet
503 1221 m 1,0,-1
 500 1201 l 1,1,-1
 412 1201 l 1,2,-1
 130 1479 l 1,3,-1
 135 1508 l 1,4,-1
 342 1508 l 1,5,-1
 503 1221 l 1,0,-1
EndSplineSet
EndChar

StartChar: a
Encoding: 97 97 68
Width: 1139
GlyphClass: 2
Flags: W
LayerCount: 2
Fore
SplineSet
927 -10 m 0,0,1
 867 -10 867 -10 831.5 4 c 128,-1,2
 796 18 796 18 777.5 45.5 c 128,-1,3
 759 73 759 73 754.5 113.5 c 128,-1,4
 750 154 750 154 754 207 c 1,5,-1
 748 207 l 1,6,7
 711 151 711 151 672 108.5 c 128,-1,8
 633 66 633 66 587 37.5 c 128,-1,9
 541 9 541 9 485.5 -5.5 c 128,-1,10
 430 -20 430 -20 361 -20 c 0,11,12
 294 -20 294 -20 236.5 1 c 128,-1,13
 179 22 179 22 136.5 60.5 c 128,-1,14
 94 99 94 99 70 154 c 128,-1,15
 46 209 46 209 46 278 c 0,16,17
 46 383 46 383 84.5 452 c 128,-1,18
 123 521 123 521 186 563 c 128,-1,19
 249 605 249 605 331.5 625 c 128,-1,20
 414 645 414 645 501 652.5 c 128,-1,21
 588 660 588 660 674.5 659.5 c 128,-1,22
 761 659 761 659 833 660 c 1,23,24
 839 691 839 691 845.5 723 c 128,-1,25
 852 755 852 755 852 787 c 0,26,27
 852 835 852 835 837.5 868.5 c 128,-1,28
 823 902 823 902 796.5 923.5 c 128,-1,29
 770 945 770 945 733.5 955 c 128,-1,30
 697 965 697 965 652 965 c 0,31,32
 602 965 602 965 560 957 c 128,-1,33
 518 949 518 949 484 929.5 c 128,-1,34
 450 910 450 910 425 877 c 128,-1,35
 400 844 400 844 384 793 c 1,36,-1
 206 822 l 1,37,38
 232 905 232 905 276 959 c 128,-1,39
 320 1013 320 1013 379.5 1045 c 128,-1,40
 439 1077 439 1077 510.5 1089.5 c 128,-1,41
 582 1102 582 1102 662 1102 c 0,42,43
 732 1102 732 1102 798.5 1085.5 c 128,-1,44
 865 1069 865 1069 917 1034 c 128,-1,45
 969 999 969 999 1000.5 943 c 128,-1,46
 1032 887 1032 887 1032 807 c 0,47,48
 1032 767 1032 767 1026.5 728 c 128,-1,49
 1021 689 1021 689 1013 650 c 2,50,-1
 939 272 l 2,51,52
 934 250 934 250 931 228.5 c 128,-1,53
 928 207 928 207 928 184 c 0,54,55
 928 145 928 145 950 128 c 128,-1,56
 972 111 972 111 1009 111 c 0,57,58
 1024 111 1024 111 1039 113 c 128,-1,59
 1054 115 1054 115 1069 118 c 1,60,-1
 1055 6 l 1,61,62
 1023 -2 1023 -2 991 -6 c 128,-1,63
 959 -10 959 -10 927 -10 c 0,0,1
237 286 m 0,64,65
 237 248 237 248 250 216.5 c 128,-1,66
 263 185 263 185 286 163 c 128,-1,67
 309 141 309 141 341 129 c 128,-1,68
 373 117 373 117 411 117 c 0,69,70
 477 117 477 117 538 138.5 c 128,-1,71
 599 160 599 160 648.5 199 c 128,-1,72
 698 238 698 238 733 292 c 128,-1,73
 768 346 768 346 782 411 c 2,74,-1
 809 536 l 1,75,-1
 621 535 l 2,76,77
 552 535 552 535 483.5 525.5 c 128,-1,78
 415 516 415 516 360.5 489 c 128,-1,79
 306 462 306 462 271.5 413 c 128,-1,80
 237 364 237 364 237 286 c 0,64,65
EndSplineSet
EndChar

StartChar: b
Encoding: 98 98 69
Width: 1139
GlyphClass: 2
Flags: W
LayerCount: 2
Fore
SplineSet
744 1102 m 0,0,1
 901 1102 901 1102 988.5 1007.5 c 128,-1,2
 1076 913 1076 913 1076 748 c 0,3,4
 1076 647 1076 647 1061 548.5 c 128,-1,5
 1046 450 1046 450 1015 355 c 0,6,7
 954 165 954 165 842 72.5 c 128,-1,8
 730 -20 730 -20 557 -20 c 0,9,10
 434 -20 434 -20 357 32 c 128,-1,11
 280 84 280 84 248 178 c 1,12,-1
 245 178 l 1,13,14
 241 157 241 157 233.5 123 c 128,-1,15
 226 89 226 89 218 59 c 0,16,17
 212 35 212 35 207.5 18.5 c 128,-1,18
 203 2 203 2 202 0 c 2,19,-1
 29 0 l 1,20,21
 34 15 34 15 48.5 82 c 128,-1,22
 63 149 63 149 78 223 c 2,23,-1
 323 1484 l 1,24,-1
 503 1484 l 1,25,-1
 420 1061 l 2,26,27
 416 1038 416 1038 407.5 1003 c 128,-1,28
 399 968 399 968 386 921 c 1,29,-1
 390 921 l 1,30,31
 463 1016 463 1016 544 1059 c 128,-1,32
 625 1102 625 1102 744 1102 c 0,0,1
692 963 m 0,33,34
 501 963 501 963 403 801 c 0,35,36
 374 752 374 752 352.5 687.5 c 128,-1,37
 331 623 331 623 317 555 c 0,38,39
 298 455 298 455 298 377 c 0,40,41
 298 252 298 252 361.5 182.5 c 128,-1,42
 425 113 425 113 538 113 c 0,43,44
 662 113 662 113 734 189 c 0,45,46
 770 227 770 227 798.5 290 c 128,-1,47
 827 353 827 353 847 428.5 c 128,-1,48
 867 504 867 504 877.5 579.5 c 128,-1,49
 888 655 888 655 888 716 c 0,50,51
 888 839 888 839 841 901 c 128,-1,52
 794 963 794 963 692 963 c 0,33,34
EndSplineSet
EndChar

StartChar: c
Encoding: 99 99 70
Width: 1024
GlyphClass: 2
Flags: W
LayerCount: 2
Fore
SplineSet
469 122 m 0,0,1
 572 122 572 122 644 179.5 c 128,-1,2
 716 237 716 237 758 352 c 1,3,-1
 914 303 l 1,4,5
 792 -20 792 -20 465 -20 c 0,6,7
 273 -20 273 -20 170 89 c 128,-1,8
 67 198 67 198 67 395 c 0,9,10
 67 596 67 596 140 767 c 0,11,12
 212 939 212 939 331.5 1020.5 c 128,-1,13
 451 1102 451 1102 625 1102 c 0,14,15
 794 1102 794 1102 892.5 1017 c 128,-1,16
 991 932 991 932 1001 784 c 1,17,-1
 824 759 l 1,18,19
 818 856 818 856 764 908.5 c 128,-1,20
 710 961 710 961 619 961 c 0,21,22
 472 961 472 961 391.5 869.5 c 128,-1,23
 311 778 311 778 271 587 c 0,24,25
 261 538 261 538 256 487.5 c 128,-1,26
 251 437 251 437 251 389 c 0,27,28
 251 122 251 122 469 122 c 0,0,1
EndSplineSet
EndChar

StartChar: d
Encoding: 100 100 71
Width: 1139
GlyphClass: 2
Flags: W
LayerCount: 2
Fore
SplineSet
401 -21 m 0,0,1
 244 -21 244 -21 156.5 73.5 c 128,-1,2
 69 168 69 168 69 333 c 0,3,4
 69 535 69 535 131 727 c 0,5,6
 193 918 193 918 304 1009.5 c 128,-1,7
 415 1101 415 1101 588 1101 c 0,8,9
 711 1101 711 1101 788.5 1049 c 128,-1,10
 866 997 866 997 898 903 c 1,11,-1
 903 903 l 1,12,13
 910 944 910 944 917 984.5 c 128,-1,14
 924 1025 924 1025 931 1065 c 2,15,-1
 1013 1484 l 1,16,-1
 1193 1484 l 1,17,-1
 948 223 l 2,18,19
 934 153 934 153 924.5 97 c 128,-1,20
 915 41 915 41 910 0 c 1,21,-1
 738 0 l 1,22,23
 738 51 738 51 759 160 c 1,24,-1
 754 160 l 1,25,26
 681 65 681 65 600 22 c 128,-1,27
 519 -21 519 -21 401 -21 c 0,0,1
453 118 m 0,28,29
 645 118 645 118 742 281 c 0,30,31
 775 335 775 335 798.5 409.5 c 128,-1,32
 822 484 822 484 834.5 562 c 128,-1,33
 847 640 847 640 847 704 c 0,34,35
 847 829 847 829 783.5 898.5 c 128,-1,36
 720 968 720 968 607 968 c 0,37,38
 485 968 485 968 414 896 c 0,39,40
 367 848 367 848 331.5 755 c 128,-1,41
 296 662 296 662 276.5 556.5 c 128,-1,42
 257 451 257 451 257 365 c 0,43,44
 257 242 257 242 304 180 c 128,-1,45
 351 118 351 118 453 118 c 0,28,29
EndSplineSet
EndChar

StartChar: e
Encoding: 101 101 72
Width: 1139
GlyphClass: 2
Flags: W
LayerCount: 2
Fore
SplineSet
256 503 m 1,0,1
 250 469 250 469 247 390 c 0,2,3
 247 257 247 257 313.5 186 c 128,-1,4
 380 115 380 115 514 115 c 0,5,6
 611 115 611 115 690 163 c 128,-1,7
 769 211 769 211 813 294 c 1,8,-1
 951 231 l 1,9,10
 878 100 878 100 765.5 40 c 128,-1,11
 653 -20 653 -20 493 -20 c 0,12,13
 292 -20 292 -20 180.5 91.5 c 128,-1,14
 69 203 69 203 69 405 c 0,15,16
 69 604 69 604 140 766 c 0,17,18
 211 925 211 925 340 1013.5 c 128,-1,19
 469 1102 469 1102 630 1102 c 0,20,21
 835 1102 835 1102 949 999 c 128,-1,22
 1063 896 1063 896 1063 708 c 0,23,24
 1063 604 1063 604 1039 503 c 1,25,-1
 256 503 l 1,0,1
280 641 m 1,26,-1
 880 641 l 1,27,-1
 884 713 l 1,28,29
 884 837 884 837 819.5 903 c 128,-1,30
 755 969 755 969 634 969 c 0,31,32
 500 969 500 969 408.5 883.5 c 128,-1,33
 317 798 317 798 280 641 c 1,26,-1
EndSplineSet
EndChar

StartChar: f
Encoding: 102 102 73
Width: 569
GlyphClass: 2
Flags: W
LayerCount: 2
Fore
SplineSet
434 951 m 1,0,-1
 249 0 l 1,1,-1
 69 0 l 1,2,-1
 254 951 l 1,3,-1
 102 951 l 1,4,-1
 128 1082 l 1,5,-1
 280 1082 l 1,6,-1
 303 1204 l 2,7,8
 325 1314 325 1314 364 1372 c 0,9,10
 402 1428 402 1428 463.5 1456 c 128,-1,11
 525 1484 525 1484 622 1484 c 0,12,13
 697 1484 697 1484 746 1472 c 1,14,-1
 720 1335 l 1,15,16
 709 1337 709 1337 697.5 1338.5 c 128,-1,17
 686 1340 686 1340 675 1341 c 256,18,19
 664 1342 664 1342 652 1342.5 c 128,-1,20
 640 1343 640 1343 629 1343 c 0,21,22
 565 1343 565 1343 532 1310.5 c 128,-1,23
 499 1278 499 1278 479 1179 c 2,24,-1
 460 1082 l 1,25,-1
 671 1082 l 1,26,-1
 645 951 l 1,27,-1
 434 951 l 1,0,-1
EndSplineSet
EndChar

StartChar: g
Encoding: 103 103 74
Width: 1139
GlyphClass: 2
Flags: W
LayerCount: 2
Fore
SplineSet
397 -425 m 0,0,1
 228 -425 228 -425 129.5 -362 c 128,-1,2
 31 -299 31 -299 4 -173 c 1,3,-1
 167 -131 l 1,4,5
 201 -288 201 -288 401 -288 c 0,6,7
 543 -288 543 -288 621 -214.5 c 128,-1,8
 699 -141 699 -141 731 27 c 0,9,10
 739 71 739 71 748 114.5 c 128,-1,11
 757 158 757 158 765 201 c 1,12,-1
 763 201 l 1,13,14
 702 113 702 113 654 73 c 0,15,16
 606 34 606 34 546.5 13 c 128,-1,17
 487 -8 487 -8 410 -8 c 0,18,19
 257 -8 257 -8 163.5 92.5 c 128,-1,20
 70 193 70 193 70 359 c 0,21,22
 70 448 70 448 87 548 c 128,-1,23
 104 648 104 648 135.5 741 c 128,-1,24
 167 834 167 834 210 902 c 0,25,26
 275 1004 275 1004 368 1052.5 c 128,-1,27
 461 1101 461 1101 588 1101 c 0,28,29
 709 1101 709 1101 792.5 1044 c 128,-1,30
 876 987 876 987 900 897 c 1,31,-1
 902 897 l 1,32,33
 907 922 907 922 917 963.5 c 128,-1,34
 927 1005 927 1005 937 1040.5 c 128,-1,35
 947 1076 947 1076 950 1082 c 1,36,-1
 1121 1082 l 1,37,-1
 1102 1000 l 1,38,-1
 1072 858 l 1,39,-1
 911 31 l 2,40,41
 863 -211 863 -211 739 -318 c 128,-1,42
 615 -425 615 -425 397 -425 c 0,0,1
259 373 m 0,43,44
 259 125 259 125 466 125 c 0,45,46
 574 125 574 125 662 204 c 0,47,48
 750 282 750 282 798.5 419 c 128,-1,49
 847 556 847 556 847 704 c 0,50,51
 847 829 847 829 783 898.5 c 128,-1,52
 719 968 719 968 607 968 c 0,53,54
 517 968 517 968 457 931 c 128,-1,55
 397 894 397 894 356 815 c 0,56,57
 329 763 329 763 307 684.5 c 128,-1,58
 285 606 285 606 272 523 c 128,-1,59
 259 440 259 440 259 373 c 0,43,44
EndSplineSet
EndChar

StartChar: h
Encoding: 104 104 75
Width: 1139
GlyphClass: 2
Flags: W
LayerCount: 2
Fore
SplineSet
383 897 m 1,0,1
 466 1012 466 1012 549.5 1056.5 c 128,-1,2
 633 1101 633 1101 748 1101 c 0,3,4
 896 1101 896 1101 970.5 1028 c 128,-1,5
 1045 955 1045 955 1045 817 c 0,6,7
 1045 785 1045 785 1040 744 c 128,-1,8
 1035 703 1035 703 1024 653 c 2,9,-1
 897 0 l 1,10,-1
 716 0 l 1,11,-1
 842 645 l 2,12,13
 860 734 860 734 860 795 c 0,14,15
 860 962 860 962 681 962 c 0,16,17
 597 962 597 962 525.5 918.5 c 128,-1,18
 454 875 454 875 403.5 795.5 c 128,-1,19
 353 716 353 716 331 606 c 2,20,-1
 213 0 l 1,21,-1
 34 0 l 1,22,-1
 322 1484 l 1,23,-1
 502 1484 l 1,24,-1
 427 1098 l 2,25,26
 418 1048 418 1048 406 997.5 c 128,-1,27
 394 947 394 947 380 897 c 1,28,-1
 383 897 l 1,0,1
EndSplineSet
EndChar

StartChar: i
Encoding: 105 105 76
Width: 455
GlyphClass: 2
Flags: W
LayerCount: 2
Fore
SplineSet
501 1484 m 1,0,-1
 467 1312 l 1,1,-1
 287 1312 l 1,2,-1
 321 1484 l 1,3,-1
 501 1484 l 1,0,-1
423 1082 m 1,4,-1
 212 0 l 1,5,-1
 33 0 l 1,6,-1
 243 1082 l 1,7,-1
 423 1082 l 1,4,-1
EndSplineSet
Substitution2: "Single Substitution lookup 11 subtable" dotlessi
EndChar

StartChar: j
Encoding: 106 106 77
Width: 455
GlyphClass: 2
Flags: W
LayerCount: 2
Fore
SplineSet
502 1484 m 1,0,-1
 469 1312 l 1,1,-1
 289 1312 l 1,2,-1
 322 1484 l 1,3,-1
 502 1484 l 1,0,-1
-100 -425 m 0,4,5
 -153 -425 -153 -425 -229 -411 c 1,6,-1
 -206 -275 l 1,7,8
 -180 -279 -180 -279 -159.5 -281 c 128,-1,9
 -139 -283 -139 -283 -123 -283 c 0,10,11
 -64 -283 -64 -283 -34 -241 c 128,-1,12
 -4 -199 -4 -199 13 -107 c 2,13,-1
 244 1082 l 1,14,-1
 424 1082 l 1,15,-1
 187 -134 l 2,16,17
 156 -292 156 -292 86 -358.5 c 128,-1,18
 16 -425 16 -425 -100 -425 c 0,4,5
EndSplineSet
Substitution2: "Single Substitution lookup 11 subtable" uni0237
EndChar

StartChar: k
Encoding: 107 107 78
Width: 1024
GlyphClass: 2
Flags: W
LayerCount: 2
Fore
SplineSet
285 378 m 1,0,-1
 213 0 l 1,1,-1
 34 0 l 1,2,-1
 322 1484 l 1,3,-1
 502 1484 l 1,4,-1
 323 567 l 1,5,-1
 527 757 l 1,6,-1
 888 1082 l 1,7,-1
 1110 1082 l 1,8,-1
 580 617 l 1,9,-1
 916 0 l 1,10,-1
 721 0 l 1,11,-1
 453 502 l 1,12,-1
 285 378 l 1,0,-1
EndSplineSet
EndChar

StartChar: l
Encoding: 108 108 79
Width: 455
GlyphClass: 2
Flags: W
LayerCount: 2
Fore
SplineSet
501 1484 m 1,0,-1
 212 0 l 1,1,-1
 33 0 l 1,2,-1
 321 1484 l 1,3,-1
 501 1484 l 1,0,-1
EndSplineSet
EndChar

StartChar: m
Encoding: 109 109 80
Width: 1706
GlyphClass: 2
Flags: W
LayerCount: 2
Fore
SplineSet
660 0 m 1,0,-1
 784 634 l 2,1,2
 809 756 809 756 809 808 c 0,3,4
 809 883 809 883 771 922.5 c 128,-1,5
 733 962 733 962 647 962 c 0,6,7
 531 962 531 962 444.5 863 c 128,-1,8
 358 764 358 764 331 604 c 1,9,-1
 213 0 l 1,10,-1
 34 0 l 1,11,-1
 200 851 l 2,12,13
 220 946 220 946 239 1082 c 1,14,-1
 409 1082 l 1,15,16
 409 1075 409 1075 404 1040.5 c 128,-1,17
 399 1006 399 1006 392.5 965.5 c 128,-1,18
 386 925 386 925 381 897 c 1,19,-1
 384 897 l 1,20,21
 457 1011 457 1011 530.5 1056 c 128,-1,22
 604 1101 604 1101 706 1101 c 0,23,24
 954 1101 954 1101 983 869 c 1,25,26
 1066 999 1066 999 1146.5 1050 c 128,-1,27
 1227 1101 1227 1101 1331 1101 c 0,28,29
 1466 1101 1466 1101 1538.5 1028 c 128,-1,30
 1611 955 1611 955 1611 817 c 0,31,32
 1611 754 1611 754 1590 653 c 2,33,-1
 1463 0 l 1,34,-1
 1285 0 l 1,35,-1
 1409 634 l 2,36,37
 1434 756 1434 756 1434 808 c 0,38,39
 1434 883 1434 883 1396 922.5 c 128,-1,40
 1358 962 1358 962 1272 962 c 0,41,42
 1156 962 1156 962 1070 864.5 c 128,-1,43
 984 767 984 767 956 607 c 2,44,-1
 838 0 l 1,45,-1
 660 0 l 1,0,-1
EndSplineSet
EndChar

StartChar: n
Encoding: 110 110 81
Width: 1139
GlyphClass: 2
Flags: W
LayerCount: 2
Fore
SplineSet
332 606 m 2,0,-1
 214 0 l 1,1,-1
 34 0 l 1,2,-1
 200 851 l 2,3,4
 210 898 210 898 219.5 956 c 128,-1,5
 229 1014 229 1014 239 1082 c 1,6,-1
 409 1082 l 1,7,8
 409 1075 409 1075 404 1040.5 c 128,-1,9
 399 1006 399 1006 392.5 965.5 c 128,-1,10
 386 925 386 925 381 897 c 1,11,-1
 384 897 l 1,12,13
 467 1012 467 1012 550.5 1056.5 c 128,-1,14
 634 1101 634 1101 749 1101 c 0,15,16
 897 1101 897 1101 971.5 1028 c 128,-1,17
 1046 955 1046 955 1046 817 c 0,18,19
 1046 785 1046 785 1041 744 c 128,-1,20
 1036 703 1036 703 1025 653 c 2,21,-1
 898 0 l 1,22,-1
 717 0 l 1,23,-1
 843 645 l 2,24,25
 861 734 861 734 861 795 c 0,26,27
 861 962 861 962 682 962 c 0,28,29
 598 962 598 962 526.5 918.5 c 128,-1,30
 455 875 455 875 404.5 795.5 c 128,-1,31
 354 716 354 716 332 606 c 2,0,-1
EndSplineSet
EndChar

StartChar: o
Encoding: 111 111 82
Width: 1139
GlyphClass: 2
Flags: W
LayerCount: 2
Fore
SplineSet
1074 683 m 0,0,1
 1074 553 1074 553 1034 413 c 128,-1,2
 994 273 994 273 920 175 c 0,3,4
 845 78 845 78 737 29 c 128,-1,5
 629 -20 629 -20 491 -20 c 0,6,7
 295 -20 295 -20 181 98 c 128,-1,8
 67 216 67 216 67 419 c 1,9,10
 72 626 72 626 141 781 c 0,11,12
 211 939 211 939 335 1020 c 128,-1,13
 459 1101 459 1101 642 1101 c 0,14,15
 852 1101 852 1101 963 991.5 c 128,-1,16
 1074 882 1074 882 1074 683 c 0,0,1
888 683 m 1,17,18
 888 969 888 969 640 969 c 0,19,20
 505 969 505 969 424 900 c 0,21,22
 370 854 370 854 331.5 773.5 c 128,-1,23
 293 693 293 693 272.5 598.5 c 128,-1,24
 252 504 252 504 252 416 c 0,25,26
 252 268 252 268 316 190.5 c 128,-1,27
 380 113 380 113 502 113 c 0,28,29
 605 113 605 113 667.5 148 c 128,-1,30
 730 183 730 183 777 256 c 0,31,32
 824 330 824 330 853.5 443.5 c 128,-1,33
 883 557 883 557 888 683 c 1,17,18
EndSplineSet
EndChar

StartChar: p
Encoding: 112 112 83
Width: 1139
GlyphClass: 2
Flags: W
LayerCount: 2
Fore
SplineSet
554 -20 m 0,0,1
 431 -20 431 -20 353.5 32 c 128,-1,2
 276 84 276 84 244 178 c 1,3,-1
 239 178 l 1,4,5
 239 173 239 173 237 156.5 c 128,-1,6
 235 140 235 140 231 113 c 256,7,8
 227 86 227 86 201 -48.5 c 128,-1,9
 175 -183 175 -183 128 -425 c 1,10,-1
 -51 -425 l 1,11,-1
 198 861 l 2,12,13
 203 885 203 885 207.5 909 c 128,-1,14
 212 933 212 933 216 957 c 0,15,16
 221 989 221 989 225 1020 c 128,-1,17
 229 1051 229 1051 233 1082 c 1,18,-1
 400 1082 l 1,19,20
 400 1064 400 1064 397 1031.5 c 128,-1,21
 394 999 394 999 390 968 c 128,-1,22
 386 937 386 937 383 921 c 1,23,-1
 387 921 l 1,24,25
 460 1016 460 1016 541 1059 c 128,-1,26
 622 1102 622 1102 741 1102 c 0,27,28
 898 1102 898 1102 985.5 1007.5 c 128,-1,29
 1073 913 1073 913 1073 748 c 0,30,31
 1073 544 1073 544 1012 355 c 0,32,33
 951 165 951 165 839 72.5 c 128,-1,34
 727 -20 727 -20 554 -20 c 0,0,1
689 963 m 0,35,36
 590 963 590 963 519.5 922.5 c 128,-1,37
 449 882 449 882 400 801 c 0,38,39
 368 747 368 747 344 672 c 128,-1,40
 320 597 320 597 307.5 519.5 c 128,-1,41
 295 442 295 442 295 377 c 0,42,43
 295 252 295 252 358.5 182.5 c 128,-1,44
 422 113 422 113 535 113 c 0,45,46
 659 113 659 113 731 189 c 0,47,48
 767 227 767 227 795.5 290 c 128,-1,49
 824 353 824 353 844 428.5 c 128,-1,50
 864 504 864 504 874.5 579.5 c 128,-1,51
 885 655 885 655 885 716 c 0,52,53
 885 839 885 839 838 901 c 128,-1,54
 791 963 791 963 689 963 c 0,35,36
EndSplineSet
EndChar

StartChar: q
Encoding: 113 113 84
Width: 1139
GlyphClass: 2
Flags: W
LayerCount: 2
Fore
SplineSet
401 -21 m 0,0,1
 244 -21 244 -21 156.5 73.5 c 128,-1,2
 69 168 69 168 69 333 c 0,3,4
 69 535 69 535 131 727 c 0,5,6
 193 918 193 918 304 1009.5 c 128,-1,7
 415 1101 415 1101 588 1101 c 0,8,9
 711 1101 711 1101 788.5 1049 c 128,-1,10
 866 997 866 997 898 903 c 1,11,-1
 903 903 l 1,12,13
 911 939 911 939 920.5 981 c 128,-1,14
 930 1023 930 1023 939 1056 c 128,-1,15
 948 1089 948 1089 952 1096 c 1,16,-1
 1125 1096 l 1,17,18
 1114 1057 1114 1057 1097.5 983.5 c 128,-1,19
 1081 910 1081 910 1060 801 c 0,20,21
 1001 495 1001 495 941 188 c 128,-1,22
 881 -119 881 -119 822 -425 c 1,23,-1
 642 -425 l 1,24,-1
 727 14 l 1,25,-1
 759 160 l 1,26,-1
 755 160 l 1,27,28
 682 65 682 65 601 22 c 128,-1,29
 520 -21 520 -21 401 -21 c 0,0,1
453 118 m 0,30,31
 552 118 552 118 622.5 158.5 c 128,-1,32
 693 199 693 199 742 281 c 0,33,34
 775 335 775 335 798.5 409.5 c 128,-1,35
 822 484 822 484 834.5 562 c 128,-1,36
 847 640 847 640 847 704 c 0,37,38
 847 829 847 829 783.5 898.5 c 128,-1,39
 720 968 720 968 607 968 c 0,40,41
 485 968 485 968 414 896 c 0,42,43
 367 848 367 848 331.5 755 c 128,-1,44
 296 662 296 662 276.5 556.5 c 128,-1,45
 257 451 257 451 257 365 c 0,46,47
 257 242 257 242 304 180 c 128,-1,48
 351 118 351 118 453 118 c 0,30,31
EndSplineSet
EndChar

StartChar: r
Encoding: 114 114 85
Width: 682
GlyphClass: 2
Flags: W
LayerCount: 2
Fore
SplineSet
718 938 m 1,0,1
 676 951 676 951 628 951 c 0,2,3
 558 951 558 951 496 900.5 c 128,-1,4
 434 850 434 850 389 763 c 128,-1,5
 344 676 344 676 324 564 c 2,6,-1
 214 0 l 1,7,-1
 34 0 l 1,8,-1
 196 830 l 2,9,10
 202 865 202 865 208.5 899.5 c 128,-1,11
 215 934 215 934 221 968 c 0,12,13
 226 997 226 997 230.5 1025.5 c 128,-1,14
 235 1054 235 1054 239 1082 c 1,15,-1
 409 1082 l 1,16,-1
 382 913 l 1,17,-1
 374 861 l 1,18,-1
 378 861 l 1,19,20
 444 994 444 994 508 1048 c 128,-1,21
 572 1102 572 1102 656 1102 c 0,22,23
 700 1102 700 1102 751 1088 c 1,24,-1
 718 938 l 1,0,1
EndSplineSet
EndChar

StartChar: s
Encoding: 115 115 86
Width: 1024
GlyphClass: 2
Flags: W
LayerCount: 2
Fore
SplineSet
907 317 m 0,0,1
 907 155 907 155 783 67.5 c 128,-1,2
 659 -20 659 -20 425 -20 c 0,3,4
 251 -20 251 -20 148.5 38.5 c 128,-1,5
 46 97 46 97 5 223 c 1,6,-1
 152 279 l 1,7,8
 185 191 185 191 254.5 151 c 128,-1,9
 324 111 324 111 441 111 c 0,10,11
 732 111 732 111 732 301 c 0,12,13
 732 363 732 363 681 405 c 0,14,15
 629 446 629 446 465 497 c 0,16,17
 336 540 336 540 273 579 c 0,18,19
 209 619 209 619 175 672.5 c 128,-1,20
 141 726 141 726 141 797 c 0,21,22
 141 942 141 942 257 1020.5 c 128,-1,23
 373 1099 373 1099 584 1099 c 0,24,25
 761 1099 761 1099 860.5 1035.5 c 128,-1,26
 960 972 960 972 982 844 c 1,27,-1
 819 819 l 1,28,29
 797 898 797 898 736 933 c 128,-1,30
 675 968 675 968 572 968 c 0,31,32
 448 968 448 968 381.5 928.5 c 128,-1,33
 315 889 315 889 315 817 c 0,34,35
 315 775 315 775 336 746.5 c 128,-1,36
 357 718 357 718 397 695 c 256,37,38
 437 672 437 672 579 627 c 0,39,40
 707 587 707 587 771 546 c 0,41,42
 836 505 836 505 871.5 449 c 128,-1,43
 907 393 907 393 907 317 c 0,0,1
EndSplineSet
EndChar

StartChar: t
Encoding: 116 116 87
Width: 569
GlyphClass: 2
Flags: W
LayerCount: 2
Fore
SplineSet
275 -20 m 0,0,1
 190 -20 190 -20 141.5 31 c 128,-1,2
 93 82 93 82 93 166 c 0,3,4
 93 221 93 221 108 296 c 2,5,-1
 234 951 l 1,6,-1
 109 951 l 1,7,-1
 135 1082 l 1,8,-1
 262 1082 l 1,9,-1
 367 1324 l 1,10,-1
 487 1324 l 1,11,-1
 440 1082 l 1,12,-1
 640 1082 l 1,13,-1
 614 951 l 1,14,-1
 414 951 l 1,15,-1
 289 306 l 2,16,17
 277 246 277 246 277 211 c 0,18,19
 277 167 277 167 299.5 145 c 128,-1,20
 322 123 322 123 367 123 c 0,21,22
 406 123 406 123 467 137 c 1,23,-1
 448 4 l 1,24,25
 349 -20 349 -20 275 -20 c 0,0,1
EndSplineSet
EndChar

StartChar: u
Encoding: 117 117 88
Width: 1139
GlyphClass: 2
Flags: W
LayerCount: 2
Fore
SplineSet
748 185 m 1,0,1
 665 70 665 70 581.5 25.5 c 128,-1,2
 498 -19 498 -19 383 -19 c 0,3,4
 235 -19 235 -19 160.5 54 c 128,-1,5
 86 127 86 127 86 265 c 0,6,7
 86 287 86 287 88.5 312 c 128,-1,8
 91 337 91 337 95.5 366.5 c 128,-1,9
 100 396 100 396 107 429 c 2,10,-1
 234 1082 l 1,11,-1
 415 1082 l 1,12,-1
 289 437 l 2,13,14
 271 349 271 349 271 287 c 0,15,16
 271 120 271 120 450 120 c 0,17,18
 534 120 534 120 605.5 163.5 c 128,-1,19
 677 207 677 207 728 287 c 128,-1,20
 779 367 779 367 800 476 c 2,21,-1
 918 1082 l 1,22,-1
 1098 1082 l 1,23,-1
 932 231 l 2,24,25
 922 184 922 184 912.5 126 c 128,-1,26
 903 68 903 68 893 0 c 1,27,-1
 723 0 l 1,28,29
 723 8 723 8 728 42 c 128,-1,30
 733 76 733 76 740 117 c 128,-1,31
 747 158 747 158 751 185 c 1,32,-1
 748 185 l 1,0,1
EndSplineSet
EndChar

StartChar: v
Encoding: 118 118 89
Width: 1024
GlyphClass: 2
Flags: W
LayerCount: 2
Fore
SplineSet
1122 1082 m 1,0,-1
 507 0 l 1,1,-1
 294 0 l 1,2,-1
 112 1082 l 1,3,-1
 299 1082 l 1,4,-1
 400 378 l 2,5,6
 403 356 403 356 406 327.5 c 128,-1,7
 409 299 409 299 412.5 266 c 128,-1,8
 416 233 416 233 419 194 c 2,9,-1
 423 141 l 1,10,-1
 449 194 l 2,11,12
 472 241 472 241 495 286.5 c 128,-1,13
 518 332 518 332 542 376 c 2,14,-1
 926 1082 l 1,15,-1
 1122 1082 l 1,0,-1
EndSplineSet
EndChar

StartChar: w
Encoding: 119 119 90
Width: 1479
GlyphClass: 2
Flags: W
LayerCount: 2
Fore
SplineSet
762 803 m 2,0,-1
 402 0 l 1,1,-1
 194 0 l 1,2,-1
 102 1082 l 1,3,-1
 280 1082 l 1,4,-1
 320 347 l 2,5,6
 322 298 322 298 324 248.5 c 128,-1,7
 326 199 326 199 327 149 c 1,8,9
 347 196 347 196 367.5 244 c 128,-1,10
 388 292 388 292 408 339 c 2,11,-1
 749 1082 l 1,12,-1
 942 1082 l 1,13,-1
 986 339 l 2,14,15
 989 285 989 285 990.5 237.5 c 128,-1,16
 992 190 992 190 992 149 c 1,17,18
 999 164 999 164 1018.5 209 c 128,-1,19
 1038 254 1038 254 1071 327 c 2,20,-1
 1413 1082 l 1,21,-1
 1589 1082 l 1,22,-1
 1068 0 l 1,23,-1
 859 0 l 1,24,-1
 822 698 l 1,25,-1
 816 934 l 1,26,27
 801 897 801 897 787.5 864 c 128,-1,28
 774 831 774 831 762 803 c 2,0,-1
EndSplineSet
EndChar

StartChar: x
Encoding: 120 120 91
Width: 1024
GlyphClass: 2
Flags: W
LayerCount: 2
Fore
SplineSet
497 444 m 1,0,-1
 117 0 l 1,1,-1
 -82 0 l 1,2,-1
 410 556 l 1,3,-1
 146 1082 l 1,4,-1
 335 1082 l 1,5,-1
 528 661 l 1,6,-1
 878 1082 l 1,7,-1
 1084 1082 l 1,8,-1
 615 558 l 1,9,-1
 896 0 l 1,10,-1
 706 0 l 1,11,-1
 497 444 l 1,0,-1
EndSplineSet
EndChar

StartChar: y
Encoding: 121 121 92
Width: 1024
GlyphClass: 2
Flags: W
LayerCount: 2
Fore
SplineSet
16 -425 m 0,0,1
 -54 -425 -54 -425 -116 -411 c 1,2,-1
 -85 -277 l 1,3,4
 -37 -285 -37 -285 -8 -285 c 0,5,6
 87 -285 87 -285 159.5 -221 c 128,-1,7
 232 -157 232 -157 302 -35 c 2,8,-1
 329 12 l 1,9,-1
 112 1082 l 1,10,-1
 295 1082 l 1,11,-1
 407 484 l 2,12,13
 415 444 415 444 422 399.5 c 128,-1,14
 429 355 429 355 435 313.5 c 128,-1,15
 441 272 441 272 445 241 c 128,-1,16
 449 210 449 210 449 196 c 1,17,18
 454 207 454 207 460.5 220.5 c 128,-1,19
 467 234 467 234 475 250 c 2,20,-1
 597 475 l 1,21,-1
 928 1082 l 1,22,-1
 1127 1082 l 1,23,-1
 501 0 l 2,24,25
 389 -195 389 -195 323 -270 c 0,26,27
 256 -348 256 -348 182 -386.5 c 128,-1,28
 108 -425 108 -425 16 -425 c 0,0,1
EndSplineSet
EndChar

StartChar: z
Encoding: 122 122 93
Width: 1024
GlyphClass: 2
Flags: W
LayerCount: 2
Fore
SplineSet
851 139 m 1,0,-1
 826 0 l 1,1,-1
 -12 0 l 1,2,-1
 11 137 l 1,3,-1
 753 943 l 1,4,-1
 187 943 l 1,5,-1
 212 1082 l 1,6,-1
 996 1082 l 1,7,-1
 972 945 l 1,8,-1
 230 139 l 1,9,-1
 851 139 l 1,0,-1
EndSplineSet
EndChar

StartChar: braceleft
Encoding: 123 123 94
Width: 684
GlyphClass: 2
Flags: W
LayerCount: 2
Fore
SplineSet
366 -425 m 2,0,1
 255 -425 255 -425 189.5 -358.5 c 128,-1,2
 124 -292 124 -292 124 -175 c 0,3,4
 124 -111 124 -111 134 -58 c 2,5,-1
 190 229 l 2,6,7
 199 273 199 273 199 306 c 0,8,9
 199 389 199 389 152.5 425.5 c 128,-1,10
 106 462 106 462 21 466 c 1,11,-1
 46 593 l 1,12,13
 262 600 262 600 307 829 c 2,14,-1
 377 1191 l 2,15,16
 405 1334 405 1334 480.5 1409 c 128,-1,17
 556 1484 556 1484 698 1484 c 2,18,-1
 833 1484 l 1,19,-1
 808 1355 l 1,20,-1
 745 1355 l 2,21,22
 656 1355 656 1355 607.5 1308 c 128,-1,23
 559 1261 559 1261 535 1140 c 2,24,-1
 466 784 l 2,25,26
 447 689 447 689 381.5 621.5 c 128,-1,27
 316 554 316 554 223 532 c 1,28,-1
 223 530 l 1,29,30
 292 513 292 513 332.5 463 c 128,-1,31
 373 413 373 413 373 335 c 0,32,33
 373 308 373 308 367 276 c 2,34,-1
 306 -43 l 2,35,36
 301 -67 301 -67 297 -110 c 128,-1,37
 293 -153 293 -153 293 -171 c 0,38,39
 293 -227 293 -227 327.5 -261.5 c 128,-1,40
 362 -296 362 -296 439 -296 c 2,41,-1
 487 -296 l 1,42,-1
 462 -425 l 1,43,-1
 366 -425 l 2,0,1
EndSplineSet
EndChar

StartChar: bar
Encoding: 124 124 95
Width: 532
GlyphClass: 2
Flags: W
LayerCount: 2
Fore
SplineSet
379 1484 m 1,0,-1
 379 -454 l 1,1,-1
 213 -454 l 1,2,-1
 213 1484 l 1,3,-1
 379 1484 l 1,0,-1
EndSplineSet
EndChar

StartChar: braceright
Encoding: 125 125 96
Width: 684
GlyphClass: 2
Flags: W
LayerCount: 2
Fore
SplineSet
308 1484 m 2,0,1
 419 1484 419 1484 484.5 1417.5 c 128,-1,2
 550 1351 550 1351 550 1234 c 0,3,4
 550 1170 550 1170 540 1117 c 2,5,-1
 484 830 l 2,6,7
 475 787 475 787 475 753 c 0,8,9
 475 670 475 670 521.5 633.5 c 128,-1,10
 568 597 568 597 653 593 c 1,11,-1
 628 466 l 1,12,13
 412 459 412 459 367 230 c 2,14,-1
 297 -132 l 2,15,16
 269 -275 269 -275 193.5 -350 c 128,-1,17
 118 -425 118 -425 -24 -425 c 2,18,-1
 -159 -425 l 1,19,-1
 -134 -296 l 1,20,-1
 -71 -296 l 2,21,22
 18 -296 18 -296 66.5 -249 c 128,-1,23
 115 -202 115 -202 139 -81 c 2,24,-1
 208 275 l 2,25,26
 227 370 227 370 292.5 437.5 c 128,-1,27
 358 505 358 505 451 527 c 1,28,-1
 451 529 l 1,29,30
 382 546 382 546 341.5 596 c 128,-1,31
 301 646 301 646 301 724 c 0,32,33
 301 752 301 752 307 783 c 2,34,-1
 368 1102 l 2,35,36
 373 1126 373 1126 377 1170 c 128,-1,37
 381 1214 381 1214 381 1230 c 0,38,39
 381 1286 381 1286 346.5 1320.5 c 128,-1,40
 312 1355 312 1355 235 1355 c 2,41,-1
 187 1355 l 1,42,-1
 212 1484 l 1,43,-1
 308 1484 l 2,0,1
EndSplineSet
EndChar

StartChar: asciitilde
Encoding: 126 126 97
Width: 1196
GlyphClass: 2
Flags: W
LayerCount: 2
Fore
SplineSet
874 553 m 0,0,1
 805 553 805 553 732.5 575 c 128,-1,2
 660 597 660 597 587 623 c 0,3,4
 458 668 458 668 370 668 c 0,5,6
 303 668 303 668 245 647.5 c 128,-1,7
 187 627 187 627 122 580 c 1,8,-1
 122 723 l 1,9,10
 233 807 233 807 385 807 c 0,11,12
 436 807 436 807 494.5 795.5 c 128,-1,13
 553 784 553 784 620 761 c 0,14,15
 718 727 718 727 767.5 712 c 128,-1,16
 817 697 817 697 841.5 693.5 c 128,-1,17
 866 690 866 690 890 690 c 0,18,19
 1019 690 1019 690 1134 782 c 1,20,-1
 1134 633 l 1,21,22
 1074 591 1074 591 1016.5 572 c 128,-1,23
 959 553 959 553 874 553 c 0,0,1
EndSplineSet
EndChar

StartChar: exclamdown
Encoding: 161 161 99
Width: 682
GlyphClass: 2
Flags: W
LayerCount: 2
Fore
SplineSet
536 1083 m 1,0,-1
 496 882 l 1,1,-1
 302 882 l 1,2,-1
 342 1083 l 1,3,-1
 536 1083 l 1,0,-1
284 686 m 1,4,-1
 432 686 l 1,5,-1
 260 -326 l 1,6,-1
 64 -326 l 1,7,-1
 284 686 l 1,4,-1
EndSplineSet
EndChar

StartChar: cent
Encoding: 162 162 100
Width: 1139
GlyphClass: 2
Flags: W
LayerCount: 2
Fore
SplineSet
560 278 m 0,0,1
 663 278 663 278 735 335.5 c 128,-1,2
 807 393 807 393 849 508 c 1,3,-1
 1005 459 l 1,4,5
 947 305 947 305 843 224.5 c 128,-1,6
 739 144 739 144 588 136 c 1,7,-1
 556 -31 l 1,8,-1
 432 -31 l 1,9,-1
 466 142 l 1,10,11
 317 164 317 164 237.5 270.5 c 128,-1,12
 158 377 158 377 158 551 c 0,13,14
 158 671 158 671 187 790 c 0,15,16
 206 866 206 866 234 934 c 128,-1,17
 262 1002 262 1002 299 1054 c 0,18,19
 364 1148 364 1148 457 1199.5 c 128,-1,20
 550 1251 550 1251 683 1257 c 1,21,-1
 711 1409 l 1,22,-1
 835 1409 l 1,23,-1
 806 1251 l 1,24,25
 937 1232 937 1232 1010.5 1150 c 128,-1,26
 1084 1068 1084 1068 1092 940 c 1,27,-1
 915 915 l 1,28,29
 909 1012 909 1012 855 1064.5 c 128,-1,30
 801 1117 801 1117 710 1117 c 0,31,32
 583 1117 583 1117 506 1050 c 0,33,34
 457 1007 457 1007 421 928 c 128,-1,35
 385 849 385 849 365 757 c 0,36,37
 354 705 354 705 348 651 c 128,-1,38
 342 597 342 597 342 545 c 0,39,40
 342 278 342 278 560 278 c 0,0,1
EndSplineSet
EndChar

StartChar: sterling
Encoding: 163 163 101
Width: 1139
GlyphClass: 2
Flags: W
LayerCount: 2
Fore
SplineSet
976 0 m 1,0,-1
 -12 0 l 1,1,-1
 17 154 l 1,2,3
 114 200 114 200 172.5 278.5 c 128,-1,4
 231 357 231 357 255 481 c 2,5,-1
 283 625 l 1,6,-1
 97 625 l 1,7,-1
 122 754 l 1,8,-1
 308 754 l 1,9,-1
 363 1034 l 2,10,11
 403 1239 403 1239 515.5 1334.5 c 128,-1,12
 628 1430 628 1430 816 1430 c 0,13,14
 964 1430 964 1430 1059.5 1367.5 c 128,-1,15
 1155 1305 1155 1305 1178 1200 c 1,16,-1
 1014 1150 l 1,17,18
 994 1214 994 1214 938 1248 c 128,-1,19
 882 1282 882 1282 809 1282 c 0,20,21
 695 1282 695 1282 631.5 1224.5 c 128,-1,22
 568 1167 568 1167 544 1042 c 2,23,-1
 488 754 l 1,24,-1
 896 754 l 1,25,-1
 871 625 l 1,26,-1
 463 625 l 1,27,-1
 436 478 l 2,28,29
 416 367 416 367 353.5 281 c 128,-1,30
 291 195 291 195 202 153 c 1,31,-1
 1005 153 l 1,32,-1
 976 0 l 1,0,-1
EndSplineSet
EndChar

StartChar: currency
Encoding: 164 164 102
Width: 1139
Flags: W
LayerCount: 2
Fore
SplineSet
165 684 m 256,0,1
 165 822 165 822 243 936 c 1,2,-1
 143 1036 l 1,3,-1
 247 1139 l 1,4,-1
 346 1038 l 1,5,6
 459 1120 459 1120 600 1120 c 0,7,8
 736 1120 736 1120 851 1040 c 1,9,-1
 948 1137 l 1,10,-1
 1052 1032 l 1,11,-1
 956 936 l 1,12,13
 1036 818 1036 818 1036 684 c 0,14,15
 1036 545 1036 545 954 432 c 1,16,-1
 1054 332 l 1,17,-1
 952 227 l 1,18,-1
 851 328 l 1,19,20
 737 250 737 250 600 250 c 0,21,22
 458 250 458 250 348 330 c 1,23,-1
 243 225 l 1,24,-1
 141 330 l 1,25,-1
 243 432 l 1,26,27
 165 546 165 546 165 684 c 256,0,1
319 686 m 256,28,29
 319 610 319 610 357 546.5 c 128,-1,30
 395 483 395 483 458.5 444.5 c 128,-1,31
 522 406 522 406 600 406 c 0,32,33
 676 406 676 406 739.5 443.5 c 128,-1,34
 803 481 803 481 841.5 544.5 c 128,-1,35
 880 608 880 608 880 686 c 256,36,37
 880 764 880 764 842 827.5 c 128,-1,38
 804 891 804 891 740.5 929 c 128,-1,39
 677 967 677 967 600 967 c 0,40,41
 522 967 522 967 458.5 928.5 c 128,-1,42
 395 890 395 890 357 826 c 128,-1,43
 319 762 319 762 319 686 c 256,28,29
EndSplineSet
EndChar

StartChar: yen
Encoding: 165 165 103
Width: 1139
GlyphClass: 2
Flags: W
LayerCount: 2
Fore
SplineSet
604 303 m 1,0,-1
 545 0 l 1,1,-1
 367 0 l 1,2,-1
 426 303 l 1,3,-1
 45 303 l 1,4,-1
 70 430 l 1,5,-1
 451 430 l 1,6,-1
 483 584 l 1,7,-1
 100 584 l 1,8,-1
 124 709 l 1,9,-1
 444 709 l 1,10,-1
 159 1409 l 1,11,-1
 352 1409 l 1,12,-1
 598 762 l 1,13,-1
 1098 1409 l 1,14,-1
 1303 1409 l 1,15,-1
 745 709 l 1,16,-1
 1066 709 l 1,17,-1
 1042 584 l 1,18,-1
 659 584 l 1,19,-1
 629 430 l 1,20,-1
 1012 430 l 1,21,-1
 987 303 l 1,22,-1
 604 303 l 1,0,-1
EndSplineSet
EndChar

StartChar: brokenbar
Encoding: 166 166 104
Width: 532
Flags: W
LayerCount: 2
Fore
SplineSet
379 1485 m 1,0,-1
 379 707 l 1,1,-1
 213 707 l 1,2,-1
 213 1485 l 1,3,-1
 379 1485 l 1,0,-1
379 324 m 1,4,-1
 379 -455 l 1,5,-1
 213 -455 l 1,6,-1
 213 324 l 1,7,-1
 379 324 l 1,4,-1
EndSplineSet
EndChar

StartChar: section
Encoding: 167 167 105
Width: 1139
GlyphClass: 2
Flags: W
LayerCount: 2
Fore
SplineSet
1010 673 m 0,0,1
 1010 561 1010 561 941.5 490 c 128,-1,2
 873 419 873 419 736 388 c 1,3,4
 868 306 868 306 868 165 c 0,5,6
 868 3 868 3 744 -84.5 c 128,-1,7
 620 -172 620 -172 383 -172 c 0,8,9
 212 -172 212 -172 109 -113.5 c 128,-1,10
 6 -55 6 -55 -34 71 c 1,11,-1
 113 127 l 1,12,13
 146 39 146 39 215.5 -1 c 128,-1,14
 285 -41 285 -41 402 -41 c 0,15,16
 545 -41 545 -41 619 7.5 c 128,-1,17
 693 56 693 56 693 149 c 0,18,19
 693 181 693 181 679.5 207.5 c 128,-1,20
 666 234 666 234 640 256 c 0,21,22
 589 298 589 298 427 348 c 0,23,24
 102 448 102 448 102 673 c 0,25,26
 102 896 102 896 378 957 c 1,27,28
 244 1043 244 1043 244 1182 c 0,29,30
 244 1327 244 1327 361 1405.5 c 128,-1,31
 478 1484 478 1484 695 1484 c 0,32,33
 868 1484 868 1484 965.5 1420.5 c 128,-1,34
 1063 1357 1063 1357 1085 1229 c 1,35,-1
 922 1204 l 1,36,37
 902 1278 902 1278 843.5 1315.5 c 128,-1,38
 785 1353 785 1353 688 1353 c 0,39,40
 418 1353 418 1353 418 1190 c 0,41,42
 418 1136 418 1136 472 1092 c 0,43,44
 498 1070 498 1070 550.5 1047 c 128,-1,45
 603 1024 603 1024 680 999 c 0,46,47
 862 942 862 942 936 862.5 c 128,-1,48
 1010 783 1010 783 1010 673 c 0,0,1
276 688 m 0,49,50
 276 642 276 642 303 603.5 c 128,-1,51
 330 565 330 565 391 531 c 0,52,53
 451 498 451 498 550 468 c 1,54,55
 682 473 682 473 758.5 523.5 c 128,-1,56
 835 574 835 574 835 662 c 0,57,58
 835 713 835 713 806.5 750.5 c 128,-1,59
 778 788 778 788 724 817 c 0,60,61
 671 845 671 845 533 886 c 1,62,63
 416 880 416 880 346 826 c 128,-1,64
 276 772 276 772 276 688 c 0,49,50
EndSplineSet
EndChar

StartChar: dieresis
Encoding: 168 168 106
Width: 682
GlyphClass: 2
Flags: W
LayerCount: 2
Fore
SplineSet
729 1403 m 1,0,-1
 694 1219 l 1,1,-1
 521 1219 l 1,2,-1
 556 1403 l 1,3,-1
 729 1403 l 1,0,-1
347 1403 m 1,4,-1
 312 1219 l 1,5,-1
 137 1219 l 1,6,-1
 172 1403 l 1,7,-1
 347 1403 l 1,4,-1
EndSplineSet
EndChar

StartChar: copyright
Encoding: 169 169 107
Width: 1509
GlyphClass: 2
Flags: W
LayerCount: 2
Fore
SplineSet
1509 707 m 0,0,1
 1509 514 1509 514 1413 346 c 0,2,3
 1316 177 1316 177 1147.5 80.5 c 128,-1,4
 979 -16 979 -16 786 -16 c 0,5,6
 590 -16 590 -16 420 85 c 0,7,8
 251 186 251 186 157 352 c 128,-1,9
 63 518 63 518 63 707 c 0,10,11
 63 901 63 901 160 1068 c 0,12,13
 257 1236 257 1236 425 1333 c 128,-1,14
 593 1430 593 1430 786 1430 c 0,15,16
 980 1430 980 1430 1149 1333 c 0,17,18
 1317 1236 1317 1236 1413 1068.5 c 128,-1,19
 1509 901 1509 901 1509 707 c 0,0,1
1417 707 m 256,20,21
 1417 876 1417 876 1333 1021 c 0,22,23
 1248 1167 1248 1167 1101.5 1251 c 128,-1,24
 955 1335 955 1335 786 1335 c 0,25,26
 618 1335 618 1335 472 1251 c 0,27,28
 326 1166 326 1166 242 1020 c 128,-1,29
 158 874 158 874 158 707 c 0,30,31
 158 537 158 537 243 392 c 0,32,33
 327 246 327 246 472 162 c 128,-1,34
 617 78 617 78 786 78 c 0,35,36
 957 78 957 78 1103 163 c 0,37,38
 1249 247 1249 247 1333 392.5 c 128,-1,39
 1417 538 1417 538 1417 707 c 256,20,21
797 279 m 0,40,41
 609 279 609 279 505 392 c 128,-1,42
 401 505 401 505 401 709 c 0,43,44
 401 912 401 912 501 1022.5 c 128,-1,45
 601 1133 601 1133 790 1133 c 0,46,47
 1034 1133 1034 1133 1130 924 c 1,48,-1
 1016 891 l 1,49,50
 984 960 984 960 926 994 c 128,-1,51
 868 1028 868 1028 792 1028 c 0,52,53
 665 1028 665 1028 597.5 947.5 c 128,-1,54
 530 867 530 867 530 709 c 0,55,56
 530 554 530 554 601 468.5 c 128,-1,57
 672 383 672 383 797 383 c 0,58,59
 953 383 953 383 1030 539 c 1,60,-1
 1145 504 l 1,61,62
 1083 383 1083 383 998.5 331 c 128,-1,63
 914 279 914 279 797 279 c 0,40,41
EndSplineSet
EndChar

StartChar: ordfeminine
Encoding: 170 170 108
Width: 758
GlyphClass: 2
Flags: W
LayerCount: 2
Fore
SplineSet
723 657 m 0,0,1
 657 657 657 657 621.5 686.5 c 128,-1,2
 586 716 586 716 586 765 c 1,3,-1
 590 805 l 1,4,-1
 586 805 l 1,5,6
 520 720 520 720 455 685.5 c 128,-1,7
 390 651 390 651 311 651 c 0,8,9
 210 651 210 651 149.5 707 c 128,-1,10
 89 763 89 763 89 858 c 0,11,12
 89 983 89 983 180 1046.5 c 128,-1,13
 271 1110 271 1110 453 1112 c 2,14,-1
 632 1116 l 1,15,16
 650 1206 650 1206 650 1229 c 0,17,18
 650 1331 650 1331 523 1331 c 0,19,20
 447 1331 447 1331 401 1297.5 c 128,-1,21
 355 1264 355 1264 339 1196 c 1,22,-1
 207 1213 l 1,23,24
 236 1323 236 1323 315.5 1377.5 c 128,-1,25
 395 1432 395 1432 525 1432 c 0,26,27
 652 1432 652 1432 721.5 1378.5 c 128,-1,28
 791 1325 791 1325 791 1233 c 0,29,30
 791 1214 791 1214 788.5 1193 c 128,-1,31
 786 1172 786 1172 781 1149 c 2,32,-1
 728 874 l 2,33,34
 725 858 725 858 723.5 845 c 128,-1,35
 722 832 722 832 722 821 c 0,36,37
 722 766 722 766 770 766 c 0,38,39
 788 766 788 766 814 774 c 1,40,-1
 799 670 l 1,41,42
 763 657 763 657 723 657 c 0,0,1
243 865 m 0,43,44
 243 818 243 818 272 790 c 128,-1,45
 301 762 301 762 352 762 c 0,46,47
 412 762 412 762 465 791 c 128,-1,48
 518 820 518 820 555.5 868 c 128,-1,49
 593 916 593 916 604 972 c 2,50,-1
 614 1024 l 1,51,-1
 475 1020 l 2,52,53
 352 1017 352 1017 297.5 978.5 c 128,-1,54
 243 940 243 940 243 865 c 0,43,44
EndSplineSet
EndChar

StartChar: guillemotleft
Encoding: 171 171 109
Width: 1139
GlyphClass: 2
Flags: W
LayerCount: 2
Fore
SplineSet
983 164 m 1,0,-1
 978 141 l 1,1,-1
 818 141 l 1,2,-1
 551 506 l 1,3,-1
 563 569 l 1,4,-1
 973 940 l 1,5,-1
 1131 940 l 1,6,-1
 1125 903 l 1,7,-1
 715 531 l 1,8,-1
 983 164 l 1,0,-1
505 163 m 1,9,-1
 500 141 l 1,10,-1
 341 141 l 1,11,-1
 76 506 l 1,12,-1
 88 569 l 1,13,-1
 496 940 l 1,14,-1
 653 940 l 1,15,-1
 647 902 l 1,16,-1
 240 530 l 1,17,-1
 505 163 l 1,9,-1
EndSplineSet
EndChar

StartChar: logicalnot
Encoding: 172 172 110
Width: 1196
GlyphClass: 2
Flags: W
LayerCount: 2
Fore
SplineSet
1095 754 m 1,0,-1
 1095 180 l 1,1,-1
 950 180 l 1,2,-1
 950 608 l 1,3,-1
 100 608 l 1,4,-1
 100 754 l 1,5,-1
 1095 754 l 1,0,-1
EndSplineSet
EndChar

StartChar: registered
Encoding: 174 174 111
Width: 1509
GlyphClass: 2
Flags: W
LayerCount: 2
Fore
SplineSet
1509 707 m 0,0,1
 1509 514 1509 514 1413 346 c 0,2,3
 1316 177 1316 177 1147.5 80.5 c 128,-1,4
 979 -16 979 -16 786 -16 c 0,5,6
 590 -16 590 -16 420 85 c 0,7,8
 251 186 251 186 157 352 c 128,-1,9
 63 518 63 518 63 707 c 0,10,11
 63 901 63 901 160 1068 c 0,12,13
 257 1236 257 1236 425 1333 c 128,-1,14
 593 1430 593 1430 786 1430 c 0,15,16
 980 1430 980 1430 1149 1333 c 0,17,18
 1317 1236 1317 1236 1413 1068.5 c 128,-1,19
 1509 901 1509 901 1509 707 c 0,0,1
1417 707 m 256,20,21
 1417 876 1417 876 1333 1021 c 0,22,23
 1248 1167 1248 1167 1101.5 1251 c 128,-1,24
 955 1335 955 1335 786 1335 c 0,25,26
 618 1335 618 1335 472 1251 c 0,27,28
 326 1166 326 1166 242 1020 c 128,-1,29
 158 874 158 874 158 707 c 0,30,31
 158 537 158 537 243 392 c 0,32,33
 327 246 327 246 472 162 c 128,-1,34
 617 78 617 78 786 78 c 0,35,36
 957 78 957 78 1103 163 c 0,37,38
 1249 247 1249 247 1333 392.5 c 128,-1,39
 1417 538 1417 538 1417 707 c 256,20,21
627 625 m 1,40,-1
 627 289 l 1,41,-1
 500 289 l 1,42,-1
 500 1120 l 1,43,-1
 807 1120 l 2,44,45
 949 1120 949 1120 1024.5 1057 c 128,-1,46
 1100 994 1100 994 1100 883 c 0,47,48
 1100 781 1100 781 1048 719.5 c 128,-1,49
 996 658 996 658 911 639 c 1,50,-1
 1132 289 l 1,51,-1
 987 289 l 1,52,-1
 788 625 l 1,53,-1
 627 625 l 1,40,-1
973 881 m 0,54,55
 973 950 973 950 925.5 986 c 128,-1,56
 878 1022 878 1022 797 1022 c 2,57,-1
 627 1022 l 1,58,-1
 627 721 l 1,59,-1
 809 721 l 2,60,61
 889 721 889 721 931 763.5 c 128,-1,62
 973 806 973 806 973 881 c 0,54,55
EndSplineSet
EndChar

StartChar: macron
Encoding: 175 175 112
Width: 1131
Flags: W
LayerCount: 2
Fore
SplineSet
1148 1620 m 1,0,-1
 1148 1503 l 1,1,-1
 -17 1503 l 1,2,-1
 -17 1620 l 1,3,-1
 1148 1620 l 1,0,-1
EndSplineSet
EndChar

StartChar: degree
Encoding: 176 176 113
Width: 819
GlyphClass: 2
Flags: W
LayerCount: 2
Fore
SplineSet
770 1145 m 0,0,1
 770 1066 770 1066 731 1001 c 128,-1,2
 692 936 692 936 627 898 c 128,-1,3
 562 860 562 860 483 860 c 0,4,5
 405 860 405 860 339.5 899 c 128,-1,6
 274 938 274 938 235 1002.5 c 128,-1,7
 196 1067 196 1067 196 1145 c 256,8,9
 196 1223 196 1223 234.5 1288 c 128,-1,10
 273 1353 273 1353 338 1391.5 c 128,-1,11
 403 1430 403 1430 483 1430 c 256,12,13
 563 1430 563 1430 628 1392 c 128,-1,14
 693 1354 693 1354 731.5 1289.5 c 128,-1,15
 770 1225 770 1225 770 1145 c 0,0,1
661 1145 m 0,16,17
 661 1221 661 1221 609.5 1273 c 128,-1,18
 558 1325 558 1325 483 1325 c 256,19,20
 408 1325 408 1325 356.5 1272 c 128,-1,21
 305 1219 305 1219 305 1145 c 256,22,23
 305 1071 305 1071 357.5 1018 c 128,-1,24
 410 965 410 965 483 965 c 0,25,26
 557 965 557 965 609 1017.5 c 128,-1,27
 661 1070 661 1070 661 1145 c 0,16,17
EndSplineSet
EndChar

StartChar: plusminus
Encoding: 177 177 114
Width: 1124
GlyphClass: 2
Flags: W
LayerCount: 2
Fore
SplineSet
636 680 m 1,0,-1
 636 285 l 1,1,-1
 489 285 l 1,2,-1
 489 680 l 1,3,-1
 65 680 l 1,4,-1
 65 825 l 1,5,-1
 489 825 l 1,6,-1
 489 1219 l 1,7,-1
 636 1219 l 1,8,-1
 636 825 l 1,9,-1
 1060 825 l 1,10,-1
 1060 680 l 1,11,-1
 636 680 l 1,0,-1
1060 145 m 1,12,-1
 1060 0 l 1,13,-1
 65 0 l 1,14,-1
 65 145 l 1,15,-1
 1060 145 l 1,12,-1
EndSplineSet
EndChar

StartChar: uni00B2
Encoding: 178 178 115
Width: 682
Flags: W
LayerCount: 2
Fore
SplineSet
30 563 m 1,0,-1
 48 666 l 1,1,2
 77 713 77 713 117 754 c 0,3,4
 143 780 143 780 170 803.5 c 128,-1,5
 197 827 197 827 239.5 855.5 c 128,-1,6
 282 884 282 884 351 925 c 0,7,8
 485 1003 485 1003 523 1036 c 0,9,10
 564 1070 564 1070 585 1107.5 c 128,-1,11
 606 1145 606 1145 606 1192 c 0,12,13
 606 1243 606 1243 572 1279 c 128,-1,14
 538 1315 538 1315 473 1315 c 0,15,16
 403 1315 403 1315 353 1276 c 128,-1,17
 303 1237 303 1237 289 1174 c 1,18,-1
 164 1189 l 1,19,20
 193 1303 193 1303 273.5 1362 c 128,-1,21
 354 1421 354 1421 480 1421 c 0,22,23
 599 1421 599 1421 670.5 1361 c 128,-1,24
 742 1301 742 1301 742 1206 c 0,25,26
 742 1158 742 1158 725 1113 c 0,27,28
 711 1076 711 1076 686 1043.5 c 128,-1,29
 661 1011 661 1011 628 981 c 0,30,31
 601 958 601 958 551 924.5 c 128,-1,32
 501 891 501 891 427 848 c 0,33,34
 330 792 330 792 279.5 753.5 c 128,-1,35
 229 715 229 715 203 676 c 1,36,-1
 651 676 l 1,37,-1
 631 563 l 1,38,-1
 30 563 l 1,0,-1
EndSplineSet
EndChar

StartChar: uni00B3
Encoding: 179 179 116
Width: 682
Flags: W
LayerCount: 2
Fore
SplineSet
332 1049 m 1,0,-1
 389 1049 l 2,1,2
 486 1049 486 1049 538 1090.5 c 128,-1,3
 590 1132 590 1132 590 1204 c 0,4,5
 590 1252 590 1252 557 1283.5 c 128,-1,6
 524 1315 524 1315 467 1315 c 0,7,8
 399 1315 399 1315 350.5 1280 c 128,-1,9
 302 1245 302 1245 283 1180 c 1,10,-1
 158 1205 l 1,11,12
 192 1313 192 1313 271.5 1367 c 128,-1,13
 351 1421 351 1421 477 1421 c 0,14,15
 588 1421 588 1421 658 1364.5 c 128,-1,16
 728 1308 728 1308 728 1218 c 0,17,18
 728 1129 728 1129 673.5 1073 c 128,-1,19
 619 1017 619 1017 510 995 c 1,20,-1
 510 993 l 1,21,22
 583 980 583 980 628 932.5 c 128,-1,23
 673 885 673 885 673 817 c 0,24,25
 673 696 673 696 584 623.5 c 128,-1,26
 495 551 495 551 350 551 c 0,27,28
 89 551 89 551 53 785 c 1,29,-1
 182 801 l 1,30,31
 191 729 191 729 236.5 692 c 128,-1,32
 282 655 282 655 356 655 c 0,33,34
 442 655 442 655 489.5 699.5 c 128,-1,35
 537 744 537 744 537 820 c 0,36,37
 537 874 537 874 493 907 c 128,-1,38
 449 940 449 940 372 940 c 2,39,-1
 311 940 l 1,40,-1
 332 1049 l 1,0,-1
EndSplineSet
EndChar

StartChar: acute
Encoding: 180 180 117
Width: 682
GlyphClass: 2
Flags: W
LayerCount: 2
Fore
SplineSet
643 1479 m 1,0,-1
 269 1201 l 1,1,-1
 175 1201 l 1,2,-1
 178 1221 l 1,3,-1
 431 1508 l 1,4,-1
 648 1508 l 1,5,-1
 643 1479 l 1,0,-1
EndSplineSet
EndChar

StartChar: mu
Encoding: 181 181 118
Width: 1180
GlyphClass: 2
Flags: W
LayerCount: 2
Fore
SplineSet
253 -44 m 1,0,-1
 179 -425 l 1,1,-1
 -1 -425 l 1,2,-1
 292 1082 l 1,3,-1
 473 1082 l 1,4,-1
 339 396 l 2,5,6
 334 364 334 364 331 339 c 128,-1,7
 328 314 328 314 328 295 c 0,8,9
 328 119 328 119 490 119 c 0,10,11
 602 119 602 119 684.5 214 c 128,-1,12
 767 309 767 309 795 472 c 2,13,-1
 913 1082 l 1,14,-1
 1093 1082 l 1,15,-1
 936 275 l 2,16,17
 927 235 927 235 927 193 c 0,18,19
 927 121 927 121 984 121 c 0,20,21
 994 121 994 121 1040 129 c 1,22,-1
 1018 0 l 1,23,24
 944 -20 944 -20 895 -20 c 0,25,26
 828 -20 828 -20 796.5 19 c 128,-1,27
 765 58 765 58 760 132 c 2,28,-1
 759 169 l 1,29,-1
 757 169 l 1,30,31
 693 75 693 75 615.5 27.5 c 128,-1,32
 538 -20 538 -20 448 -20 c 0,33,34
 386 -20 386 -20 341 1 c 128,-1,35
 296 22 296 22 273 59 c 1,36,-1
 273 59 l 1,37,-1
 253 -44 l 1,0,-1
EndSplineSet
EndChar

StartChar: paragraph
Encoding: 182 182 119
Width: 1100
GlyphClass: 2
Flags: W
LayerCount: 2
Fore
SplineSet
619 1307 m 1,0,-1
 619 -264 l 1,1,-1
 506 -264 l 1,2,-1
 506 694 l 1,3,4
 338 694 338 694 241 786.5 c 128,-1,5
 144 879 144 879 144 1049 c 0,6,7
 144 1218 144 1218 242.5 1313.5 c 128,-1,8
 341 1409 341 1409 514 1409 c 2,9,-1
 1077 1409 l 1,10,-1
 1077 1307 l 1,11,-1
 948 1307 l 1,12,-1
 948 -264 l 1,13,-1
 836 -264 l 1,14,-1
 836 1307 l 1,15,-1
 619 1307 l 1,0,-1
EndSplineSet
EndChar

StartChar: periodcentered
Encoding: 183 183 120
Width: 682
Flags: W
LayerCount: 2
Fore
SplineSet
459 666 m 1,0,-1
 416 446 l 1,1,-1
 221 446 l 1,2,-1
 264 666 l 1,3,-1
 459 666 l 1,0,-1
EndSplineSet
EndChar

StartChar: cedilla
Encoding: 184 184 121
Width: 682
Flags: W
LayerCount: 2
Fore
SplineSet
318 -96 m 1,0,1
 399 -101 399 -101 439.5 -137 c 128,-1,2
 480 -173 480 -173 480 -232 c 0,3,4
 480 -329 480 -329 404.5 -377 c 128,-1,5
 329 -425 329 -425 177 -425 c 0,6,7
 152 -425 152 -425 125.5 -423.5 c 128,-1,8
 99 -422 99 -422 71 -418 c 1,9,-1
 92 -327 l 1,10,11
 140 -333 140 -333 180 -333 c 0,12,13
 271 -333 271 -333 308.5 -311 c 128,-1,14
 346 -289 346 -289 346 -244 c 0,15,16
 346 -172 346 -172 227 -172 c 0,17,18
 205 -172 205 -172 190.5 -172.5 c 128,-1,19
 176 -173 176 -173 169 -174 c 1,20,-1
 270 0 l 1,21,-1
 377 0 l 1,22,-1
 318 -96 l 1,0,1
EndSplineSet
EndChar

StartChar: uni00B9
Encoding: 185 185 122
Width: 682
Flags: W
LayerCount: 2
Fore
SplineSet
638 670 m 1,0,-1
 617 563 l 1,1,-1
 61 563 l 1,2,-1
 81 670 l 1,3,-1
 292 670 l 1,4,-1
 410 1279 l 1,5,-1
 181 1141 l 1,6,-1
 207 1272 l 1,7,-1
 444 1409 l 1,8,-1
 567 1409 l 1,9,-1
 423 670 l 1,10,-1
 638 670 l 1,0,-1
EndSplineSet
EndChar

StartChar: ordmasculine
Encoding: 186 186 123
Width: 748
GlyphClass: 2
Flags: W
LayerCount: 2
Fore
SplineSet
403 651 m 0,0,1
 258 651 258 651 179.5 729.5 c 128,-1,2
 101 808 101 808 101 950 c 0,3,4
 101 1012 101 1012 114 1078 c 0,5,6
 148 1255 148 1255 249.5 1343.5 c 128,-1,7
 351 1432 351 1432 520 1432 c 0,8,9
 665 1432 665 1432 743.5 1353.5 c 128,-1,10
 822 1275 822 1275 822 1133 c 0,11,12
 822 1071 822 1071 809 1005 c 0,13,14
 775 828 775 828 673.5 739.5 c 128,-1,15
 572 651 572 651 403 651 c 0,0,1
513 1325 m 0,16,17
 419 1325 419 1325 364 1278 c 0,18,19
 328 1246 328 1246 302 1187.5 c 128,-1,20
 276 1129 276 1129 262 1062.5 c 128,-1,21
 248 996 248 996 248 938 c 0,22,23
 248 758 248 758 408 758 c 0,24,25
 457 758 457 758 494.5 770.5 c 128,-1,26
 532 783 532 783 560 808 c 0,27,28
 597 841 597 841 623 901.5 c 128,-1,29
 649 962 649 962 663.5 1030.5 c 128,-1,30
 678 1099 678 1099 678 1154 c 0,31,32
 678 1248 678 1248 634.5 1286.5 c 128,-1,33
 591 1325 591 1325 513 1325 c 0,16,17
EndSplineSet
EndChar

StartChar: guillemotright
Encoding: 187 187 124
Width: 1139
GlyphClass: 2
Flags: W
LayerCount: 2
Fore
SplineSet
1049 506 m 1,0,-1
 640 141 l 1,1,-1
 482 141 l 1,2,-1
 489 180 l 1,3,-1
 899 547 l 1,4,-1
 635 919 l 1,5,-1
 639 940 l 1,6,-1
 795 940 l 1,7,-1
 1061 569 l 1,8,-1
 1049 506 l 1,0,-1
571 506 m 1,9,-1
 165 141 l 1,10,-1
 5 141 l 1,11,-1
 12 180 l 1,12,-1
 422 547 l 1,13,-1
 158 919 l 1,14,-1
 162 940 l 1,15,-1
 320 940 l 1,16,-1
 583 569 l 1,17,-1
 571 506 l 1,9,-1
EndSplineSet
EndChar

StartChar: questiondown
Encoding: 191 191 128
Width: 1251
GlyphClass: 2
Flags: W
LayerCount: 2
Fore
SplineSet
899 1083 m 1,0,-1
 860 882 l 1,1,-1
 665 882 l 1,2,-1
 704 1083 l 1,3,-1
 899 1083 l 1,0,-1
497 -347 m 0,4,5
 366 -347 366 -347 268.5 -301.5 c 128,-1,6
 171 -256 171 -256 118 -175 c 128,-1,7
 65 -94 65 -94 65 10 c 0,8,9
 65 107 65 107 95.5 175.5 c 128,-1,10
 126 244 126 244 175 295 c 0,11,12
 207 329 207 329 245 356.5 c 128,-1,13
 283 384 283 384 323.5 408 c 128,-1,14
 364 432 364 432 404 454 c 0,15,16
 466 489 466 489 508 520 c 128,-1,17
 550 551 550 551 578 579 c 0,18,19
 607 610 607 610 621.5 641 c 128,-1,20
 636 672 636 672 643 706 c 1,21,-1
 818 706 l 1,22,23
 804 625 804 625 770 567 c 0,24,25
 747 527 747 527 717.5 494 c 128,-1,26
 688 461 688 461 637 424.5 c 128,-1,27
 586 388 586 388 496 337 c 0,28,29
 444 308 444 308 406 282.5 c 128,-1,30
 368 257 368 257 345 237 c 0,31,32
 299 195 299 195 275.5 146 c 128,-1,33
 252 97 252 97 252 31 c 0,34,35
 252 -67 252 -67 325 -127 c 128,-1,36
 398 -187 398 -187 514 -187 c 0,37,38
 654 -187 654 -187 745 -117 c 128,-1,39
 836 -47 836 -47 874 75 c 1,40,-1
 1039 35 l 1,41,42
 976 -160 976 -160 840.5 -253.5 c 128,-1,43
 705 -347 705 -347 497 -347 c 0,4,5
EndSplineSet
EndChar

StartChar: AE
Encoding: 198 198 135
Width: 2048
GlyphClass: 2
Flags: W
LayerCount: 2
Fore
SplineSet
401 412 m 1,0,-1
 122 0 l 1,1,-1
 -81 0 l 1,2,-1
 878 1409 l 1,3,-1
 2067 1409 l 1,4,-1
 2037 1253 l 1,5,-1
 1298 1253 l 1,6,-1
 1210 801 l 1,7,-1
 1889 801 l 1,8,-1
 1859 647 l 1,9,-1
 1180 647 l 1,10,-1
 1085 156 l 1,11,-1
 1865 156 l 1,12,-1
 1834 0 l 1,13,-1
 863 0 l 1,14,-1
 944 412 l 1,15,-1
 401 412 l 1,0,-1
500 561 m 1,16,-1
 973 561 l 1,17,-1
 1109 1262 l 1,18,-1
 958 1262 l 1,19,-1
 822 1046 l 1,20,-1
 500 561 l 1,16,-1
EndSplineSet
EndChar

StartChar: Eth
Encoding: 208 208 145
Width: 1479
Flags: W
LayerCount: 2
Fore
SplineSet
764 1409 m 2,0,1
 972 1409 972 1409 1122 1334.5 c 128,-1,2
 1272 1260 1272 1260 1352.5 1122 c 128,-1,3
 1433 984 1433 984 1433 791 c 0,4,5
 1433 558 1433 558 1335 379 c 0,6,7
 1236 201 1236 201 1045.5 100.5 c 128,-1,8
 855 0 855 0 612 0 c 2,9,-1
 63 0 l 1,10,-1
 188 647 l 1,11,-1
 34 647 l 1,12,-1
 64 801 l 1,13,-1
 218 801 l 1,14,-1
 336 1409 l 1,15,-1
 764 1409 l 2,0,1
283 153 m 1,16,-1
 587 153 l 2,17,18
 783 153 783 153 931 231 c 0,19,20
 1080 308 1080 308 1159.5 453.5 c 128,-1,21
 1239 599 1239 599 1239 793 c 0,22,23
 1239 1012 1239 1012 1113 1134 c 128,-1,24
 987 1256 987 1256 760 1256 c 2,25,-1
 498 1256 l 1,26,-1
 409 801 l 1,27,-1
 815 801 l 1,28,-1
 785 647 l 1,29,-1
 379 647 l 1,30,-1
 283 153 l 1,16,-1
EndSplineSet
EndChar

StartChar: multiply
Encoding: 215 215 152
Width: 1196
Flags: W
LayerCount: 2
Fore
SplineSet
630 580 m 1,0,-1
 274 225 l 1,1,-1
 172 330 l 1,2,-1
 526 684 l 1,3,-1
 174 1036 l 1,4,-1
 278 1139 l 1,5,-1
 628 786 l 1,6,-1
 978 1137 l 1,7,-1
 1083 1032 l 1,8,-1
 733 684 l 1,9,-1
 1085 332 l 1,10,-1
 983 227 l 1,11,-1
 630 580 l 1,0,-1
EndSplineSet
EndChar

StartChar: Oslash
Encoding: 216 216 153
Width: 1593
GlyphClass: 2
Flags: W
LayerCount: 2
Fore
SplineSet
1423 1205 m 1,0,1
 1526 1060 1526 1060 1526 851 c 0,2,3
 1522 585 1522 585 1414 388 c 0,4,5
 1307 192 1307 192 1121 86 c 128,-1,6
 935 -20 935 -20 699 -20 c 0,7,8
 446 -20 446 -20 294 104 c 1,9,-1
 133 -53 l 1,10,-1
 -56 -53 l 1,11,-1
 204 201 l 1,12,13
 101 349 101 349 101 573 c 0,14,15
 101 813 101 813 207 1013 c 0,16,17
 312 1213 312 1213 501 1321.5 c 128,-1,18
 690 1430 690 1430 928 1430 c 0,19,20
 1177 1430 1177 1430 1332 1303 c 1,21,-1
 1499 1466 l 1,22,-1
 1691 1466 l 1,23,-1
 1423 1205 l 1,0,1
919 1276 m 0,24,25
 720 1276 720 1276 580 1187 c 0,26,27
 487 1128 487 1128 423 1027 c 128,-1,28
 359 926 359 926 325.5 805 c 128,-1,29
 292 684 292 684 292 563 c 0,30,31
 292 425 292 425 338 332 c 1,32,-1
 1208 1182 l 1,33,34
 1099 1276 1099 1276 919 1276 c 0,24,25
1335 847 m 0,35,36
 1335 981 1335 981 1289 1074 c 1,37,-1
 419 226 l 1,38,39
 523 135 523 135 708 135 c 0,40,41
 905 135 905 135 1044 222 c 0,42,43
 1136 280 1136 280 1201 377.5 c 128,-1,44
 1266 475 1266 475 1300.5 597 c 128,-1,45
 1335 719 1335 719 1335 847 c 0,35,36
EndSplineSet
EndChar

StartChar: Thorn
Encoding: 222 222 159
Width: 1366
Flags: W
LayerCount: 2
Fore
SplineSet
314 297 m 1,0,-1
 254 0 l 1,1,-1
 63 0 l 1,2,-1
 337 1409 l 1,3,-1
 528 1409 l 1,4,-1
 479 1157 l 1,5,-1
 806 1157 l 2,6,7
 1043 1157 1043 1157 1175 1055 c 128,-1,8
 1307 953 1307 953 1307 768 c 0,9,10
 1307 622 1307 622 1238 516 c 128,-1,11
 1169 410 1169 410 1041.5 353.5 c 128,-1,12
 914 297 914 297 738 297 c 2,13,-1
 314 297 l 1,0,-1
344 448 m 1,14,-1
 731 448 l 2,15,16
 922 448 922 448 1017.5 526 c 128,-1,17
 1113 604 1113 604 1113 759 c 0,18,19
 1113 878 1113 878 1034 941 c 128,-1,20
 955 1004 955 1004 801 1004 c 2,21,-1
 452 1004 l 1,22,-1
 344 448 l 1,14,-1
EndSplineSet
EndChar

StartChar: germandbls
Encoding: 223 223 160
Width: 1251
GlyphClass: 2
Flags: W
LayerCount: 2
Fore
SplineSet
1123 308 m 0,0,1
 1123 149 1123 149 1015 60 c 128,-1,2
 907 -29 907 -29 714 -29 c 0,3,4
 628 -29 628 -29 546.5 -13 c 128,-1,5
 465 3 465 3 417 26 c 1,6,-1
 473 169 l 1,7,8
 531 142 531 142 592.5 128.5 c 128,-1,9
 654 115 654 115 719 115 c 0,10,11
 829 115 829 115 888 164.5 c 128,-1,12
 947 214 947 214 947 305 c 0,13,14
 947 361 947 361 915 412.5 c 128,-1,15
 883 464 883 464 809 529 c 0,16,17
 736 592 736 592 703 645.5 c 128,-1,18
 670 699 670 699 670 756 c 0,19,20
 670 832 670 832 708.5 889 c 128,-1,21
 747 946 747 946 823 991 c 0,22,23
 905 1039 905 1039 940 1083.5 c 128,-1,24
 975 1128 975 1128 975 1186 c 0,25,26
 975 1255 975 1255 915 1299 c 128,-1,27
 855 1343 855 1343 753 1343 c 0,28,29
 608 1343 608 1343 526 1263.5 c 128,-1,30
 444 1184 444 1184 412 1021 c 2,31,-1
 214 0 l 1,32,-1
 34 0 l 1,33,-1
 234 1027 l 2,34,35
 281 1264 281 1264 411.5 1374 c 128,-1,36
 542 1484 542 1484 762 1484 c 0,37,38
 939 1484 939 1484 1045.5 1403 c 128,-1,39
 1152 1322 1152 1322 1152 1196 c 0,40,41
 1152 1045 1152 1045 997 940 c 0,42,43
 900 875 900 875 872 844 c 0,44,45
 842 813 842 813 842 777 c 0,46,47
 842 736 842 736 873 695 c 0,48,49
 889 673 889 673 916 644.5 c 128,-1,50
 943 616 943 616 983 579 c 0,51,52
 1123 448 1123 448 1123 308 c 0,0,1
EndSplineSet
EndChar

StartChar: ae
Encoding: 230 230 167
Width: 1821
GlyphClass: 2
Flags: W
LayerCount: 2
Fore
SplineSet
989 503 m 1,0,1
 983 469 983 469 980 390 c 0,2,3
 980 257 980 257 1041.5 186 c 128,-1,4
 1103 115 1103 115 1224 115 c 0,5,6
 1311 115 1311 115 1381.5 160.5 c 128,-1,7
 1452 206 1452 206 1496 294 c 1,8,-1
 1634 231 l 1,9,10
 1563 99 1563 99 1457 39.5 c 128,-1,11
 1351 -20 1351 -20 1202 -20 c 0,12,13
 1051 -20 1051 -20 956 50 c 128,-1,14
 861 120 861 120 826 248 c 1,15,16
 736 120 736 120 624 53 c 0,17,18
 561 16 561 16 492 -2 c 128,-1,19
 423 -20 423 -20 347 -20 c 0,20,21
 252 -20 252 -20 181 18 c 0,22,23
 109 56 109 56 70.5 124.5 c 128,-1,24
 32 193 32 193 32 278 c 0,25,26
 32 463 32 463 167.5 557.5 c 128,-1,27
 303 652 303 652 601 657 c 2,28,-1
 839 660 l 1,29,30
 858 755 858 755 858 787 c 0,31,32
 858 965 858 965 650 965 c 0,33,34
 526 965 526 965 462.5 923 c 128,-1,35
 399 881 399 881 370 793 c 1,36,-1
 192 822 l 1,37,38
 239 969 239 969 354.5 1035.5 c 128,-1,39
 470 1102 470 1102 665 1102 c 0,40,41
 886 1102 886 1102 990 944 c 1,42,43
 1115 1102 1115 1102 1335 1102 c 0,44,45
 1530 1102 1530 1102 1638 998 c 128,-1,46
 1746 894 1746 894 1746 708 c 0,47,48
 1746 660 1746 660 1738.5 598.5 c 128,-1,49
 1731 537 1731 537 1723 503 c 1,50,-1
 989 503 l 1,0,1
1013 641 m 1,51,-1
 1563 641 l 1,52,-1
 1567 713 l 1,53,54
 1567 837 1567 837 1508 903 c 128,-1,55
 1449 969 1449 969 1338 969 c 0,56,57
 1215 969 1215 969 1131 884 c 128,-1,58
 1047 799 1047 799 1013 641 c 1,51,-1
223 286 m 0,59,60
 223 209 223 209 269.5 163 c 128,-1,61
 316 117 316 117 394 117 c 0,62,63
 496 117 496 117 581 162 c 0,64,65
 667 206 667 206 724 282.5 c 128,-1,66
 781 359 781 359 797 445 c 2,67,-1
 814 534 l 1,68,-1
 608 530 l 2,69,70
 459 525 459 525 381 499 c 0,71,72
 223 446 223 446 223 286 c 0,59,60
EndSplineSet
EndChar

StartChar: eth
Encoding: 240 240 177
Width: 1139
Flags: W
LayerCount: 2
Fore
SplineSet
625 1328 m 1,0,1
 529 1418 529 1418 430 1484 c 1,2,-1
 606 1484 l 1,3,4
 644 1465 644 1465 683 1439.5 c 128,-1,5
 722 1414 722 1414 762 1382 c 1,6,-1
 1025 1484 l 1,7,-1
 1006 1376 l 1,8,-1
 837 1309 l 1,9,10
 954 1170 954 1170 1004 1031 c 128,-1,11
 1054 892 1054 892 1054 728 c 0,12,13
 1054 517 1054 517 990 337 c 0,14,15
 926 156 926 156 805.5 70.5 c 128,-1,16
 685 -15 685 -15 491 -15 c 0,17,18
 292 -15 292 -15 179.5 98 c 128,-1,19
 67 211 67 211 67 403 c 0,20,21
 67 562 67 562 132 701 c 0,22,23
 197 838 197 838 314.5 908.5 c 128,-1,24
 432 979 432 979 605 979 c 0,25,26
 684 979 684 979 756.5 949.5 c 128,-1,27
 829 920 829 920 864 874 c 1,28,29
 845 987 845 987 800.5 1085 c 128,-1,30
 756 1183 756 1183 698 1249 c 1,31,-1
 425 1136 l 1,32,-1
 446 1256 l 1,33,-1
 625 1328 l 1,0,1
603 846 m 0,34,35
 484 846 484 846 407 790 c 0,36,37
 357 753 357 753 322 686 c 128,-1,38
 287 619 287 619 269 540.5 c 128,-1,39
 251 462 251 462 251 388 c 0,40,41
 251 258 251 258 314 188 c 128,-1,42
 377 118 377 118 494 118 c 0,43,44
 674 118 674 118 763 257 c 0,45,46
 793 304 793 304 814.5 372 c 128,-1,47
 836 440 836 440 847.5 510.5 c 128,-1,48
 859 581 859 581 859 635 c 256,49,50
 859 689 859 689 827 739 c 0,51,52
 794 788 794 788 735 817 c 128,-1,53
 676 846 676 846 603 846 c 0,34,35
EndSplineSet
EndChar

StartChar: divide
Encoding: 247 247 184
Width: 1124
Flags: W
LayerCount: 2
Fore
SplineSet
663 1141 m 1,0,-1
 663 958 l 1,1,-1
 495 958 l 1,2,-1
 495 1141 l 1,3,-1
 663 1141 l 1,0,-1
1077 754 m 1,4,-1
 1077 608 l 1,5,-1
 82 608 l 1,6,-1
 82 754 l 1,7,-1
 1077 754 l 1,4,-1
663 406 m 1,8,-1
 663 223 l 1,9,-1
 495 223 l 1,10,-1
 495 406 l 1,11,-1
 663 406 l 1,8,-1
EndSplineSet
EndChar

StartChar: oslash
Encoding: 248 248 185
Width: 1251
GlyphClass: 2
Flags: W
LayerCount: 2
Fore
SplineSet
201 145 m 1,0,1
 125 254 125 254 125 419 c 0,2,3
 130 626 130 626 199 781 c 0,4,5
 269 939 269 939 393 1020 c 128,-1,6
 517 1101 517 1101 700 1101 c 0,7,8
 863 1101 863 1101 967 1034 c 1,9,-1
 1037 1116 l 1,10,-1
 1204 1116 l 1,11,-1
 1058 947 l 1,12,13
 1132 843 1132 843 1132 683 c 0,14,15
 1132 579 1132 579 1106 467 c 0,16,17
 1051 226 1051 226 912 105.5 c 128,-1,18
 773 -15 773 -15 549 -15 c 0,19,20
 395 -15 395 -15 291 56 c 1,21,-1
 211 -38 l 1,22,-1
 44 -38 l 1,23,-1
 201 145 l 1,0,1
310 416 m 0,24,25
 310 343 310 343 325 289 c 1,26,-1
 865 916 l 1,27,28
 801 969 801 969 698 969 c 0,29,30
 563 969 563 969 482 900 c 0,31,32
 428 854 428 854 389.5 773.5 c 128,-1,33
 351 693 351 693 330.5 598.5 c 128,-1,34
 310 504 310 504 310 416 c 0,24,25
946 683 m 0,35,36
 946 747 946 747 932 800 c 1,37,-1
 392 173 l 1,38,39
 454 118 454 118 560 118 c 0,40,41
 697 118 697 118 774 185 c 0,42,43
 851 251 851 251 895.5 386.5 c 128,-1,44
 940 522 940 522 946 683 c 0,35,36
EndSplineSet
EndChar

StartChar: thorn
Encoding: 254 254 191
Width: 1139
Flags: W
LayerCount: 2
Fore
SplineSet
554 -20 m 0,0,1
 431 -20 431 -20 353.5 32 c 128,-1,2
 276 84 276 84 244 178 c 1,3,-1
 239 178 l 1,4,5
 236 153 236 153 232.5 128 c 128,-1,6
 229 103 229 103 225 77 c 0,7,8
 221 58 221 58 217.5 38 c 128,-1,9
 214 18 214 18 210 -2 c 2,10,-1
 128 -425 l 1,11,-1
 -51 -425 l 1,12,-1
 320 1484 l 1,13,-1
 500 1484 l 1,14,-1
 417 1061 l 2,15,16
 413 1038 413 1038 404.5 1003 c 128,-1,17
 396 968 396 968 383 921 c 1,18,-1
 387 921 l 1,19,20
 460 1016 460 1016 541 1059 c 128,-1,21
 622 1102 622 1102 741 1102 c 0,22,23
 898 1102 898 1102 985.5 1007.5 c 128,-1,24
 1073 913 1073 913 1073 748 c 0,25,26
 1073 544 1073 544 1012 355 c 0,27,28
 951 165 951 165 839 72.5 c 128,-1,29
 727 -20 727 -20 554 -20 c 0,0,1
689 963 m 0,30,31
 498 963 498 963 400 801 c 0,32,33
 372 755 372 755 351 693 c 128,-1,34
 330 631 330 631 316 566 c 0,35,36
 295 467 295 467 295 377 c 0,37,38
 295 252 295 252 358.5 182.5 c 128,-1,39
 422 113 422 113 535 113 c 0,40,41
 659 113 659 113 731 189 c 0,42,43
 767 227 767 227 795.5 290 c 128,-1,44
 824 353 824 353 844 428.5 c 128,-1,45
 864 504 864 504 874.5 579.5 c 128,-1,46
 885 655 885 655 885 716 c 0,47,48
 885 839 885 839 838 901 c 128,-1,49
 791 963 791 963 689 963 c 0,30,31
EndSplineSet
EndChar

StartChar: dcroat
Encoding: 273 273 210
Width: 1139
Flags: W
LayerCount: 2
Fore
SplineSet
401 -21 m 0,0,1
 244 -21 244 -21 156.5 73.5 c 128,-1,2
 69 168 69 168 69 333 c 0,3,4
 69 535 69 535 131 727 c 0,5,6
 193 918 193 918 304 1009.5 c 128,-1,7
 415 1101 415 1101 588 1101 c 0,8,9
 711 1101 711 1101 788.5 1049 c 128,-1,10
 866 997 866 997 898 903 c 1,11,-1
 903 903 l 1,12,13
 911 944 911 944 919 986 c 128,-1,14
 927 1028 927 1028 934 1069 c 2,15,-1
 960 1206 l 1,16,-1
 660 1206 l 1,17,-1
 685 1337 l 1,18,-1
 985 1337 l 1,19,-1
 1014 1484 l 1,20,-1
 1194 1484 l 1,21,-1
 1165 1337 l 1,22,-1
 1297 1337 l 1,23,-1
 1272 1206 l 1,24,-1
 1140 1206 l 1,25,-1
 948 223 l 2,26,27
 934 153 934 153 924.5 97 c 128,-1,28
 915 41 915 41 910 0 c 1,29,-1
 738 0 l 1,30,31
 738 51 738 51 759 160 c 1,32,-1
 755 160 l 1,33,34
 682 65 682 65 601 22 c 128,-1,35
 520 -21 520 -21 401 -21 c 0,0,1
453 118 m 0,36,37
 645 118 645 118 742 281 c 0,38,39
 775 335 775 335 798.5 409.5 c 128,-1,40
 822 484 822 484 834.5 562 c 128,-1,41
 847 640 847 640 847 704 c 0,42,43
 847 829 847 829 783.5 898.5 c 128,-1,44
 720 968 720 968 607 968 c 0,45,46
 485 968 485 968 414 896 c 0,47,48
 367 848 367 848 331.5 755 c 128,-1,49
 296 662 296 662 276.5 556.5 c 128,-1,50
 257 451 257 451 257 365 c 0,51,52
 257 242 257 242 304 180 c 128,-1,53
 351 118 351 118 453 118 c 0,36,37
EndSplineSet
EndChar

StartChar: Hbar
Encoding: 294 294 231
Width: 1479
Flags: W
LayerCount: 2
Fore
SplineSet
379 653 m 1,0,-1
 253 0 l 1,1,-1
 62 0 l 1,2,-1
 261 1025 l 1,3,-1
 107 1025 l 1,4,-1
 137 1179 l 1,5,-1
 291 1179 l 1,6,-1
 335 1409 l 1,7,-1
 526 1409 l 1,8,-1
 482 1179 l 1,9,-1
 1249 1179 l 1,10,-1
 1293 1409 l 1,11,-1
 1479 1409 l 1,12,-1
 1435 1179 l 1,13,-1
 1588 1179 l 1,14,-1
 1558 1025 l 1,15,-1
 1405 1025 l 1,16,-1
 1206 0 l 1,17,-1
 1020 0 l 1,18,-1
 1146 653 l 1,19,-1
 379 653 l 1,0,-1
411 813 m 1,20,-1
 1178 813 l 1,21,-1
 1219 1025 l 1,22,-1
 452 1025 l 1,23,-1
 411 813 l 1,20,-1
EndSplineSet
EndChar

StartChar: hbar
Encoding: 295 295 232
Width: 1139
Flags: W
LayerCount: 2
Fore
SplineSet
375 857 m 1,0,1
 458 972 458 972 541.5 1016.5 c 128,-1,2
 625 1061 625 1061 740 1061 c 0,3,4
 888 1061 888 1061 962.5 988 c 128,-1,5
 1037 915 1037 915 1037 777 c 0,6,7
 1037 745 1037 745 1032 704 c 128,-1,8
 1027 663 1027 663 1016 613 c 2,9,-1
 897 0 l 1,10,-1
 716 0 l 1,11,-1
 834 605 l 2,12,13
 852 694 852 694 852 755 c 0,14,15
 852 922 852 922 673 922 c 0,16,17
 589 922 589 922 517.5 878.5 c 128,-1,18
 446 835 446 835 395.5 755.5 c 128,-1,19
 345 676 345 676 323 566 c 2,20,-1
 213 0 l 1,21,-1
 34 0 l 1,22,-1
 268 1206 l 1,23,-1
 137 1206 l 1,24,-1
 162 1337 l 1,25,-1
 293 1337 l 1,26,-1
 322 1484 l 1,27,-1
 502 1484 l 1,28,-1
 473 1337 l 1,29,-1
 774 1337 l 1,30,-1
 749 1206 l 1,31,-1
 448 1206 l 1,32,33
 420 1052 420 1052 398.5 964.5 c 128,-1,34
 377 877 377 877 372 857 c 1,35,-1
 375 857 l 1,0,1
EndSplineSet
EndChar

StartChar: dotlessi
Encoding: 305 305 242
Width: 569
Flags: W
LayerCount: 2
Fore
SplineSet
479 1082 m 1,0,-1
 268 0 l 1,1,-1
 89 0 l 1,2,-1
 299 1082 l 1,3,-1
 479 1082 l 1,0,-1
EndSplineSet
EndChar

StartChar: jcircumflex
Encoding: 309 309 246
Width: 455
Flags: W
LayerCount: 2
Fore
SplineSet
385 1370 m 1,0,-1
 120 1201 l 1,1,-1
 4 1201 l 1,2,-1
 8 1221 l 1,3,-1
 294 1491 l 1,4,-1
 498 1491 l 1,5,-1
 669 1221 l 1,6,-1
 665 1201 l 1,7,-1
 573 1201 l 1,8,-1
 387 1370 l 1,9,-1
 385 1370 l 1,0,-1
-100 -425 m 0,10,11
 -153 -425 -153 -425 -229 -411 c 1,12,-1
 -206 -275 l 1,13,14
 -180 -279 -180 -279 -159.5 -281 c 128,-1,15
 -139 -283 -139 -283 -123 -283 c 0,16,17
 -64 -283 -64 -283 -34 -241 c 128,-1,18
 -4 -199 -4 -199 13 -107 c 2,19,-1
 244 1082 l 1,20,-1
 424 1082 l 1,21,-1
 187 -134 l 2,22,23
 156 -292 156 -292 86 -358.5 c 128,-1,24
 16 -425 16 -425 -100 -425 c 0,10,11
EndSplineSet
EndChar

StartChar: kgreenlandic
Encoding: 312 312 249
Width: 1024
Flags: W
LayerCount: 2
Fore
SplineSet
285 378 m 1,0,-1
 213 0 l 1,1,-1
 34 0 l 1,2,-1
 244 1082 l 1,3,-1
 424 1082 l 1,4,-1
 323 567 l 1,5,-1
 527 757 l 1,6,-1
 888 1082 l 1,7,-1
 1110 1082 l 1,8,-1
 580 617 l 1,9,-1
 916 0 l 1,10,-1
 721 0 l 1,11,-1
 453 502 l 1,12,-1
 285 378 l 1,0,-1
EndSplineSet
EndChar

StartChar: Lslash
Encoding: 321 321 258
Width: 1139
Flags: W
LayerCount: 2
Fore
SplineSet
282 156 m 1,0,-1
 994 156 l 1,1,-1
 963 0 l 1,2,-1
 60 0 l 1,3,-1
 165 538 l 1,4,-1
 2 453 l 1,5,-1
 31 611 l 1,6,-1
 196 696 l 1,7,-1
 334 1409 l 1,8,-1
 525 1409 l 1,9,-1
 408 806 l 1,10,-1
 714 954 l 1,11,-1
 683 797 l 1,12,-1
 377 648 l 1,13,-1
 282 156 l 1,0,-1
EndSplineSet
EndChar

StartChar: lslash
Encoding: 322 322 259
Width: 455
Flags: W
LayerCount: 2
Fore
SplineSet
337 646 m 1,0,-1
 211 0 l 1,1,-1
 32 0 l 1,2,-1
 137 542 l 1,3,-1
 2 474 l 1,4,-1
 33 632 l 1,5,-1
 167 700 l 1,6,-1
 320 1484 l 1,7,-1
 500 1484 l 1,8,-1
 368 804 l 1,9,-1
 506 876 l 1,10,-1
 475 717 l 1,11,-1
 337 646 l 1,0,-1
EndSplineSet
EndChar

StartChar: Eng
Encoding: 330 330 267
Width: 1481
Flags: W
LayerCount: 2
Fore
SplineSet
895 -425 m 0,0,1
 842 -425 842 -425 766 -411 c 1,2,-1
 789 -275 l 1,3,4
 815 -279 815 -279 835.5 -281 c 128,-1,5
 856 -283 856 -283 872 -283 c 0,6,7
 931 -283 931 -283 960.5 -241 c 128,-1,8
 990 -199 990 -199 1007 -107 c 0,9,10
 1012 -80 1012 -80 1017.5 -53.5 c 128,-1,11
 1023 -27 1023 -27 1028 0 c 1,12,-1
 457 1212 l 1,13,14
 446 1133 446 1133 439 1085.5 c 128,-1,15
 432 1038 432 1038 429 1021 c 2,16,-1
 234 0 l 1,17,-1
 64 0 l 1,18,-1
 337 1409 l 1,19,-1
 548 1409 l 1,20,-1
 1089 248 l 1,21,22
 1091 262 1091 262 1095 289 c 128,-1,23
 1099 316 1099 316 1106 356 c 2,24,-1
 1309 1409 l 1,25,-1
 1481 1409 l 1,26,-1
 1182 -134 l 2,27,28
 1151 -292 1151 -292 1081 -358.5 c 128,-1,29
 1011 -425 1011 -425 895 -425 c 0,0,1
EndSplineSet
EndChar

StartChar: eng
Encoding: 331 331 268
Width: 1139
Flags: W
LayerCount: 2
Fore
SplineSet
584 -425 m 0,0,1
 531 -425 531 -425 455 -411 c 1,2,-1
 478 -275 l 1,3,4
 504 -279 504 -279 524.5 -281 c 128,-1,5
 545 -283 545 -283 561 -283 c 0,6,7
 620 -283 620 -283 650 -241 c 128,-1,8
 680 -199 680 -199 697 -107 c 2,9,-1
 843 645 l 2,10,11
 861 734 861 734 861 795 c 0,12,13
 861 962 861 962 682 962 c 0,14,15
 598 962 598 962 526.5 918.5 c 128,-1,16
 455 875 455 875 404.5 795.5 c 128,-1,17
 354 716 354 716 332 606 c 2,18,-1
 214 0 l 1,19,-1
 34 0 l 1,20,-1
 200 851 l 2,21,22
 210 898 210 898 219.5 956 c 128,-1,23
 229 1014 229 1014 239 1082 c 1,24,-1
 409 1082 l 1,25,26
 409 1075 409 1075 404 1040.5 c 128,-1,27
 399 1006 399 1006 392.5 965.5 c 128,-1,28
 386 925 386 925 381 897 c 1,29,-1
 384 897 l 1,30,31
 467 1012 467 1012 550.5 1056.5 c 128,-1,32
 634 1101 634 1101 749 1101 c 0,33,34
 897 1101 897 1101 971.5 1028 c 128,-1,35
 1046 955 1046 955 1046 817 c 0,36,37
 1046 785 1046 785 1041 744 c 128,-1,38
 1036 703 1036 703 1025 653 c 2,39,-1
 871 -134 l 2,40,41
 840 -292 840 -292 770 -358.5 c 128,-1,42
 700 -425 700 -425 584 -425 c 0,0,1
EndSplineSet
EndChar

StartChar: OE
Encoding: 338 338 275
Width: 2048
GlyphClass: 2
Flags: W
LayerCount: 2
Fore
SplineSet
893 0 m 1,0,1
 820 -10 820 -10 702 -10 c 0,2,3
 514 -10 514 -10 379.5 60.5 c 128,-1,4
 245 131 245 131 173 262 c 128,-1,5
 101 393 101 393 101 573 c 0,6,7
 101 696 101 696 128 806.5 c 128,-1,8
 155 917 155 917 208 1014 c 0,9,10
 315 1208 315 1208 502 1314 c 128,-1,11
 689 1420 689 1420 925 1420 c 0,12,13
 969 1420 969 1420 1016.5 1418.5 c 128,-1,14
 1064 1417 1064 1417 1116 1414 c 2,15,-1
 1194 1409 l 1,16,-1
 2067 1409 l 1,17,-1
 2037 1253 l 1,18,-1
 1327 1253 l 1,19,-1
 1239 801 l 1,20,-1
 1889 801 l 1,21,-1
 1859 647 l 1,22,-1
 1209 647 l 1,23,-1
 1114 156 l 1,24,-1
 1865 156 l 1,25,-1
 1835 0 l 1,26,-1
 893 0 l 1,0,1
712 145 m 0,27,28
 777 145 777 145 829.5 148 c 128,-1,29
 882 151 882 151 923 156 c 1,30,-1
 1136 1255 l 1,31,32
 1094 1260 1094 1260 1038.5 1263 c 128,-1,33
 983 1266 983 1266 915 1266 c 0,34,35
 721 1266 721 1266 581 1180 c 0,36,37
 488 1123 488 1123 423.5 1026.5 c 128,-1,38
 359 930 359 930 325.5 810.5 c 128,-1,39
 292 691 292 691 292 563 c 0,40,41
 292 360 292 360 401.5 252.5 c 128,-1,42
 511 145 511 145 712 145 c 0,27,28
EndSplineSet
EndChar

StartChar: oe
Encoding: 339 339 276
Width: 1933
GlyphClass: 2
Flags: W
LayerCount: 2
Fore
SplineSet
1055 503 m 1,0,1
 1044 450 1044 450 1044 390 c 0,2,3
 1044 257 1044 257 1110.5 186 c 128,-1,4
 1177 115 1177 115 1311 115 c 0,5,6
 1407 115 1407 115 1484.5 162 c 128,-1,7
 1562 209 1562 209 1607 294 c 1,8,-1
 1745 231 l 1,9,10
 1671 98 1671 98 1559 39 c 128,-1,11
 1447 -20 1447 -20 1290 -20 c 0,12,13
 1022 -20 1022 -20 917 173 c 1,14,15
 844 79 844 79 737.5 32 c 128,-1,16
 631 -15 631 -15 491 -15 c 0,17,18
 292 -15 292 -15 180.5 101 c 128,-1,19
 69 217 69 217 69 419 c 1,20,21
 74 623 74 623 143 780 c 0,22,23
 212 938 212 938 336 1019.5 c 128,-1,24
 460 1101 460 1101 642 1101 c 0,25,26
 782 1101 782 1101 878 1053 c 128,-1,27
 974 1005 974 1005 1024 909 c 1,28,29
 1100 1002 1100 1002 1203 1052 c 128,-1,30
 1306 1102 1306 1102 1427 1102 c 0,31,32
 1631 1102 1631 1102 1744 999 c 128,-1,33
 1857 896 1857 896 1857 708 c 0,34,35
 1857 604 1857 604 1833 503 c 1,36,-1
 1055 503 l 1,0,1
888 683 m 1,37,38
 888 969 888 969 640 969 c 0,39,40
 504 969 504 969 424 899 c 0,41,42
 370 852 370 852 332 771 c 128,-1,43
 294 690 294 690 274 596.5 c 128,-1,44
 254 503 254 503 254 416 c 0,45,46
 254 267 254 267 316 192.5 c 128,-1,47
 378 118 378 118 502 118 c 0,48,49
 639 118 639 118 716 185 c 0,50,51
 793 251 793 251 837.5 386.5 c 128,-1,52
 882 522 882 522 888 683 c 1,37,38
1077 641 m 1,53,-1
 1674 641 l 1,54,-1
 1678 713 l 1,55,56
 1678 837 1678 837 1615.5 903 c 128,-1,57
 1553 969 1553 969 1431 969 c 0,58,59
 1297 969 1297 969 1205.5 883.5 c 128,-1,60
 1114 798 1114 798 1077 641 c 1,53,-1
EndSplineSet
EndChar

StartChar: Tbar
Encoding: 358 358 295
Width: 1251
Flags: W
LayerCount: 2
Fore
SplineSet
740 647 m 1,0,-1
 615 0 l 1,1,-1
 425 0 l 1,2,-1
 550 647 l 1,3,-1
 271 647 l 1,4,-1
 301 801 l 1,5,-1
 580 801 l 1,6,-1
 668 1253 l 1,7,-1
 184 1253 l 1,8,-1
 214 1409 l 1,9,-1
 1372 1409 l 1,10,-1
 1342 1253 l 1,11,-1
 858 1253 l 1,12,-1
 770 801 l 1,13,-1
 1051 801 l 1,14,-1
 1021 647 l 1,15,-1
 740 647 l 1,0,-1
EndSplineSet
EndChar

StartChar: tbar
Encoding: 359 359 296
Width: 569
Flags: W
LayerCount: 2
Fore
SplineSet
277 211 m 0,0,1
 277 167 277 167 299.5 145 c 128,-1,2
 322 123 322 123 367 123 c 0,3,4
 406 123 406 123 467 137 c 1,5,-1
 448 4 l 1,6,7
 349 -20 349 -20 275 -20 c 0,8,9
 190 -20 190 -20 141.5 31 c 128,-1,10
 93 82 93 82 93 166 c 0,11,12
 93 221 93 221 108 296 c 2,13,-1
 150 516 l 1,14,-1
 25 516 l 1,15,-1
 50 647 l 1,16,-1
 175 647 l 1,17,-1
 234 951 l 1,18,-1
 109 951 l 1,19,-1
 135 1082 l 1,20,-1
 262 1082 l 1,21,-1
 367 1324 l 1,22,-1
 487 1324 l 1,23,-1
 440 1082 l 1,24,-1
 640 1082 l 1,25,-1
 614 951 l 1,26,-1
 414 951 l 1,27,-1
 355 647 l 1,28,-1
 555 647 l 1,29,-1
 530 516 l 1,30,-1
 329 516 l 1,31,-1
 289 306 l 2,32,33
 277 246 277 246 277 211 c 0,0,1
EndSplineSet
EndChar

StartChar: longs
Encoding: 383 383 320
Width: 455
Flags: W
LayerCount: 2
Fore
SplineSet
33 0 m 1,0,-1
 267 1204 l 2,1,2
 296 1360 296 1360 368 1422 c 128,-1,3
 440 1484 440 1484 572 1484 c 0,4,5
 642 1484 642 1484 690 1472 c 1,6,-1
 666 1335 l 1,7,8
 644 1339 644 1339 623 1341 c 128,-1,9
 602 1343 602 1343 582 1343 c 0,10,11
 543 1343 543 1343 517 1329 c 0,12,13
 486 1312 486 1312 471 1276.5 c 128,-1,14
 456 1241 456 1241 443 1179 c 2,15,-1
 213 0 l 1,16,-1
 33 0 l 1,0,-1
EndSplineSet
EndChar

StartChar: uni0180
Encoding: 384 384 321
Width: 1139
Flags: W
LayerCount: 2
Fore
SplineSet
167 1337 m 1,0,-1
 294 1337 l 1,1,-1
 323 1484 l 1,2,-1
 503 1484 l 1,3,-1
 474 1337 l 1,4,-1
 779 1337 l 1,5,-1
 754 1206 l 1,6,-1
 448 1206 l 1,7,-1
 420 1061 l 2,8,9
 413 1030 413 1030 405 994.5 c 128,-1,10
 397 959 397 959 386 921 c 1,11,-1
 390 921 l 1,12,13
 463 1016 463 1016 544 1059 c 128,-1,14
 625 1102 625 1102 744 1102 c 0,15,16
 901 1102 901 1102 988.5 1007.5 c 128,-1,17
 1076 913 1076 913 1076 748 c 0,18,19
 1076 544 1076 544 1015 355 c 0,20,21
 954 165 954 165 842 72.5 c 128,-1,22
 730 -20 730 -20 557 -20 c 0,23,24
 434 -20 434 -20 357 32 c 128,-1,25
 280 84 280 84 248 178 c 1,26,-1
 245 178 l 1,27,28
 243 165 243 165 232 120.5 c 128,-1,29
 221 76 221 76 202 0 c 1,30,-1
 29 0 l 1,31,32
 33 13 33 13 45.5 68.5 c 128,-1,33
 58 124 58 124 78 223 c 2,34,-1
 269 1206 l 1,35,-1
 142 1206 l 1,36,-1
 167 1337 l 1,0,-1
692 963 m 0,37,38
 593 963 593 963 522.5 922.5 c 128,-1,39
 452 882 452 882 403 801 c 0,40,41
 371 747 371 747 347 672 c 128,-1,42
 323 597 323 597 310.5 519.5 c 128,-1,43
 298 442 298 442 298 377 c 0,44,45
 298 252 298 252 361.5 182.5 c 128,-1,46
 425 113 425 113 538 113 c 0,47,48
 661 113 661 113 731 186 c 0,49,50
 779 234 779 234 814 326.5 c 128,-1,51
 849 419 849 419 868.5 524.5 c 128,-1,52
 888 630 888 630 888 716 c 0,53,54
 888 839 888 839 841 901 c 128,-1,55
 794 963 794 963 692 963 c 0,37,38
EndSplineSet
EndChar

StartChar: uni0181
Encoding: 385 385 322
Width: 1496
Flags: W
LayerCount: 2
Fore
SplineSet
1377 439 m 0,0,1
 1377 226 1377 226 1221 113 c 128,-1,2
 1065 0 1065 0 788 0 c 2,3,-1
 193 0 l 1,4,-1
 438 1261 l 1,5,-1
 422 1261 l 2,6,7
 328 1261 328 1261 281.5 1210 c 128,-1,8
 235 1159 235 1159 235 1067 c 0,9,10
 236 1054 236 1054 237 1042 c 128,-1,11
 238 1030 238 1030 239 1017 c 1,12,-1
 91 1000 l 1,13,14
 87 1014 87 1014 85 1029 c 128,-1,15
 83 1044 83 1044 83 1058 c 0,16,17
 83 1228 83 1228 173.5 1318.5 c 128,-1,18
 264 1409 264 1409 436 1409 c 2,19,-1
 976 1409 l 2,20,21
 1185 1409 1185 1409 1305.5 1322.5 c 128,-1,22
 1426 1236 1426 1236 1426 1087 c 0,23,24
 1426 802 1426 802 1087 743 c 1,25,26
 1225 720 1225 720 1301 638.5 c 128,-1,27
 1377 557 1377 557 1377 439 c 0,0,1
541 810 m 1,28,-1
 872 810 l 2,29,30
 1050 810 1050 810 1138.5 874.5 c 128,-1,31
 1227 939 1227 939 1227 1068 c 0,32,33
 1227 1162 1227 1162 1160 1209 c 128,-1,34
 1093 1256 1093 1256 959 1256 c 2,35,-1
 628 1256 l 1,36,-1
 541 810 l 1,28,-1
413 153 m 1,37,-1
 781 153 l 2,38,39
 991 153 991 153 1088.5 226.5 c 128,-1,40
 1186 300 1186 300 1186 442 c 0,41,42
 1186 549 1186 549 1106.5 605 c 128,-1,43
 1027 661 1027 661 878 661 c 2,44,-1
 512 661 l 1,45,-1
 413 153 l 1,37,-1
EndSplineSet
EndChar

StartChar: uni0182
Encoding: 386 386 323
Width: 1333
Flags: W
LayerCount: 2
Fore
SplineSet
336 1409 m 1,0,-1
 1262 1409 l 1,1,-1
 1232 1253 l 1,2,-1
 497 1253 l 1,3,-1
 412 813 l 1,4,-1
 736 813 l 2,5,6
 964 813 964 813 1091.5 715 c 128,-1,7
 1219 617 1219 617 1219 437 c 0,8,9
 1219 230 1219 230 1071.5 115 c 128,-1,10
 924 0 924 0 665 0 c 2,11,-1
 62 0 l 1,12,-1
 336 1409 l 1,0,-1
282 151 m 1,13,-1
 656 151 l 2,14,15
 841 151 841 151 933 220 c 128,-1,16
 1025 289 1025 289 1025 427 c 0,17,18
 1025 540 1025 540 949.5 600.5 c 128,-1,19
 874 661 874 661 727 661 c 2,20,-1
 382 661 l 1,21,-1
 282 151 l 1,13,-1
EndSplineSet
EndChar

StartChar: uni0183
Encoding: 387 387 324
Width: 1139
Flags: W
LayerCount: 2
Fore
SplineSet
744 1102 m 0,0,1
 901 1102 901 1102 988.5 1007.5 c 128,-1,2
 1076 913 1076 913 1076 748 c 0,3,4
 1076 544 1076 544 1015 355 c 0,5,6
 954 165 954 165 842 72.5 c 128,-1,7
 730 -20 730 -20 557 -20 c 0,8,9
 434 -20 434 -20 357 32 c 128,-1,10
 280 84 280 84 248 178 c 1,11,-1
 245 178 l 1,12,13
 243 165 243 165 232 120.5 c 128,-1,14
 221 76 221 76 202 0 c 1,15,-1
 29 0 l 1,16,17
 33 13 33 13 45.5 68.5 c 128,-1,18
 58 124 58 124 78 223 c 2,19,-1
 323 1484 l 1,20,-1
 1067 1484 l 1,21,-1
 1036 1325 l 1,22,-1
 472 1325 l 1,23,24
 456 1244 456 1244 443.5 1179.5 c 128,-1,25
 431 1115 431 1115 422 1068 c 0,26,27
 412 1020 412 1020 403 983.5 c 128,-1,28
 394 947 394 947 386 921 c 1,29,-1
 390 921 l 1,30,31
 463 1016 463 1016 544 1059 c 128,-1,32
 625 1102 625 1102 744 1102 c 0,0,1
692 963 m 0,33,34
 501 963 501 963 403 801 c 0,35,36
 371 747 371 747 347 672 c 128,-1,37
 323 597 323 597 310.5 519.5 c 128,-1,38
 298 442 298 442 298 377 c 0,39,40
 298 252 298 252 361.5 182.5 c 128,-1,41
 425 113 425 113 538 113 c 0,42,43
 661 113 661 113 731 186 c 0,44,45
 767 222 767 222 795.5 284.5 c 128,-1,46
 824 347 824 347 845 422.5 c 128,-1,47
 866 498 866 498 877 575 c 128,-1,48
 888 652 888 652 888 716 c 0,49,50
 888 839 888 839 841 901 c 128,-1,51
 794 963 794 963 692 963 c 0,33,34
EndSplineSet
EndChar

StartChar: uni0184
Encoding: 388 388 325
Width: 1333
Flags: W
LayerCount: 2
Fore
SplineSet
411 813 m 1,0,-1
 724 813 l 2,1,2
 952 813 952 813 1079.5 715 c 128,-1,3
 1207 617 1207 617 1207 437 c 0,4,5
 1207 230 1207 230 1059.5 115 c 128,-1,6
 912 0 912 0 653 0 c 2,7,-1
 61 0 l 1,8,-1
 258 1011 l 1,9,-1
 132 1176 l 1,10,-1
 138 1209 l 1,11,-1
 470 1409 l 1,12,-1
 526 1409 l 1,13,-1
 411 813 l 1,0,-1
281 151 m 1,14,-1
 644 151 l 2,15,16
 829 151 829 151 921 220 c 128,-1,17
 1013 289 1013 289 1013 427 c 0,18,19
 1013 540 1013 540 937.5 600.5 c 128,-1,20
 862 661 862 661 715 661 c 2,21,-1
 381 661 l 1,22,-1
 281 151 l 1,14,-1
EndSplineSet
EndChar

StartChar: uni0185
Encoding: 389 389 326
Width: 1139
Flags: W
LayerCount: 2
Fore
SplineSet
744 1102 m 0,0,1
 916 1102 916 1102 1003 990 c 0,2,3
 1076 899 1076 899 1076 748 c 0,4,5
 1076 692 1076 692 1071.5 636.5 c 128,-1,6
 1067 581 1067 581 1057 527 c 0,7,8
 1031 376 1031 376 971 248.5 c 128,-1,9
 911 121 911 121 820 56 c 0,10,11
 767 18 767 18 701.5 -1 c 128,-1,12
 636 -20 636 -20 557 -20 c 0,13,14
 434 -20 434 -20 357 32 c 128,-1,15
 280 84 280 84 248 178 c 1,16,-1
 245 178 l 1,17,18
 243 165 243 165 232 120.5 c 128,-1,19
 221 76 221 76 202 0 c 1,20,-1
 29 0 l 1,21,22
 32 9 32 9 38 36.5 c 128,-1,23
 44 64 44 64 54.5 110.5 c 128,-1,24
 65 157 65 157 78 223 c 2,25,-1
 245 1086 l 1,26,-1
 152 1266 l 1,27,-1
 159 1299 l 1,28,-1
 452 1484 l 1,29,-1
 503 1484 l 1,30,31
 492 1426 492 1426 480 1367.5 c 128,-1,32
 468 1309 468 1309 457 1250 c 0,33,34
 448 1203 448 1203 438.5 1155.5 c 128,-1,35
 429 1108 429 1108 420 1061 c 0,36,37
 413 1030 413 1030 405 994.5 c 128,-1,38
 397 959 397 959 386 921 c 1,39,-1
 390 921 l 1,40,41
 463 1016 463 1016 544 1059 c 128,-1,42
 625 1102 625 1102 744 1102 c 0,0,1
692 963 m 0,43,44
 593 963 593 963 522.5 922.5 c 128,-1,45
 452 882 452 882 403 801 c 0,46,47
 374 752 374 752 352 685.5 c 128,-1,48
 330 619 330 619 316 551 c 0,49,50
 298 458 298 458 298 377 c 0,51,52
 298 252 298 252 361.5 182.5 c 128,-1,53
 425 113 425 113 538 113 c 0,54,55
 599 113 599 113 647.5 131 c 128,-1,56
 696 149 696 149 731 186 c 0,57,58
 775 231 775 231 809 316.5 c 128,-1,59
 843 402 843 402 863 496 c 0,60,61
 888 616 888 616 888 716 c 0,62,63
 888 839 888 839 841 901 c 128,-1,64
 794 963 794 963 692 963 c 0,43,44
EndSplineSet
EndChar

StartChar: uni0186
Encoding: 390 390 327
Width: 1479
Flags: W
LayerCount: 2
Fore
SplineSet
175 1073 m 1,0,1
 301 1261 301 1261 461 1345.5 c 128,-1,2
 621 1430 621 1430 833 1430 c 0,3,4
 1015 1430 1015 1430 1148 1358 c 0,5,6
 1282 1285 1282 1285 1351 1151 c 128,-1,7
 1420 1017 1420 1017 1420 841 c 0,8,9
 1420 596 1420 596 1315 396 c 0,10,11
 1210 197 1210 197 1023.5 88.5 c 128,-1,12
 837 -20 837 -20 607 -20 c 0,13,14
 390 -20 390 -20 240.5 70.5 c 128,-1,15
 91 161 91 161 43 325 c 1,16,-1
 223 380 l 1,17,18
 259 268 259 268 362.5 202 c 128,-1,19
 466 136 466 136 617 136 c 0,20,21
 801 136 801 136 941 225 c 256,22,23
 1081 314 1081 314 1156 474 c 128,-1,24
 1231 634 1231 634 1231 844 c 0,25,26
 1231 1044 1231 1044 1122 1159.5 c 128,-1,27
 1013 1275 1013 1275 820 1275 c 0,28,29
 672 1275 672 1275 544 1201.5 c 128,-1,30
 416 1128 416 1128 318 984 c 1,31,-1
 175 1073 l 1,0,1
EndSplineSet
EndChar

StartChar: uni0187
Encoding: 391 391 328
Width: 1479
Flags: W
LayerCount: 2
Fore
SplineSet
1358 336 m 1,0,1
 1232 148 1232 148 1072 64 c 128,-1,2
 912 -20 912 -20 700 -20 c 0,3,4
 519 -20 519 -20 386 53 c 0,5,6
 253 125 253 125 183 259 c 128,-1,7
 113 393 113 393 113 569 c 0,8,9
 113 815 113 815 218 1014 c 256,10,11
 323 1213 323 1213 509.5 1321.5 c 128,-1,12
 696 1430 696 1430 926 1430 c 0,13,14
 1209 1430 1209 1430 1366 1282 c 1,15,-1
 1374 1321 l 2,16,17
 1405 1469 1405 1469 1485.5 1542.5 c 128,-1,18
 1566 1616 1566 1616 1691 1616 c 0,19,20
 1755 1616 1755 1616 1810 1595 c 1,21,-1
 1781 1444 l 1,22,23
 1736 1462 1736 1462 1695 1462 c 0,24,25
 1627 1462 1627 1462 1586 1419 c 128,-1,26
 1545 1376 1545 1376 1528 1284 c 2,27,-1
 1490 1085 l 1,28,-1
 1310 1030 l 1,29,30
 1273 1142 1273 1142 1170 1208 c 128,-1,31
 1067 1274 1067 1274 916 1274 c 0,32,33
 731 1274 731 1274 592 1186 c 0,34,35
 452 1098 452 1098 377 937 c 128,-1,36
 302 776 302 776 302 566 c 0,37,38
 302 366 302 366 411 250.5 c 128,-1,39
 520 135 520 135 713 135 c 0,40,41
 861 135 861 135 989 208.5 c 128,-1,42
 1117 282 1117 282 1215 426 c 1,43,-1
 1358 336 l 1,0,1
EndSplineSet
EndChar

StartChar: uni0188
Encoding: 392 392 329
Width: 1024
Flags: W
LayerCount: 2
Fore
SplineSet
469 122 m 0,0,1
 569 122 569 122 640.5 177 c 128,-1,2
 712 232 712 232 758 352 c 1,3,-1
 914 303 l 1,4,5
 792 -20 792 -20 465 -20 c 0,6,7
 272 -20 272 -20 169.5 90 c 128,-1,8
 67 200 67 200 67 395 c 0,9,10
 67 596 67 596 140 767 c 0,11,12
 212 939 212 939 331.5 1020.5 c 128,-1,13
 451 1102 451 1102 625 1102 c 0,14,15
 789 1102 789 1102 886 1023 c 1,16,17
 921 1156 921 1156 994.5 1222.5 c 128,-1,18
 1068 1289 1068 1289 1180 1289 c 0,19,20
 1246 1289 1246 1289 1295 1268 c 1,21,-1
 1266 1117 l 1,22,23
 1217 1137 1217 1137 1187 1137 c 0,24,25
 1124 1137 1124 1137 1087.5 1090.5 c 128,-1,26
 1051 1044 1051 1044 1032 947 c 2,27,-1
 1001 784 l 1,28,-1
 824 759 l 1,29,30
 818 856 818 856 764 908.5 c 128,-1,31
 710 961 710 961 619 961 c 0,32,33
 492 961 492 961 415 894 c 0,34,35
 367 852 367 852 332 777 c 128,-1,36
 297 702 297 702 277 613 c 0,37,38
 251 501 251 501 251 389 c 0,39,40
 251 122 251 122 469 122 c 0,0,1
EndSplineSet
EndChar

StartChar: uni018A
Encoding: 394 394 331
Width: 1606
Flags: W
LayerCount: 2
Fore
SplineSet
871 1409 m 2,0,1
 1079 1409 1079 1409 1229 1334.5 c 128,-1,2
 1379 1260 1379 1260 1459.5 1122 c 128,-1,3
 1540 984 1540 984 1540 791 c 0,4,5
 1540 554 1540 554 1437 378 c 0,6,7
 1334 201 1334 201 1140.5 100.5 c 128,-1,8
 947 0 947 0 702 0 c 2,9,-1
 190 0 l 1,10,-1
 434 1261 l 1,11,-1
 419 1261 l 2,12,13
 325 1261 325 1261 278.5 1210 c 128,-1,14
 232 1159 232 1159 232 1067 c 0,15,16
 233 1054 233 1054 234 1042 c 128,-1,17
 235 1030 235 1030 236 1017 c 1,18,-1
 88 1000 l 1,19,20
 84 1014 84 1014 82 1029 c 128,-1,21
 80 1044 80 1044 80 1058 c 0,22,23
 80 1228 80 1228 170.5 1318.5 c 128,-1,24
 261 1409 261 1409 433 1409 c 2,25,-1
 871 1409 l 2,0,1
410 153 m 1,26,-1
 694 153 l 2,27,28
 891 153 891 153 1039 231 c 0,29,30
 1187 308 1187 308 1266.5 453.5 c 128,-1,31
 1346 599 1346 599 1346 793 c 0,32,33
 1346 1012 1346 1012 1220 1134 c 128,-1,34
 1094 1256 1094 1256 867 1256 c 2,35,-1
 625 1256 l 1,36,-1
 410 153 l 1,26,-1
EndSplineSet
EndChar

StartChar: uni018B
Encoding: 395 395 332
Width: 1333
Flags: W
LayerCount: 2
Fore
SplineSet
554 0 m 2,0,1
 385 0 385 0 269 55 c 0,2,3
 173 101 173 101 122 182.5 c 128,-1,4
 71 264 71 264 71 376 c 0,5,6
 71 562 71 562 192 675 c 0,7,8
 263 743 263 743 373 778 c 128,-1,9
 483 813 483 813 625 813 c 2,10,-1
 1028 813 l 1,11,-1
 1114 1253 l 1,12,-1
 354 1253 l 1,13,-1
 384 1409 l 1,14,-1
 1335 1409 l 1,15,-1
 1061 0 l 1,16,-1
 554 0 l 2,0,1
998 662 m 1,17,-1
 634 662 l 2,18,19
 450 662 450 662 357.5 593 c 128,-1,20
 265 524 265 524 265 386 c 0,21,22
 265 273 265 273 340.5 212.5 c 128,-1,23
 416 152 416 152 563 152 c 2,24,-1
 907 152 l 1,25,-1
 998 662 l 1,17,-1
EndSplineSet
EndChar

StartChar: uni018C
Encoding: 396 396 333
Width: 1139
Flags: W
LayerCount: 2
Fore
SplineSet
401 -21 m 0,0,1
 244 -21 244 -21 156.5 73.5 c 128,-1,2
 69 168 69 168 69 333 c 0,3,4
 69 535 69 535 131 727 c 0,5,6
 193 918 193 918 304 1009.5 c 128,-1,7
 415 1101 415 1101 588 1101 c 0,8,9
 711 1101 711 1101 788.5 1049 c 128,-1,10
 866 997 866 997 898 903 c 1,11,-1
 903 903 l 1,12,13
 910 944 910 944 917 984.5 c 128,-1,14
 924 1025 924 1025 931 1065 c 0,15,16
 943 1130 943 1130 956 1195 c 128,-1,17
 969 1260 969 1260 982 1325 c 1,18,-1
 418 1325 l 1,19,-1
 449 1484 l 1,20,-1
 1193 1484 l 1,21,-1
 948 223 l 2,22,23
 938 168 938 168 929 112 c 128,-1,24
 920 56 920 56 910 0 c 1,25,-1
 738 0 l 1,26,27
 738 26 738 26 743.5 65.5 c 128,-1,28
 749 105 749 105 759 160 c 1,29,-1
 754 160 l 1,30,31
 681 65 681 65 600 22 c 128,-1,32
 519 -21 519 -21 401 -21 c 0,0,1
453 118 m 0,33,34
 645 118 645 118 742 281 c 0,35,36
 775 335 775 335 798.5 409.5 c 128,-1,37
 822 484 822 484 834.5 562 c 128,-1,38
 847 640 847 640 847 704 c 0,39,40
 847 829 847 829 783.5 898.5 c 128,-1,41
 720 968 720 968 607 968 c 0,42,43
 483 968 483 968 411 893 c 0,44,45
 363 843 363 843 328.5 749 c 128,-1,46
 294 655 294 655 275.5 551 c 128,-1,47
 257 447 257 447 257 365 c 0,48,49
 257 242 257 242 304 180 c 128,-1,50
 351 118 351 118 453 118 c 0,33,34
EndSplineSet
EndChar

StartChar: uni018D
Encoding: 397 397 334
Width: 1138
Flags: W
LayerCount: 2
Fore
SplineSet
1074 683 m 0,0,1
 1074 508 1074 508 1009 337 c 0,2,3
 943 167 943 167 820.5 77 c 128,-1,4
 698 -13 698 -13 519 -19 c 1,5,-1
 809 -293 l 1,6,-1
 784 -425 l 1,7,-1
 45 -425 l 1,8,-1
 73 -280 l 1,9,-1
 439 -280 l 1,10,-1
 591 -288 l 1,11,-1
 222 55 l 2,12,13
 142 129 142 129 107 211 c 0,14,15
 86 258 86 258 76.5 310 c 128,-1,16
 67 362 67 362 67 419 c 0,17,18
 67 604 67 604 135 769 c 0,19,20
 203 933 203 933 329.5 1017 c 128,-1,21
 456 1101 456 1101 642 1101 c 0,22,23
 852 1101 852 1101 963 991.5 c 128,-1,24
 1074 882 1074 882 1074 683 c 0,0,1
888 683 m 0,25,26
 888 826 888 826 826 897.5 c 128,-1,27
 764 969 764 969 640 969 c 0,28,29
 505 969 505 969 424 900 c 0,30,31
 370 854 370 854 331.5 773.5 c 128,-1,32
 293 693 293 693 272.5 598.5 c 128,-1,33
 252 504 252 504 252 416 c 0,34,35
 252 268 252 268 316 190.5 c 128,-1,36
 380 113 380 113 502 113 c 0,37,38
 606 113 606 113 669.5 149 c 128,-1,39
 733 185 733 185 781 263 c 0,40,41
 813 315 813 315 837 389 c 128,-1,42
 861 463 861 463 874.5 541.5 c 128,-1,43
 888 620 888 620 888 683 c 0,25,26
EndSplineSet
EndChar

StartChar: uni018E
Encoding: 398 398 335
Width: 1366
Flags: W
LayerCount: 2
Fore
SplineSet
-30 0 m 1,0,-1
 3 156 l 1,1,-1
 922 156 l 1,2,-1
 1026 647 l 1,3,-1
 208 647 l 1,4,-1
 241 801 l 1,5,-1
 1059 801 l 1,6,-1
 1155 1253 l 1,7,-1
 277 1253 l 1,8,-1
 310 1409 l 1,9,-1
 1379 1409 l 1,10,-1
 1080 0 l 1,11,-1
 -30 0 l 1,0,-1
EndSplineSet
EndChar

StartChar: uni018F
Encoding: 399 399 336
Width: 1593
Flags: W
LayerCount: 2
Fore
SplineSet
1316 810 m 1,0,1
 1317 832 1317 832 1317.5 846.5 c 128,-1,2
 1318 861 1318 861 1318 868 c 0,3,4
 1318 1058 1318 1058 1214.5 1166 c 128,-1,5
 1111 1274 1111 1274 927 1274 c 0,6,7
 844 1274 844 1274 770 1256 c 0,8,9
 673 1232 673 1232 594 1174 c 128,-1,10
 515 1116 515 1116 449 1021 c 1,11,-1
 281 1081 l 1,12,13
 400 1260 400 1260 562.5 1345 c 128,-1,14
 725 1430 725 1430 937 1430 c 0,15,16
 1114 1430 1114 1430 1240 1361.5 c 128,-1,17
 1366 1293 1366 1293 1433.5 1165.5 c 128,-1,18
 1501 1038 1501 1038 1501 860 c 0,19,20
 1501 606 1501 606 1403 404 c 256,21,22
 1305 202 1305 202 1122 91 c 128,-1,23
 939 -20 939 -20 695 -20 c 0,24,25
 516 -20 516 -20 389 45 c 0,26,27
 259 110 259 110 190.5 236 c 128,-1,28
 122 362 122 362 122 540 c 0,29,30
 122 662 122 662 159 810 c 1,31,-1
 1316 810 l 1,0,1
703 126 m 0,32,33
 929 126 929 126 1080 262.5 c 128,-1,34
 1231 399 1231 399 1292 652 c 1,35,-1
 309 652 l 1,36,37
 300 595 300 595 300 540 c 0,38,39
 300 339 300 339 404.5 232.5 c 128,-1,40
 509 126 509 126 703 126 c 0,32,33
EndSplineSet
EndChar

StartChar: uni0190
Encoding: 400 400 337
Width: 1257
Flags: W
LayerCount: 2
Fore
SplineSet
545 -20 m 0,0,1
 382 -20 382 -20 268 37 c 0,2,3
 178 83 178 83 129 161.5 c 128,-1,4
 80 240 80 240 80 345 c 0,5,6
 80 509 80 509 185.5 614 c 128,-1,7
 291 719 291 719 473 744 c 1,8,9
 365 772 365 772 306.5 839.5 c 128,-1,10
 248 907 248 907 248 1009 c 0,11,12
 248 1138 248 1138 318 1236 c 0,13,14
 383 1328 383 1328 502.5 1378.5 c 128,-1,15
 622 1429 622 1429 780 1429 c 0,16,17
 980 1429 980 1429 1094 1345.5 c 128,-1,18
 1208 1262 1208 1262 1244 1088 c 1,19,-1
 1069 1037 l 1,20,21
 1032 1168 1032 1168 960.5 1221 c 128,-1,22
 889 1274 889 1274 767 1274 c 0,23,24
 618 1274 618 1274 528.5 1199 c 128,-1,25
 439 1124 439 1124 439 997 c 0,26,27
 439 898 439 898 518 850 c 128,-1,28
 597 802 597 802 760 802 c 2,29,-1
 821 802 l 1,30,-1
 792 654 l 1,31,-1
 721 654 l 2,32,33
 498 654 498 654 386 579.5 c 128,-1,34
 274 505 274 505 274 356 c 0,35,36
 274 252 274 252 351 192.5 c 128,-1,37
 428 133 428 133 562 133 c 0,38,39
 819 133 819 133 990 405 c 1,40,-1
 1135 318 l 1,41,42
 1049 186 1049 186 967 118 c 0,43,44
 884 49 884 49 779.5 14.5 c 128,-1,45
 675 -20 675 -20 545 -20 c 0,0,1
EndSplineSet
EndChar

StartChar: uni0191
Encoding: 401 401 338
Width: 1251
Flags: W
LayerCount: 2
Fore
SplineSet
229 -129 m 2,0,1
 201 -275 201 -275 118 -349.5 c 128,-1,2
 35 -424 35 -424 -115 -424 c 0,3,4
 -180 -424 -180 -424 -236 -403 c 1,5,-1
 -206 -248 l 1,6,7
 -161 -266 -161 -266 -120 -266 c 0,8,9
 -53 -266 -53 -266 -12.5 -223 c 128,-1,10
 28 -180 28 -180 46 -88 c 2,11,-1
 336 1409 l 1,12,-1
 1347 1409 l 1,13,-1
 1317 1253 l 1,14,-1
 497 1253 l 1,15,-1
 395 729 l 1,16,-1
 1191 729 l 1,17,-1
 1160 571 l 1,18,-1
 364 571 l 1,19,-1
 229 -129 l 2,0,1
EndSplineSet
EndChar

StartChar: florin
Encoding: 402 402 339
Width: 1139
GlyphClass: 2
Flags: W
LayerCount: 2
Fore
SplineSet
1028 1312 m 1,0,1
 1003 1320 1003 1320 975 1323.5 c 128,-1,2
 947 1327 947 1327 918 1327 c 0,3,4
 858 1327 858 1327 826 1290 c 128,-1,5
 794 1253 794 1253 775 1159 c 2,6,-1
 749 1022 l 1,7,-1
 960 1022 l 1,8,-1
 935 891 l 1,9,-1
 722 891 l 1,10,-1
 464 -456 l 1,11,-1
 284 -456 l 1,12,-1
 542 891 l 1,13,-1
 390 891 l 1,14,-1
 417 1022 l 1,15,-1
 568 1022 l 1,16,-1
 597 1174 l 2,17,18
 628 1327 628 1327 702.5 1390.5 c 128,-1,19
 777 1454 777 1454 910 1454 c 0,20,21
 987 1454 987 1454 1059 1434 c 1,22,-1
 1028 1312 l 1,0,1
EndSplineSet
EndChar

StartChar: uni0193
Encoding: 403 403 340
Width: 1593
Flags: W
LayerCount: 2
Fore
SplineSet
742 -20 m 0,0,1
 437 -20 437 -20 269 136 c 128,-1,2
 101 292 101 292 101 573 c 0,3,4
 101 823 101 823 206 1019 c 0,5,6
 311 1216 311 1216 503.5 1323 c 128,-1,7
 696 1430 696 1430 944 1430 c 0,8,9
 1230 1430 1230 1430 1381 1292 c 1,10,-1
 1387 1321 l 2,11,12
 1415 1464 1415 1464 1496.5 1540 c 128,-1,13
 1578 1616 1578 1616 1704 1616 c 0,14,15
 1768 1616 1768 1616 1823 1595 c 1,16,-1
 1794 1444 l 1,17,18
 1749 1462 1749 1462 1708 1462 c 0,19,20
 1640 1462 1640 1462 1599.5 1419 c 128,-1,21
 1559 1376 1559 1376 1541 1284 c 2,22,-1
 1505 1098 l 1,23,-1
 1312 1044 l 1,24,25
 1275 1159 1275 1159 1178 1216.5 c 128,-1,26
 1081 1274 1081 1274 932 1274 c 0,27,28
 741 1274 741 1274 596 1188 c 256,29,30
 451 1102 451 1102 374 943.5 c 128,-1,31
 297 785 297 785 297 577 c 0,32,33
 297 366 297 366 415 250.5 c 128,-1,34
 533 135 533 135 748 135 c 0,35,36
 889 135 889 135 1017.5 176 c 128,-1,37
 1146 217 1146 217 1231 291 c 1,38,-1
 1282 545 l 1,39,-1
 861 545 l 1,40,-1
 893 705 l 1,41,-1
 1490 705 l 1,42,-1
 1390 210 l 1,43,44
 1250 90 1250 90 1091.5 35 c 128,-1,45
 933 -20 933 -20 742 -20 c 0,0,1
EndSplineSet
EndChar

StartChar: uni0194
Encoding: 404 404 341
Width: 1017
Flags: W
LayerCount: 2
Fore
SplineSet
343 -425 m 0,0,1
 241 -425 241 -425 180.5 -366.5 c 128,-1,2
 120 -308 120 -308 120 -205 c 0,3,4
 120 -154 120 -154 142.5 -92 c 128,-1,5
 165 -30 165 -30 204 38 c 0,6,7
 224 72 224 72 261 126.5 c 128,-1,8
 298 181 298 181 353 257 c 1,9,-1
 49 1409 l 1,10,-1
 247 1409 l 1,11,-1
 481 412 l 1,12,-1
 1101 1409 l 1,13,-1
 1307 1409 l 1,14,-1
 551 247 l 1,15,16
 601 90 601 90 615 15 c 0,17,18
 628 -54 628 -54 628 -112 c 0,19,20
 628 -198 628 -198 593 -274 c 0,21,22
 557 -350 557 -350 492.5 -387.5 c 128,-1,23
 428 -425 428 -425 343 -425 c 0,0,1
358 -275 m 0,24,25
 408 -275 408 -275 436.5 -228 c 128,-1,26
 465 -181 465 -181 465 -96 c 0,27,28
 465 -40 465 -40 457 16.5 c 128,-1,29
 449 73 449 73 432 130 c 1,30,-1
 396 75 l 2,31,32
 344 -7 344 -7 314.5 -79 c 128,-1,33
 285 -151 285 -151 285 -193 c 0,34,35
 285 -232 285 -232 304.5 -253.5 c 128,-1,36
 324 -275 324 -275 358 -275 c 0,24,25
EndSplineSet
EndChar

StartChar: uni0195
Encoding: 405 405 342
Width: 1801
Flags: W
LayerCount: 2
Fore
SplineSet
1144 -20 m 0,0,1
 962 -20 962 -20 869 57.5 c 128,-1,2
 776 135 776 135 776 271 c 0,3,4
 776 292 776 292 778.5 314.5 c 128,-1,5
 781 337 781 337 786 361 c 2,6,-1
 845 660 l 2,7,8
 853 700 853 700 856.5 733.5 c 128,-1,9
 860 767 860 767 860 794 c 0,10,11
 860 962 860 962 682 962 c 0,12,13
 598 962 598 962 526 918 c 128,-1,14
 454 874 454 874 403.5 795.5 c 128,-1,15
 353 717 353 717 332 611 c 2,16,-1
 213 0 l 1,17,-1
 34 0 l 1,18,-1
 322 1484 l 1,19,-1
 502 1484 l 1,20,-1
 427 1098 l 2,21,22
 417 1043 417 1043 405.5 993 c 128,-1,23
 394 943 394 943 381 897 c 1,24,-1
 384 897 l 1,25,26
 457 1004 457 1004 542.5 1052.5 c 128,-1,27
 628 1101 628 1101 749 1101 c 0,28,29
 895 1101 895 1101 970 1028 c 128,-1,30
 1045 955 1045 955 1045 820 c 0,31,32
 1045 789 1045 789 1041.5 755.5 c 128,-1,33
 1038 722 1038 722 1030 684 c 2,34,-1
 973 391 l 2,35,36
 960 330 960 330 960 286 c 0,37,38
 960 204 960 204 1004 160.5 c 128,-1,39
 1048 117 1048 117 1152 117 c 0,40,41
 1274 117 1274 117 1339.5 177.5 c 128,-1,42
 1405 238 1405 238 1436 394 c 2,43,-1
 1570 1082 l 1,44,-1
 1751 1082 l 1,45,-1
 1611 365 l 2,46,47
 1571 160 1571 160 1456.5 70 c 128,-1,48
 1342 -20 1342 -20 1144 -20 c 0,0,1
EndSplineSet
EndChar

StartChar: uni0196
Encoding: 406 406 343
Width: 455
Flags: W
LayerCount: 2
Fore
SplineSet
244 139 m 0,0,1
 244 101 244 101 256.5 65 c 128,-1,2
 269 29 269 29 289 0 c 1,3,-1
 91 0 l 1,4,5
 63 40 63 40 63 125 c 0,6,7
 63 179 63 179 74 236 c 2,8,-1
 317 1484 l 1,9,-1
 497 1484 l 1,10,-1
 253 227 l 2,11,12
 249 207 249 207 246.5 182 c 128,-1,13
 244 157 244 157 244 139 c 0,0,1
EndSplineSet
EndChar

StartChar: uni0197
Encoding: 407 407 344
Width: 569
Flags: W
LayerCount: 2
Fore
SplineSet
392 672 m 1,0,-1
 261 0 l 1,1,-1
 82 0 l 1,2,-1
 212 672 l 1,3,-1
 48 672 l 1,4,-1
 75 813 l 1,5,-1
 240 813 l 1,6,-1
 370 1484 l 1,7,-1
 550 1484 l 1,8,-1
 419 813 l 1,9,-1
 589 813 l 1,10,-1
 562 672 l 1,11,-1
 392 672 l 1,0,-1
EndSplineSet
EndChar

StartChar: uni0198
Encoding: 408 408 345
Width: 1366
Flags: W
LayerCount: 2
Fore
SplineSet
691 779 m 1,0,-1
 1248 0 l 1,1,-1
 1022 0 l 1,2,-1
 550 674 l 1,3,-1
 360 545 l 1,4,-1
 254 0 l 1,5,-1
 63 0 l 1,6,-1
 336 1409 l 1,7,-1
 527 1409 l 1,8,-1
 391 718 l 1,9,-1
 532 847 l 1,10,-1
 1019 1261 l 2,11,12
 1046 1284 1046 1284 1073 1305 c 128,-1,13
 1100 1326 1100 1326 1126 1346 c 0,14,15
 1230 1425 1230 1425 1353 1425 c 0,16,17
 1388 1425 1388 1425 1420.5 1419 c 128,-1,18
 1453 1413 1453 1413 1479 1404 c 1,19,-1
 1447 1245 l 1,20,21
 1427 1253 1427 1253 1406 1258 c 128,-1,22
 1385 1263 1385 1263 1362 1263 c 0,23,24
 1319 1263 1319 1263 1268 1243 c 0,25,26
 1217 1222 1217 1222 1125 1144 c 2,27,-1
 691 779 l 1,0,-1
EndSplineSet
EndChar

StartChar: uni0199
Encoding: 409 409 346
Width: 1024
Flags: W
LayerCount: 2
Fore
SplineSet
285 378 m 1,0,-1
 213 0 l 1,1,-1
 34 0 l 1,2,-1
 271 1221 l 2,3,4
 296 1353 296 1353 375 1425.5 c 128,-1,5
 454 1498 454 1498 575 1498 c 0,6,7
 645 1498 645 1498 700 1477 c 1,8,-1
 671 1326 l 1,9,10
 623 1346 623 1346 592 1346 c 0,11,12
 529 1346 529 1346 492 1298 c 128,-1,13
 455 1250 455 1250 437 1153 c 2,14,-1
 323 567 l 1,15,-1
 527 757 l 1,16,-1
 888 1082 l 1,17,-1
 1110 1082 l 1,18,-1
 580 617 l 1,19,-1
 916 0 l 1,20,-1
 721 0 l 1,21,-1
 453 502 l 1,22,-1
 285 378 l 1,0,-1
EndSplineSet
EndChar

StartChar: uni019A
Encoding: 410 410 347
Width: 455
Flags: W
LayerCount: 2
Fore
SplineSet
335 666 m 1,0,-1
 206 0 l 1,1,-1
 27 0 l 1,2,-1
 156 666 l 1,3,-1
 23 666 l 1,4,-1
 52 800 l 1,5,-1
 182 800 l 1,6,-1
 315 1484 l 1,7,-1
 495 1484 l 1,8,-1
 361 800 l 1,9,-1
 499 800 l 1,10,-1
 470 666 l 1,11,-1
 335 666 l 1,0,-1
EndSplineSet
EndChar

StartChar: uni019B
Encoding: 411 411 348
Width: 1008
Flags: W
LayerCount: 2
Fore
SplineSet
849 1271 m 1,0,-1
 679 1213 l 1,1,-1
 899 0 l 1,2,-1
 719 0 l 1,3,-1
 626 577 l 2,4,5
 616 632 616 632 609.5 685.5 c 128,-1,6
 603 739 603 739 601 791 c 1,7,8
 597 784 597 784 597.5 783.5 c 128,-1,9
 598 783 598 783 591 770 c 128,-1,10
 584 757 584 757 557.5 713.5 c 128,-1,11
 531 670 531 670 473 575 c 2,12,-1
 103 0 l 1,13,-1
 -92 0 l 1,14,-1
 556 980 l 1,15,-1
 524 1159 l 1,16,-1
 317 1092 l 1,17,-1
 294 1210 l 1,18,-1
 497 1279 l 1,19,-1
 462 1484 l 1,20,-1
 630 1484 l 1,21,-1
 656 1336 l 1,22,-1
 826 1394 l 1,23,-1
 849 1271 l 1,0,-1
EndSplineSet
EndChar

StartChar: uni019C
Encoding: 412 412 349
Width: 1733
Flags: W
LayerCount: 2
Fore
SplineSet
1041 -20 m 0,0,1
 955 -20 955 -20 895 8 c 0,2,3
 851 28 851 28 818 63.5 c 128,-1,4
 785 99 785 99 763 148 c 1,5,-1
 763 148 l 1,6,7
 736 120 736 120 710.5 98 c 128,-1,8
 685 76 685 76 660 58 c 0,9,10
 600 15 600 15 541.5 -2.5 c 128,-1,11
 483 -20 483 -20 417 -20 c 0,12,13
 251 -20 251 -20 164 64 c 128,-1,14
 77 148 77 148 77 309 c 0,15,16
 77 381 77 381 98 490 c 2,17,-1
 277 1409 l 1,18,-1
 465 1409 l 1,19,-1
 286 488 l 2,20,21
 268 395 268 395 268 331 c 0,22,23
 268 228 268 228 311.5 181.5 c 128,-1,24
 355 135 355 135 452 135 c 0,25,26
 573 135 573 135 642.5 212 c 128,-1,27
 712 289 712 289 742 440 c 2,28,-1
 930 1409 l 1,29,-1
 1119 1409 l 1,30,-1
 934 456 l 2,31,32
 918 380 918 380 918 322 c 0,33,34
 918 227 918 227 959.5 181 c 128,-1,35
 1001 135 1001 135 1090 135 c 0,36,37
 1214 135 1214 135 1291.5 216 c 128,-1,38
 1369 297 1369 297 1400 458 c 2,39,-1
 1585 1409 l 1,40,-1
 1774 1409 l 1,41,-1
 1545 231 l 2,42,43
 1535 182 1535 182 1526.5 124.5 c 128,-1,44
 1518 67 1518 67 1510 0 c 1,45,-1
 1342 0 l 1,46,-1
 1361 146 l 1,47,-1
 1358 142 l 2,48,49
 1300 66 1300 66 1218 23 c 128,-1,50
 1136 -20 1136 -20 1041 -20 c 0,0,1
EndSplineSet
EndChar

StartChar: uni019D
Encoding: 413 413 350
Width: 1479
Flags: W
LayerCount: 2
Fore
SplineSet
987 0 m 1,0,-1
 456 1210 l 1,1,2
 439 1097 439 1097 428.5 1030 c 128,-1,3
 418 963 418 963 414 943 c 2,4,-1
 209 -129 l 2,5,6
 189 -231 189 -231 148.5 -296.5 c 128,-1,7
 108 -362 108 -362 43.5 -393 c 128,-1,8
 -21 -424 -21 -424 -115 -424 c 0,9,10
 -180 -424 -180 -424 -236 -403 c 1,11,-1
 -206 -248 l 1,12,13
 -161 -266 -161 -266 -120 -266 c 0,14,15
 -53 -266 -53 -266 -12.5 -223 c 128,-1,16
 28 -180 28 -180 46 -88 c 2,17,-1
 336 1409 l 1,18,-1
 548 1409 l 1,19,-1
 1082 194 l 1,20,21
 1095 289 1095 289 1106 360 c 128,-1,22
 1117 431 1117 431 1127 478 c 2,23,-1
 1308 1409 l 1,24,-1
 1480 1409 l 1,25,-1
 1207 0 l 1,26,-1
 987 0 l 1,0,-1
EndSplineSet
EndChar

StartChar: uni019E
Encoding: 414 414 351
Width: 1139
Flags: W
LayerCount: 2
Fore
SplineSet
1025 653 m 2,0,-1
 815 -425 l 1,1,-1
 634 -425 l 1,2,-1
 843 645 l 2,3,4
 861 734 861 734 861 795 c 0,5,6
 861 962 861 962 682 962 c 0,7,8
 598 962 598 962 526.5 918.5 c 128,-1,9
 455 875 455 875 404.5 795.5 c 128,-1,10
 354 716 354 716 332 606 c 2,11,-1
 214 0 l 1,12,-1
 34 0 l 1,13,-1
 189 789 l 2,14,15
 197 826 197 826 203 876.5 c 128,-1,16
 209 927 209 927 209 944 c 0,17,18
 209 952 209 952 207.5 983 c 128,-1,19
 206 1014 206 1014 204 1045 c 128,-1,20
 202 1076 202 1076 200 1082 c 1,21,-1
 366 1082 l 1,22,23
 371 1062 371 1062 374.5 1034.5 c 128,-1,24
 378 1007 378 1007 379.5 973 c 128,-1,25
 381 939 381 939 381 897 c 1,26,-1
 384 897 l 1,27,28
 467 1012 467 1012 550.5 1056.5 c 128,-1,29
 634 1101 634 1101 749 1101 c 0,30,31
 897 1101 897 1101 971.5 1028 c 128,-1,32
 1046 955 1046 955 1046 817 c 0,33,34
 1046 785 1046 785 1041 744 c 128,-1,35
 1036 703 1036 703 1025 653 c 2,0,-1
EndSplineSet
EndChar

StartChar: Ohorn
Encoding: 416 416 353
Width: 1662
Flags: W
LayerCount: 2
Fore
SplineSet
938 1430 m 0,0,1
 1167 1430 1167 1430 1319 1321 c 128,-1,2
 1471 1212 1471 1212 1517 1015 c 1,3,4
 1621 1062 1621 1062 1669 1116 c 128,-1,5
 1717 1170 1717 1170 1733 1242 c 1,6,-1
 1645 1242 l 1,7,-1
 1680 1409 l 1,8,-1
 1875 1409 l 1,9,-1
 1853 1303 l 2,10,11
 1824 1166 1824 1166 1752 1081 c 128,-1,12
 1680 996 1680 996 1531 933 c 1,13,14
 1533 908 1533 908 1534.5 887.5 c 128,-1,15
 1536 867 1536 867 1536 851 c 0,16,17
 1536 673 1536 673 1478.5 511 c 128,-1,18
 1421 349 1421 349 1310 229 c 0,19,20
 1199 108 1199 108 1044.5 44 c 128,-1,21
 890 -20 890 -20 709 -20 c 0,22,23
 478 -20 478 -20 328 87 c 0,24,25
 223 162 223 162 167 285.5 c 128,-1,26
 111 409 111 409 111 573 c 0,27,28
 111 813 111 813 217 1013 c 0,29,30
 322 1213 322 1213 511 1321.5 c 128,-1,31
 700 1430 700 1430 938 1430 c 0,0,1
929 1276 m 0,32,33
 633 1276 633 1276 471 1082 c 0,34,35
 418 1018 418 1018 380 931 c 128,-1,36
 342 844 342 844 322 748.5 c 128,-1,37
 302 653 302 653 302 563 c 0,38,39
 302 354 302 354 408.5 244.5 c 128,-1,40
 515 135 515 135 718 135 c 0,41,42
 915 135 915 135 1054 222 c 0,43,44
 1146 280 1146 280 1211 377.5 c 128,-1,45
 1276 475 1276 475 1310.5 597 c 128,-1,46
 1345 719 1345 719 1345 847 c 0,47,48
 1345 1054 1345 1054 1236.5 1165 c 128,-1,49
 1128 1276 1128 1276 929 1276 c 0,32,33
EndSplineSet
EndChar

StartChar: ohorn
Encoding: 417 417 354
Width: 1238
Flags: W
LayerCount: 2
Fore
SplineSet
491 -20 m 0,0,1
 295 -20 295 -20 181 97 c 128,-1,2
 67 214 67 214 67 419 c 0,3,4
 67 604 67 604 135 769 c 0,5,6
 203 933 203 933 329.5 1017 c 128,-1,7
 456 1101 456 1101 642 1101 c 0,8,9
 830 1101 830 1101 940 1011.5 c 128,-1,10
 1050 922 1050 922 1070 757 c 0,11,12
 1071 748 1071 748 1071.5 739 c 128,-1,13
 1072 730 1072 730 1073 720 c 1,14,15
 1141 757 1141 757 1181.5 807 c 128,-1,16
 1222 857 1222 857 1235 921 c 1,17,-1
 1147 921 l 1,18,-1
 1182 1088 l 1,19,-1
 1377 1088 l 1,20,-1
 1355 982 l 2,21,22
 1329 856 1329 856 1264 772 c 128,-1,23
 1199 688 1199 688 1072 630 c 1,24,25
 1066 508 1066 508 1024 379 c 128,-1,26
 982 250 982 250 908 160 c 0,27,28
 760 -20 760 -20 491 -20 c 0,0,1
888 683 m 0,29,30
 888 969 888 969 640 969 c 0,31,32
 505 969 505 969 424 900 c 0,33,34
 370 854 370 854 331.5 773.5 c 128,-1,35
 293 693 293 693 272.5 598.5 c 128,-1,36
 252 504 252 504 252 416 c 0,37,38
 252 268 252 268 316 190.5 c 128,-1,39
 380 113 380 113 502 113 c 0,40,41
 605 113 605 113 667.5 148 c 128,-1,42
 730 183 730 183 777 256 c 0,43,44
 809 305 809 305 834 377.5 c 128,-1,45
 859 450 859 450 873.5 530.5 c 128,-1,46
 888 611 888 611 888 683 c 0,29,30
EndSplineSet
EndChar

StartChar: uni01A2
Encoding: 418 418 355
Width: 1778
Flags: W
LayerCount: 2
Fore
SplineSet
709 -20 m 0,0,1
 425 -20 425 -20 268 137.5 c 128,-1,2
 111 295 111 295 111 573 c 0,3,4
 111 813 111 813 217 1013 c 0,5,6
 322 1213 322 1213 511 1321.5 c 128,-1,7
 700 1430 700 1430 938 1430 c 0,8,9
 1024 1430 1024 1430 1108.5 1410.5 c 128,-1,10
 1193 1391 1193 1391 1275 1353 c 1,11,-1
 1740 1423 l 1,12,-1
 1783 1423 l 1,13,-1
 1424 -424 l 1,14,-1
 1244 -424 l 1,15,-1
 1564 1221 l 1,16,-1
 1338 1223 l 1,17,-1
 1114 72 l 1,18,19
 1040 38 1040 38 974 17.5 c 128,-1,20
 908 -3 908 -3 843.5 -11.5 c 128,-1,21
 779 -20 779 -20 709 -20 c 0,0,1
1159 1228 m 1,22,23
 1065 1276 1065 1276 929 1276 c 0,24,25
 633 1276 633 1276 471 1082 c 0,26,27
 418 1018 418 1018 380 931 c 128,-1,28
 342 844 342 844 322 748.5 c 128,-1,29
 302 653 302 653 302 563 c 0,30,31
 302 355 302 355 407.5 245 c 128,-1,32
 513 135 513 135 716 135 c 0,33,34
 854 135 854 135 956 181 c 1,35,-1
 1159 1228 l 1,22,23
EndSplineSet
EndChar

StartChar: uni01A3
Encoding: 419 419 356
Width: 1367
Flags: W
LayerCount: 2
Fore
SplineSet
491 -20 m 0,0,1
 295 -20 295 -20 181 97 c 128,-1,2
 67 214 67 214 67 419 c 0,3,4
 67 604 67 604 135 769 c 0,5,6
 203 933 203 933 329.5 1017 c 128,-1,7
 456 1101 456 1101 642 1101 c 0,8,9
 725 1101 725 1101 800 1082 c 128,-1,10
 875 1063 875 1063 942 1025 c 1,11,-1
 1292 1093 l 1,12,-1
 1335 1093 l 1,13,-1
 1040 -425 l 1,14,-1
 865 -425 l 1,15,-1
 1126 918 l 1,16,-1
 937 918 l 1,17,-1
 764 38 l 1,18,19
 649 -20 649 -20 491 -20 c 0,0,1
769 950 m 1,20,21
 709 969 709 969 640 969 c 0,22,23
 505 969 505 969 424 900 c 0,24,25
 370 854 370 854 331.5 773.5 c 128,-1,26
 293 693 293 693 272.5 598.5 c 128,-1,27
 252 504 252 504 252 416 c 0,28,29
 252 268 252 268 316 190.5 c 128,-1,30
 380 113 380 113 502 113 c 0,31,32
 561 113 561 113 610 124 c 1,33,-1
 769 950 l 1,20,21
EndSplineSet
EndChar

StartChar: uni01A4
Encoding: 420 420 357
Width: 1496
Flags: W
LayerCount: 2
Fore
SplineSet
982 1409 m 2,0,1
 1213 1409 1213 1409 1348 1305 c 128,-1,2
 1483 1201 1483 1201 1483 1020 c 0,3,4
 1483 874 1483 874 1414 768 c 128,-1,5
 1345 662 1345 662 1217.5 605.5 c 128,-1,6
 1090 549 1090 549 914 549 c 2,7,-1
 490 549 l 1,8,-1
 384 0 l 1,9,-1
 193 0 l 1,10,-1
 437 1261 l 1,11,-1
 422 1261 l 2,12,13
 328 1261 328 1261 281.5 1210 c 128,-1,14
 235 1159 235 1159 235 1067 c 0,15,16
 236 1054 236 1054 237 1042 c 128,-1,17
 238 1030 238 1030 239 1017 c 1,18,-1
 91 1000 l 1,19,20
 87 1014 87 1014 85 1029 c 128,-1,21
 83 1044 83 1044 83 1058 c 0,22,23
 83 1228 83 1228 173.5 1318.5 c 128,-1,24
 264 1409 264 1409 436 1409 c 2,25,-1
 982 1409 l 2,0,1
520 700 m 1,26,-1
 907 700 l 2,27,28
 1098 700 1098 700 1193.5 778 c 128,-1,29
 1289 856 1289 856 1289 1011 c 0,30,31
 1289 1130 1289 1130 1210 1193 c 128,-1,32
 1131 1256 1131 1256 977 1256 c 2,33,-1
 628 1256 l 1,34,-1
 520 700 l 1,26,-1
EndSplineSet
EndChar

StartChar: uni01A5
Encoding: 421 421 358
Width: 1139
Flags: W
LayerCount: 2
Fore
SplineSet
554 -20 m 0,0,1
 431 -20 431 -20 353.5 32 c 128,-1,2
 276 84 276 84 244 178 c 1,3,-1
 239 178 l 1,4,5
 235 148 235 148 230.5 118 c 128,-1,6
 226 88 226 88 221 58 c 0,7,8
 199 -63 199 -63 175 -183.5 c 128,-1,9
 151 -304 151 -304 128 -425 c 1,10,-1
 -51 -425 l 1,11,-1
 268 1221 l 2,12,13
 293 1353 293 1353 372 1425.5 c 128,-1,14
 451 1498 451 1498 572 1498 c 0,15,16
 642 1498 642 1498 697 1477 c 1,17,-1
 668 1326 l 1,18,19
 620 1346 620 1346 589 1346 c 0,20,21
 526 1346 526 1346 489.5 1298 c 128,-1,22
 453 1250 453 1250 434 1153 c 2,23,-1
 389 925 l 1,24,-1
 391 925 l 1,25,26
 466 1020 466 1020 546.5 1061 c 128,-1,27
 627 1102 627 1102 741 1102 c 0,28,29
 898 1102 898 1102 985.5 1007.5 c 128,-1,30
 1073 913 1073 913 1073 748 c 0,31,32
 1073 544 1073 544 1012 355 c 0,33,34
 951 165 951 165 839 72.5 c 128,-1,35
 727 -20 727 -20 554 -20 c 0,0,1
689 963 m 0,36,37
 498 963 498 963 400 801 c 0,38,39
 368 747 368 747 344 672 c 128,-1,40
 320 597 320 597 307.5 519.5 c 128,-1,41
 295 442 295 442 295 377 c 0,42,43
 295 252 295 252 358.5 182.5 c 128,-1,44
 422 113 422 113 535 113 c 0,45,46
 658 113 658 113 728 186 c 0,47,48
 776 234 776 234 811 326.5 c 128,-1,49
 846 419 846 419 865.5 524.5 c 128,-1,50
 885 630 885 630 885 716 c 0,51,52
 885 839 885 839 838 901 c 128,-1,53
 791 963 791 963 689 963 c 0,36,37
EndSplineSet
EndChar

StartChar: uni01A6
Encoding: 422 422 359
Width: 1366
Flags: W
LayerCount: 2
Fore
SplineSet
974 -319 m 1,0,-1
 728 431 l 1,1,-1
 337 431 l 1,2,-1
 254 0 l 1,3,-1
 63 0 l 1,4,-1
 336 1409 l 1,5,-1
 523 1409 l 1,6,-1
 493 1255 l 1,7,-1
 868 1255 l 2,8,9
 1039 1255 1039 1255 1158 1187 c 0,10,11
 1242 1139 1242 1139 1289 1061.5 c 128,-1,12
 1336 984 1336 984 1336 885 c 0,13,14
 1336 697 1336 697 1228 587 c 128,-1,15
 1120 477 1120 477 909 448 c 1,16,-1
 1180 -319 l 1,17,-1
 974 -319 l 1,0,-1
777 582 m 2,18,19
 958 582 958 582 1050 657.5 c 128,-1,20
 1142 733 1142 733 1142 870 c 0,21,22
 1142 982 1142 982 1067.5 1042 c 128,-1,23
 993 1102 993 1102 845 1102 c 2,24,-1
 468 1102 l 1,25,-1
 367 582 l 1,26,-1
 777 582 l 2,18,19
EndSplineSet
EndChar

StartChar: uni01A7
Encoding: 423 423 360
Width: 1366
Flags: W
LayerCount: 2
Fore
SplineSet
1147 1095 m 0,0,1
 1147 1188 1147 1188 1069 1237 c 128,-1,2
 991 1286 991 1286 847 1286 c 0,3,4
 692 1286 692 1286 591 1226.5 c 128,-1,5
 490 1167 490 1167 434 1038 c 1,6,-1
 254 1071 l 1,7,8
 314 1201 314 1201 394.5 1280 c 128,-1,9
 475 1359 475 1359 589.5 1394.5 c 128,-1,10
 704 1430 704 1430 863 1430 c 0,11,12
 1083 1430 1083 1430 1207.5 1343.5 c 128,-1,13
 1332 1257 1332 1257 1332 1100 c 0,14,15
 1332 1016 1332 1016 1308 954.5 c 128,-1,16
 1284 893 1284 893 1242 849 c 0,17,18
 1197 803 1197 803 1128 766 c 0,19,20
 1082 742 1082 742 1026 723.5 c 128,-1,21
 970 705 970 705 882 686.5 c 128,-1,22
 794 668 794 668 652 640 c 0,23,24
 562 623 562 623 495 599.5 c 128,-1,25
 428 576 428 576 382 545 c 0,26,27
 325 507 325 507 299 457 c 128,-1,28
 273 407 273 407 273 344 c 0,29,30
 273 240 273 240 362 184.5 c 128,-1,31
 451 129 451 129 604 129 c 0,32,33
 733 129 733 129 824 162 c 0,34,35
 916 195 916 195 980 260.5 c 128,-1,36
 1044 326 1044 326 1097 451 c 1,37,-1
 1273 404 l 1,38,39
 1178 175 1178 175 1013.5 77.5 c 128,-1,40
 849 -20 849 -20 593 -20 c 0,41,42
 350 -20 350 -20 216.5 74.5 c 128,-1,43
 83 169 83 169 83 344 c 0,44,45
 83 431 83 431 110 497 c 128,-1,46
 137 563 137 563 183 611 c 0,47,48
 230 659 230 659 294 693.5 c 128,-1,49
 358 728 358 728 436 753 c 0,50,51
 465 763 465 763 510.5 774 c 128,-1,52
 556 785 556 785 617 798 c 2,53,-1
 703 816 l 2,54,55
 806 836 806 836 877.5 855 c 128,-1,56
 949 874 949 874 989 891 c 0,57,58
 1069 924 1069 924 1108 973 c 128,-1,59
 1147 1022 1147 1022 1147 1095 c 0,0,1
EndSplineSet
EndChar

StartChar: uni01A8
Encoding: 424 424 361
Width: 1024
Flags: W
LayerCount: 2
Fore
SplineSet
579 962 m 0,0,1
 468 962 468 962 407 927.5 c 128,-1,2
 346 893 346 893 315 812 c 1,3,-1
 165 860 l 1,4,5
 204 982 204 982 311 1042.5 c 128,-1,6
 418 1103 418 1103 593 1103 c 0,7,8
 771 1103 771 1103 867.5 1032 c 128,-1,9
 964 961 964 961 964 832 c 0,10,11
 964 751 964 751 928 694.5 c 128,-1,12
 892 638 892 638 814 594 c 0,13,14
 733 549 733 549 566 500 c 0,15,16
 393 450 393 450 336 422 c 0,17,18
 281 394 281 394 254 359.5 c 128,-1,19
 227 325 227 325 227 274 c 0,20,21
 227 121 227 121 454 121 c 0,22,23
 576 121 576 121 644 158 c 128,-1,24
 712 195 712 195 743 279 c 1,25,-1
 890 223 l 1,26,27
 851 102 851 102 741 41 c 128,-1,28
 631 -20 631 -20 449 -20 c 0,29,30
 254 -20 254 -20 149 53.5 c 128,-1,31
 44 127 44 127 44 269 c 0,32,33
 44 358 44 358 86 422 c 0,34,35
 114 465 114 465 159 499 c 128,-1,36
 204 533 204 533 281 565 c 128,-1,37
 358 597 358 597 480 631 c 2,38,-1
 575 658 l 1,39,40
 697 699 697 699 742 733.5 c 128,-1,41
 787 768 787 768 787 833 c 0,42,43
 787 896 787 896 733 929 c 128,-1,44
 679 962 679 962 579 962 c 0,0,1
EndSplineSet
EndChar

StartChar: uni01AA
Encoding: 426 426 363
Width: 682
Flags: W
LayerCount: 2
Fore
SplineSet
176 1279 m 0,0,1
 176 1376 176 1376 243.5 1434.5 c 128,-1,2
 311 1493 311 1493 418 1493 c 0,3,4
 526 1493 526 1493 582.5 1439.5 c 128,-1,5
 639 1386 639 1386 639 1284 c 0,6,7
 639 1244 639 1244 627 1181 c 2,8,-1
 372 -124 l 2,9,10
 367 -156 367 -156 367 -174 c 0,11,12
 367 -267 367 -267 462 -267 c 0,13,14
 490 -267 490 -267 517 -264 c 128,-1,15
 544 -261 544 -261 570 -254 c 1,16,-1
 540 -412 l 1,17,18
 474 -425 474 -425 406 -425 c 0,19,20
 303 -425 303 -425 244.5 -366 c 128,-1,21
 186 -307 186 -307 186 -202 c 0,22,23
 186 -162 186 -162 195 -114 c 2,24,-1
 442 1148 l 1,25,26
 396 1119 396 1119 335 1119 c 0,27,28
 261 1119 261 1119 218.5 1163 c 128,-1,29
 176 1207 176 1207 176 1279 c 0,0,1
384 1415 m 0,30,31
 330 1415 330 1415 293.5 1377 c 128,-1,32
 257 1339 257 1339 257 1284 c 0,33,34
 257 1242 257 1242 280 1220 c 128,-1,35
 303 1198 303 1198 345 1198 c 0,36,37
 401 1198 401 1198 438.5 1235 c 128,-1,38
 476 1272 476 1272 476 1326 c 0,39,40
 476 1368 476 1368 452 1391.5 c 128,-1,41
 428 1415 428 1415 384 1415 c 0,30,31
EndSplineSet
EndChar

StartChar: uni01AB
Encoding: 427 427 364
Width: 569
Flags: W
LayerCount: 2
Fore
SplineSet
130 -425 m 0,0,1
 65 -425 65 -425 15 -404 c 1,2,-1
 44 -251 l 1,3,4
 92 -271 92 -271 123 -271 c 0,5,6
 186 -271 186 -271 217.5 -225 c 128,-1,7
 249 -179 249 -179 266 -81 c 2,8,-1
 276 -20 l 1,9,10
 191 -20 191 -20 142 31 c 128,-1,11
 93 82 93 82 93 166 c 0,12,13
 93 221 93 221 108 296 c 2,14,-1
 234 951 l 1,15,-1
 109 951 l 1,16,-1
 135 1082 l 1,17,-1
 262 1082 l 1,18,-1
 367 1324 l 1,19,-1
 487 1324 l 1,20,-1
 440 1082 l 1,21,-1
 640 1082 l 1,22,-1
 614 951 l 1,23,-1
 414 951 l 1,24,-1
 289 306 l 2,25,26
 277 246 277 246 277 211 c 0,27,28
 277 167 277 167 299.5 145 c 128,-1,29
 322 123 322 123 367 123 c 0,30,31
 406 123 406 123 467 137 c 1,32,-1
 423 -157 l 2,33,34
 403 -291 403 -291 329.5 -358 c 128,-1,35
 256 -425 256 -425 130 -425 c 0,0,1
EndSplineSet
EndChar

StartChar: uni01AC
Encoding: 428 428 365
Width: 1251
Flags: W
LayerCount: 2
Fore
SplineSet
858 1253 m 1,0,-1
 614 0 l 1,1,-1
 424 0 l 1,2,-1
 668 1253 l 1,3,-1
 466 1253 l 2,4,5
 282 1253 282 1253 282 1067 c 0,6,7
 283 1054 283 1054 284 1042 c 128,-1,8
 285 1030 285 1030 286 1017 c 1,9,-1
 138 1000 l 1,10,11
 130 1030 130 1030 130 1058 c 0,12,13
 130 1228 130 1228 220.5 1318.5 c 128,-1,14
 311 1409 311 1409 483 1409 c 2,15,-1
 1372 1409 l 1,16,-1
 1342 1253 l 1,17,-1
 858 1253 l 1,0,-1
EndSplineSet
EndChar

StartChar: uni01AD
Encoding: 429 429 366
Width: 569
Flags: W
LayerCount: 2
Fore
SplineSet
275 -20 m 0,0,1
 190 -20 190 -20 141.5 31 c 128,-1,2
 93 82 93 82 93 166 c 0,3,4
 93 221 93 221 108 296 c 2,5,-1
 234 951 l 1,6,-1
 109 951 l 1,7,-1
 135 1082 l 1,8,-1
 261 1082 l 1,9,-1
 289 1219 l 2,10,11
 315 1348 315 1348 390.5 1423 c 128,-1,12
 466 1498 466 1498 591 1498 c 0,13,14
 661 1498 661 1498 716 1477 c 1,15,-1
 687 1326 l 1,16,17
 639 1346 639 1346 608 1346 c 0,18,19
 545 1346 545 1346 509 1297.5 c 128,-1,20
 473 1249 473 1249 453 1149 c 2,21,-1
 440 1082 l 1,22,-1
 640 1082 l 1,23,-1
 614 951 l 1,24,-1
 414 951 l 1,25,-1
 289 306 l 2,26,27
 277 246 277 246 277 211 c 0,28,29
 277 167 277 167 299.5 145 c 128,-1,30
 322 123 322 123 367 123 c 0,31,32
 406 123 406 123 467 137 c 1,33,-1
 448 4 l 1,34,35
 349 -20 349 -20 275 -20 c 0,0,1
EndSplineSet
EndChar

StartChar: uni01AE
Encoding: 430 430 367
Width: 1251
Flags: W
LayerCount: 2
Fore
SplineSet
184 1253 m 1,0,-1
 214 1409 l 1,1,-1
 1372 1409 l 1,2,-1
 1342 1253 l 1,3,-1
 858 1253 l 1,4,-1
 593 -109 l 2,5,6
 585 -152 585 -152 585 -179 c 0,7,8
 585 -266 585 -266 666 -266 c 0,9,10
 725 -266 725 -266 776 -250 c 1,11,-1
 745 -408 l 1,12,13
 672 -425 672 -425 610 -425 c 0,14,15
 502 -425 502 -425 445.5 -369.5 c 128,-1,16
 389 -314 389 -314 389 -215 c 0,17,18
 389 -177 389 -177 401 -117 c 2,19,-1
 668 1253 l 1,20,-1
 184 1253 l 1,0,-1
EndSplineSet
EndChar

StartChar: Uhorn
Encoding: 431 431 368
Width: 1625
Flags: W
LayerCount: 2
Fore
SplineSet
654 -20 m 0,0,1
 422 -20 422 -20 287.5 100 c 128,-1,2
 153 220 153 220 153 431 c 0,3,4
 153 517 153 517 176 635 c 2,5,-1
 326 1409 l 1,6,-1
 517 1409 l 1,7,-1
 355 566 l 2,8,9
 338 476 338 476 338 423 c 0,10,11
 338 287 338 287 425.5 211 c 128,-1,12
 513 135 513 135 670 135 c 0,13,14
 862 135 862 135 977.5 236.5 c 128,-1,15
 1093 338 1093 338 1131 541 c 2,16,-1
 1299 1409 l 1,17,-1
 1489 1409 l 1,18,-1
 1411 1006 l 1,19,20
 1656 1052 1656 1052 1697 1242 c 1,21,-1
 1609 1242 l 1,22,-1
 1644 1409 l 1,23,-1
 1839 1409 l 1,24,-1
 1818 1308 l 2,25,26
 1782 1131 1782 1131 1680 1038 c 128,-1,27
 1578 945 1578 945 1393 915 c 1,28,-1
 1319 530 l 2,29,30
 1268 261 1268 261 1100 120.5 c 128,-1,31
 932 -20 932 -20 654 -20 c 0,0,1
EndSplineSet
EndChar

StartChar: uhorn
Encoding: 432 432 369
Width: 1298
Flags: W
LayerCount: 2
Fore
SplineSet
748 185 m 1,0,1
 665 70 665 70 581.5 25.5 c 128,-1,2
 498 -19 498 -19 383 -19 c 0,3,4
 235 -19 235 -19 160.5 54 c 128,-1,5
 86 127 86 127 86 265 c 0,6,7
 86 297 86 297 91.5 338 c 128,-1,8
 97 379 97 379 107 429 c 2,9,-1
 234 1082 l 1,10,-1
 415 1082 l 1,11,-1
 289 437 l 2,12,13
 271 349 271 349 271 287 c 0,14,15
 271 120 271 120 450 120 c 0,16,17
 534 120 534 120 605.5 163.5 c 128,-1,18
 677 207 677 207 728 287 c 128,-1,19
 779 367 779 367 800 476 c 2,20,-1
 918 1082 l 1,21,-1
 1098 1082 l 1,22,-1
 1018 672 l 1,23,24
 1118 699 1118 699 1187 761.5 c 128,-1,25
 1256 824 1256 824 1276 915 c 1,26,-1
 1188 915 l 1,27,-1
 1223 1082 l 1,28,-1
 1418 1082 l 1,29,-1
 1397 981 l 2,30,31
 1370 851 1370 851 1305 760 c 0,32,33
 1254 691 1254 691 1178.5 646 c 128,-1,34
 1103 601 1103 601 1000 579 c 1,35,36
 978 464 978 464 960 372 c 128,-1,37
 942 280 942 280 928 212 c 0,38,39
 915 144 915 144 906 91 c 128,-1,40
 897 38 897 38 893 0 c 1,41,-1
 723 0 l 1,42,43
 723 8 723 8 728 42 c 128,-1,44
 733 76 733 76 740 117 c 128,-1,45
 747 158 747 158 751 185 c 1,46,-1
 748 185 l 1,0,1
EndSplineSet
EndChar

StartChar: uni01B1
Encoding: 433 433 370
Width: 1558
Flags: W
LayerCount: 2
Fore
SplineSet
720 -21 m 0,0,1
 538 -21 538 -21 403 46 c 0,2,3
 267 113 267 113 194 238.5 c 128,-1,4
 121 364 121 364 121 533 c 0,5,6
 121 805 121 805 267.5 990.5 c 128,-1,7
 414 1176 414 1176 692 1264 c 1,8,9
 610 1259 610 1259 556 1256 c 128,-1,10
 502 1253 502 1253 477 1253 c 2,11,-1
 223 1253 l 1,12,-1
 253 1409 l 1,13,-1
 842 1409 l 1,14,-1
 799 1185 l 1,15,16
 558 1108 558 1108 434 946.5 c 128,-1,17
 310 785 310 785 310 554 c 0,18,19
 310 356 310 356 419.5 244.5 c 128,-1,20
 529 133 529 133 727 133 c 0,21,22
 880 133 880 133 1001 203 c 0,23,24
 1123 273 1123 273 1190.5 402.5 c 128,-1,25
 1258 532 1258 532 1258 708 c 0,26,27
 1258 871 1258 871 1193.5 986.5 c 128,-1,28
 1129 1102 1129 1102 986 1185 c 1,29,-1
 1031 1409 l 1,30,-1
 1578 1409 l 1,31,-1
 1548 1253 l 1,32,-1
 1345 1253 l 2,33,34
 1319 1253 1319 1253 1260 1256 c 128,-1,35
 1201 1259 1201 1259 1109 1264 c 1,36,37
 1271 1174 1271 1174 1360 1023.5 c 128,-1,38
 1449 873 1449 873 1449 688 c 0,39,40
 1449 482 1449 482 1356 320 c 0,41,42
 1263 157 1263 157 1095.5 68 c 128,-1,43
 928 -21 928 -21 720 -21 c 0,0,1
EndSplineSet
EndChar

StartChar: uni01B2
Encoding: 434 434 371
Width: 1479
Flags: W
LayerCount: 2
Fore
SplineSet
614 -20 m 0,0,1
 479 -20 479 -20 371 33 c 0,2,3
 265 86 265 86 207 185.5 c 128,-1,4
 149 285 149 285 149 422 c 0,5,6
 149 495 149 495 166 583 c 2,7,-1
 326 1409 l 1,8,-1
 517 1409 l 1,9,-1
 352 550 l 2,10,11
 339 488 339 488 339 424 c 0,12,13
 339 283 339 283 416 209 c 128,-1,14
 493 135 493 135 640 135 c 0,15,16
 766 135 766 135 870 213 c 128,-1,17
 974 291 974 291 1050 442 c 0,18,19
 1088 518 1088 518 1119.5 611 c 128,-1,20
 1151 704 1151 704 1174.5 797.5 c 128,-1,21
 1198 891 1198 891 1210.5 969.5 c 128,-1,22
 1223 1048 1223 1048 1223 1095 c 0,23,24
 1223 1178 1223 1178 1191 1220 c 128,-1,25
 1159 1262 1159 1262 1094 1262 c 0,26,27
 1039 1262 1039 1262 989 1252 c 1,28,-1
 1012 1409 l 1,29,30
 1080 1420 1080 1420 1143 1420 c 0,31,32
 1278 1420 1278 1420 1346 1338.5 c 128,-1,33
 1414 1257 1414 1257 1414 1108 c 0,34,35
 1414 1057 1414 1057 1401.5 968 c 128,-1,36
 1389 879 1389 879 1364 771 c 128,-1,37
 1339 663 1339 663 1302 553.5 c 128,-1,38
 1265 444 1265 444 1215 352 c 0,39,40
 1116 169 1116 169 962.5 74.5 c 128,-1,41
 809 -20 809 -20 614 -20 c 0,0,1
EndSplineSet
EndChar

StartChar: uni01B3
Encoding: 435 435 372
Width: 1469
Flags: W
LayerCount: 2
Fore
SplineSet
1670 1325 m 1,0,-1
 1569 1192 l 1,1,2
 1535 1219 1535 1219 1502 1238.5 c 128,-1,3
 1469 1258 1469 1258 1426 1258 c 0,4,5
 1388 1258 1388 1258 1359 1241.5 c 128,-1,6
 1330 1225 1330 1225 1294 1181 c 2,7,-1
 785 584 l 1,8,-1
 672 0 l 1,9,-1
 482 0 l 1,10,-1
 597 584 l 1,11,-1
 213 1409 l 1,12,-1
 409 1409 l 1,13,-1
 715 735 l 1,14,-1
 1157 1267 l 2,15,16
 1233 1357 1233 1357 1295.5 1389 c 128,-1,17
 1358 1421 1358 1421 1437 1421 c 0,18,19
 1565 1421 1565 1421 1670 1325 c 1,0,-1
EndSplineSet
EndChar

StartChar: uni01B4
Encoding: 436 436 373
Width: 1024
Flags: W
LayerCount: 2
Fore
SplineSet
9 -425 m 0,0,1
 -52 -425 -52 -425 -116 -411 c 1,2,-1
 -85 -277 l 1,3,4
 -47 -285 -47 -285 -3 -285 c 0,5,6
 83 -285 83 -285 155.5 -224.5 c 128,-1,7
 228 -164 228 -164 303 -33 c 2,8,-1
 329 12 l 1,9,-1
 112 1082 l 1,10,-1
 295 1082 l 1,11,-1
 407 485 l 2,12,13
 418 422 418 422 425.5 375 c 128,-1,14
 433 328 433 328 438 294.5 c 128,-1,15
 443 261 443 261 445.5 237.5 c 128,-1,16
 448 214 448 214 449 197 c 1,17,-1
 509 312 l 1,18,-1
 1018 1249 l 2,19,20
 1081 1366 1081 1366 1151 1423 c 0,21,22
 1194 1458 1194 1458 1244 1475 c 128,-1,23
 1294 1492 1294 1492 1355 1492 c 0,24,25
 1417 1492 1417 1492 1472.5 1469 c 128,-1,26
 1528 1446 1528 1446 1575 1399 c 1,27,-1
 1477 1271 l 1,28,29
 1421 1333 1421 1333 1352 1333 c 0,30,31
 1304 1333 1304 1333 1260.5 1298.5 c 128,-1,32
 1217 1264 1217 1264 1177 1196 c 2,33,-1
 504 0 l 2,34,35
 439 -115 439 -115 382.5 -194 c 128,-1,36
 326 -273 326 -273 273 -323 c 0,37,38
 212 -379 212 -379 148.5 -402 c 128,-1,39
 85 -425 85 -425 9 -425 c 0,0,1
EndSplineSet
EndChar

StartChar: uni01B5
Encoding: 437 437 374
Width: 1251
Flags: W
LayerCount: 2
Fore
SplineSet
1214 681 m 1,0,-1
 723 681 l 1,1,-1
 227 156 l 1,2,-1
 1112 156 l 1,3,-1
 1082 0 l 1,4,-1
 -40 0 l 1,5,-1
 -13 143 l 1,6,-1
 498 681 l 1,7,-1
 88 681 l 1,8,-1
 114 814 l 1,9,-1
 624 814 l 1,10,-1
 1041 1253 l 1,11,-1
 276 1253 l 1,12,-1
 306 1409 l 1,13,-1
 1308 1409 l 1,14,-1
 1281 1270 l 1,15,-1
 849 814 l 1,16,-1
 1240 814 l 1,17,-1
 1214 681 l 1,0,-1
EndSplineSet
EndChar

StartChar: uni01B6
Encoding: 438 438 375
Width: 1024
Flags: W
LayerCount: 2
Fore
SplineSet
883 139 m 1,0,-1
 856 0 l 1,1,-1
 -44 0 l 1,2,-1
 -17 137 l 1,3,-1
 327 484 l 1,4,-1
 48 484 l 1,5,-1
 74 617 l 1,6,-1
 457 617 l 1,7,-1
 780 943 l 1,8,-1
 179 943 l 1,9,-1
 206 1082 l 1,10,-1
 1030 1082 l 1,11,-1
 1003 945 l 1,12,-1
 677 617 l 1,13,-1
 978 617 l 1,14,-1
 952 484 l 1,15,-1
 546 484 l 1,16,-1
 204 139 l 1,17,-1
 883 139 l 1,0,-1
EndSplineSet
EndChar

StartChar: uni01B7
Encoding: 439 439 376
Width: 1251
Flags: W
LayerCount: 2
Fore
SplineSet
446 -426 m 0,0,1
 241 -426 241 -426 108 -334.5 c 128,-1,2
 -25 -243 -25 -243 -72 -65 c 1,3,-1
 96 -6 l 1,4,5
 136 -137 136 -137 214 -203 c 0,6,7
 260 -241 260 -241 318.5 -259 c 128,-1,8
 377 -277 377 -277 449 -277 c 0,9,10
 554 -277 554 -277 643.5 -236.5 c 128,-1,11
 733 -196 733 -196 799 -115 c 0,12,13
 864 -35 864 -35 895 67.5 c 128,-1,14
 926 170 926 170 926 269 c 0,15,16
 926 439 926 439 814.5 528.5 c 128,-1,17
 703 618 703 618 490 618 c 2,18,-1
 410 618 l 1,19,-1
 437 759 l 1,20,-1
 1033 1253 l 1,21,-1
 248 1253 l 1,22,-1
 279 1409 l 1,23,-1
 1297 1409 l 1,24,-1
 1265 1248 l 1,25,-1
 663 758 l 1,26,27
 885 733 885 733 1000.5 606 c 128,-1,28
 1116 479 1116 479 1116 268 c 0,29,30
 1116 126 1116 126 1070.5 -4 c 128,-1,31
 1025 -134 1025 -134 936 -230 c 0,32,33
 846 -326 846 -326 720 -376 c 128,-1,34
 594 -426 594 -426 446 -426 c 0,0,1
EndSplineSet
EndChar

StartChar: uni01B8
Encoding: 440 440 377
Width: 1251
Flags: W
LayerCount: 2
Fore
SplineSet
468 -426 m 0,0,1
 320 -426 320 -426 210.5 -368 c 128,-1,2
 101 -310 101 -310 40.5 -203 c 128,-1,3
 -20 -96 -20 -96 -20 50 c 0,4,5
 -20 246 -20 246 65 400 c 0,6,7
 150 555 150 555 307 647.5 c 128,-1,8
 464 740 464 740 668 758 c 1,9,-1
 251 1248 l 1,10,-1
 283 1409 l 1,11,-1
 1301 1409 l 1,12,-1
 1270 1253 l 1,13,-1
 457 1253 l 1,14,-1
 873 759 l 1,15,-1
 846 618 l 1,16,-1
 789 618 l 2,17,18
 598 618 598 618 459 549 c 128,-1,19
 320 480 320 480 245 353 c 128,-1,20
 170 226 170 226 170 52 c 0,21,22
 170 -103 170 -103 254.5 -190 c 128,-1,23
 339 -277 339 -277 482 -277 c 0,24,25
 762 -277 762 -277 934 -6 c 1,26,-1
 1074 -89 l 1,27,28
 993 -213 993 -213 904 -287 c 128,-1,29
 815 -361 815 -361 709 -393.5 c 128,-1,30
 603 -426 603 -426 468 -426 c 0,0,1
EndSplineSet
EndChar

StartChar: uni01B9
Encoding: 441 441 378
Width: 1024
Flags: W
LayerCount: 2
Fore
SplineSet
879 -48 m 1,0,1
 822 -238 822 -238 691 -332.5 c 128,-1,2
 560 -427 560 -427 354 -427 c 0,3,4
 228 -427 228 -427 133 -374 c 256,5,6
 38 -321 38 -321 -13.5 -225 c 128,-1,7
 -65 -129 -65 -129 -65 -9 c 0,8,9
 -65 135 -65 135 -4.5 250 c 128,-1,10
 56 365 56 365 169.5 441 c 128,-1,11
 283 517 283 517 441 541 c 1,12,-1
 143 906 l 1,13,-1
 177 1083 l 1,14,-1
 1060 1083 l 1,15,-1
 1033 942 l 1,16,-1
 322 942 l 1,17,-1
 648 548 l 1,18,-1
 620 411 l 1,19,-1
 579 411 l 2,20,21
 448 411 448 411 343 359 c 0,22,23
 237 307 237 307 178 212 c 128,-1,24
 119 117 119 117 119 -3 c 0,25,26
 119 -131 119 -131 187 -208.5 c 128,-1,27
 255 -286 255 -286 365 -286 c 0,28,29
 497 -286 497 -286 581 -227.5 c 128,-1,30
 665 -169 665 -169 713 -36 c 1,31,-1
 879 -48 l 1,0,1
EndSplineSet
EndChar

StartChar: uni01BA
Encoding: 442 442 379
Width: 1024
Flags: W
LayerCount: 2
Fore
SplineSet
896 -101 m 1,0,1
 751 -426 751 -426 321 -426 c 0,2,3
 265 -426 265 -426 213.5 -417.5 c 128,-1,4
 162 -409 162 -409 115 -392 c 0,5,6
 22 -359 22 -359 -30.5 -296 c 128,-1,7
 -83 -233 -83 -233 -83 -149 c 0,8,9
 -83 -83 -83 -83 -58 -32 c 128,-1,10
 -33 19 -33 19 12 58 c 0,11,12
 34 77 34 77 64.5 94.5 c 128,-1,13
 95 112 95 112 134 128 c 0,14,15
 214 160 214 160 385 199 c 0,16,17
 455 214 455 214 505 227.5 c 128,-1,18
 555 241 555 241 584 252 c 0,19,20
 643 275 643 275 674.5 304 c 128,-1,21
 706 333 706 333 706 375 c 0,22,23
 706 426 706 426 668 452 c 0,24,25
 637 473 637 473 577 487.5 c 128,-1,26
 517 502 517 502 426 503 c 2,27,-1
 324 505 l 1,28,-1
 351 644 l 1,29,-1
 765 942 l 1,30,-1
 159 942 l 1,31,-1
 186 1082 l 1,32,-1
 1054 1082 l 1,33,-1
 1031 963 l 1,34,-1
 566 637 l 1,35,36
 721 622 721 622 802 560.5 c 128,-1,37
 883 499 883 499 883 397 c 0,38,39
 883 322 883 322 850.5 264.5 c 128,-1,40
 818 207 818 207 753 167 c 0,41,42
 725 150 725 150 691 136.5 c 128,-1,43
 657 123 657 123 619 111 c 0,44,45
 576 98 576 98 527.5 86.5 c 128,-1,46
 479 75 479 75 427 63 c 0,47,48
 368 49 368 49 308 34 c 128,-1,49
 248 19 248 19 201 -5 c 0,50,51
 158 -27 158 -27 130.5 -59.5 c 128,-1,52
 103 -92 103 -92 103 -142 c 0,53,54
 103 -208 103 -208 164.5 -245.5 c 128,-1,55
 226 -283 226 -283 350 -283 c 0,56,57
 487 -283 487 -283 582 -232.5 c 128,-1,58
 677 -182 677 -182 729 -82 c 1,59,-1
 896 -101 l 1,0,1
EndSplineSet
EndChar

StartChar: uni01BB
Encoding: 443 443 380
Width: 1139
Flags: W
LayerCount: 2
Fore
SplineSet
949 153 m 1,0,-1
 920 0 l 1,1,-1
 -12 0 l 1,2,-1
 12 127 l 1,3,4
 67 220 67 220 136 295 c 0,5,6
 183 345 183 345 234.5 390.5 c 128,-1,7
 286 436 286 436 361 489 c 128,-1,8
 436 542 436 542 552 614 c 1,9,-1
 138 614 l 1,10,-1
 165 750 l 1,11,-1
 749 750 l 1,12,13
 840 824 840 824 880 899.5 c 128,-1,14
 920 975 920 975 920 1063 c 0,15,16
 920 1161 920 1161 857.5 1221.5 c 128,-1,17
 795 1282 795 1282 689 1282 c 0,18,19
 580 1282 580 1282 499 1222.5 c 128,-1,20
 418 1163 418 1163 381 1044 c 1,21,-1
 211 1081 l 1,22,23
 265 1251 265 1251 389 1340.5 c 128,-1,24
 513 1430 513 1430 700 1430 c 0,25,26
 822 1430 822 1430 914 1385.5 c 128,-1,27
 1006 1341 1006 1341 1057.5 1261.5 c 128,-1,28
 1109 1182 1109 1182 1109 1078 c 0,29,30
 1109 901 1109 901 966 750 c 1,31,-1
 1107 750 l 1,32,-1
 1080 614 l 1,33,-1
 810 614 l 1,34,-1
 753 575 l 2,35,36
 687 530 687 530 609.5 480.5 c 128,-1,37
 532 431 532 431 480 395 c 0,38,39
 401 340 401 340 333.5 280.5 c 128,-1,40
 266 221 266 221 222 153 c 1,41,-1
 949 153 l 1,0,-1
EndSplineSet
EndChar

StartChar: uni01BC
Encoding: 444 444 381
Width: 1045
Flags: W
LayerCount: 2
Fore
SplineSet
249 1409 m 1,0,-1
 1091 1409 l 1,1,-1
 1061 1253 l 1,2,-1
 575 1253 l 1,3,-1
 516 950 l 1,4,-1
 564 950 l 2,5,6
 772 950 772 950 886 846.5 c 128,-1,7
 1000 743 1000 743 1000 558 c 0,8,9
 1000 397 1000 397 929 260 c 0,10,11
 857 123 857 123 726.5 51.5 c 128,-1,12
 596 -20 596 -20 415 -20 c 0,13,14
 285 -20 285 -20 193 25 c 0,15,16
 3 116 3 116 -5 345 c 1,17,-1
 176 366 l 1,18,19
 185 240 185 240 249 181.5 c 128,-1,20
 313 123 313 123 426 123 c 0,21,22
 540 123 540 123 625 177 c 0,23,24
 711 230 711 230 760.5 331.5 c 128,-1,25
 810 433 810 433 810 547 c 0,26,27
 810 668 810 668 733 731.5 c 128,-1,28
 656 795 656 795 511 795 c 2,29,-1
 302 795 l 1,30,-1
 391 1253 l 1,31,-1
 219 1253 l 1,32,-1
 249 1409 l 1,0,-1
EndSplineSet
EndChar

StartChar: uni01BD
Encoding: 445 445 382
Width: 897
Flags: W
LayerCount: 2
Fore
SplineSet
364 113 m 0,0,1
 485 113 485 113 558.5 177.5 c 128,-1,2
 632 242 632 242 632 357 c 0,3,4
 632 457 632 457 566 503.5 c 128,-1,5
 500 550 500 550 370 550 c 2,6,-1
 213 550 l 1,7,-1
 289 942 l 1,8,-1
 117 942 l 1,9,-1
 144 1082 l 1,10,-1
 924 1082 l 1,11,-1
 897 942 l 1,12,-1
 451 942 l 1,13,-1
 402 688 l 1,14,-1
 446 688 l 2,15,16
 620 688 620 688 719 607 c 128,-1,17
 818 526 818 526 818 382 c 0,18,19
 818 224 818 224 730 121 c 0,20,21
 672 54 672 54 578.5 17 c 128,-1,22
 485 -20 485 -20 360 -20 c 0,23,24
 178 -20 178 -20 84 65 c 128,-1,25
 -10 150 -10 150 -10 311 c 1,26,-1
 160 323 l 1,27,28
 162 227 162 227 218 170 c 128,-1,29
 274 113 274 113 364 113 c 0,0,1
EndSplineSet
EndChar

StartChar: uni01BE
Encoding: 446 446 383
Width: 1024
Flags: W
LayerCount: 2
Fore
SplineSet
899 335 m 0,0,1
 899 221 899 221 845.5 141.5 c 128,-1,2
 792 62 792 62 687.5 21 c 128,-1,3
 583 -20 583 -20 429 -20 c 0,4,5
 230 -20 230 -20 132.5 47 c 128,-1,6
 35 114 35 114 22 254 c 1,7,-1
 183 284 l 1,8,9
 195 195 195 195 255.5 156 c 128,-1,10
 316 117 316 117 436 117 c 0,11,12
 576 117 576 117 648 170.5 c 128,-1,13
 720 224 720 224 720 321 c 0,14,15
 720 370 720 370 687.5 400.5 c 128,-1,16
 655 431 655 431 577 456 c 0,17,18
 394 512 394 512 342 546 c 0,19,20
 289 579 289 579 261.5 627.5 c 128,-1,21
 234 676 234 676 234 745 c 0,22,23
 234 753 234 753 234.5 762 c 128,-1,24
 235 771 235 771 236 779 c 256,25,26
 237 787 237 787 244.5 830 c 128,-1,27
 252 873 252 873 267 951 c 1,28,-1
 136 951 l 1,29,-1
 162 1082 l 1,30,-1
 294 1082 l 1,31,-1
 361 1429 l 1,32,-1
 555 1507 l 1,33,-1
 473 1082 l 1,34,-1
 658 1082 l 1,35,-1
 632 951 l 1,36,-1
 447 951 l 1,37,-1
 426 844 l 2,38,39
 416 800 416 800 416 761 c 0,40,41
 416 710 416 710 451.5 681.5 c 128,-1,42
 487 653 487 653 576 629 c 0,43,44
 644 610 644 610 692.5 592 c 128,-1,45
 741 574 741 574 772 555 c 0,46,47
 833 518 833 518 866 464.5 c 128,-1,48
 899 411 899 411 899 335 c 0,0,1
EndSplineSet
EndChar

StartChar: uni01BF
Encoding: 447 447 384
Width: 1139
Flags: W
LayerCount: 2
Fore
SplineSet
128 -425 m 1,0,-1
 -51 -425 l 1,1,-1
 242 1083 l 1,2,-1
 408 1083 l 1,3,4
 403 1041 403 1041 398.5 997.5 c 128,-1,5
 394 954 394 954 385 909 c 1,6,-1
 389 909 l 1,7,8
 452 1006 452 1006 545.5 1054 c 128,-1,9
 639 1102 639 1102 751 1102 c 0,10,11
 911 1102 911 1102 996 1016 c 128,-1,12
 1081 930 1081 930 1081 763 c 0,13,14
 1081 333 1081 333 629 60 c 0,15,16
 526 -2 526 -2 411.5 -45.5 c 128,-1,17
 297 -89 297 -89 186 -126 c 1,18,-1
 128 -425 l 1,0,-1
889 749 m 0,19,20
 889 963 889 963 686 963 c 0,21,22
 543 963 543 963 449 857 c 128,-1,23
 355 751 355 751 317 546 c 2,24,-1
 215 21 l 1,25,26
 470 111 470 111 608 216 c 0,27,28
 745 321 745 321 817 460 c 128,-1,29
 889 599 889 599 889 749 c 0,19,20
EndSplineSet
EndChar

StartChar: uni01C1
Encoding: 449 449 386
Width: 846
Flags: W
LayerCount: 2
Fore
SplineSet
529 1484 m 1,0,-1
 240 0 l 1,1,-1
 75 0 l 1,2,-1
 364 1484 l 1,3,-1
 529 1484 l 1,0,-1
852 1484 m 1,4,-1
 563 0 l 1,5,-1
 398 0 l 1,6,-1
 687 1484 l 1,7,-1
 852 1484 l 1,4,-1
EndSplineSet
EndChar

StartChar: uni01C2
Encoding: 450 450 387
Width: 1196
Flags: W
LayerCount: 2
Fore
SplineSet
654 416 m 1,0,-1
 573 0 l 1,1,-1
 399 0 l 1,2,-1
 480 416 l 1,3,-1
 84 416 l 1,4,-1
 114 569 l 1,5,-1
 510 569 l 1,6,-1
 570 877 l 1,7,-1
 174 877 l 1,8,-1
 203 1030 l 1,9,-1
 599 1030 l 1,10,-1
 688 1484 l 1,11,-1
 862 1484 l 1,12,-1
 773 1030 l 1,13,-1
 1171 1030 l 1,14,-1
 1142 877 l 1,15,-1
 744 877 l 1,16,-1
 684 569 l 1,17,-1
 1082 569 l 1,18,-1
 1052 416 l 1,19,-1
 654 416 l 1,0,-1
EndSplineSet
EndChar

StartChar: uni01E4
Encoding: 484 484 421
Width: 1593
Flags: W
LayerCount: 2
Fore
SplineSet
1454 438 m 1,0,-1
 1584 438 l 1,1,-1
 1559 308 l 1,2,-1
 1428 308 l 1,3,-1
 1409 210 l 1,4,5
 1269 90 1269 90 1110.5 35 c 128,-1,6
 952 -20 952 -20 761 -20 c 0,7,8
 456 -20 456 -20 288 136 c 128,-1,9
 120 292 120 292 120 573 c 0,10,11
 120 823 120 823 225 1019 c 0,12,13
 330 1216 330 1216 522.5 1323 c 128,-1,14
 715 1430 715 1430 963 1430 c 0,15,16
 1185 1430 1185 1430 1327.5 1346 c 128,-1,17
 1470 1262 1470 1262 1524 1098 c 1,18,-1
 1331 1044 l 1,19,20
 1294 1159 1294 1159 1197 1216.5 c 128,-1,21
 1100 1274 1100 1274 951 1274 c 0,22,23
 760 1274 760 1274 615 1188 c 256,24,25
 470 1102 470 1102 393 943.5 c 128,-1,26
 316 785 316 785 316 577 c 0,27,28
 316 366 316 366 434 250.5 c 128,-1,29
 552 135 552 135 767 135 c 0,30,31
 908 135 908 135 1036.5 176 c 128,-1,32
 1165 217 1165 217 1250 291 c 1,33,-1
 1254 308 l 1,34,-1
 835 308 l 1,35,-1
 860 438 l 1,36,-1
 1279 438 l 1,37,-1
 1305 568 l 1,38,-1
 884 568 l 1,39,-1
 916 728 l 1,40,-1
 1513 728 l 1,41,-1
 1454 438 l 1,0,-1
EndSplineSet
EndChar

StartChar: uni01E5
Encoding: 485 485 422
Width: 1139
Flags: W
LayerCount: 2
Fore
SplineSet
879 -93 m 1,0,1
 823 -264 823 -264 705 -344.5 c 128,-1,2
 587 -425 587 -425 397 -425 c 0,3,4
 229 -425 229 -425 131.5 -365.5 c 128,-1,5
 34 -306 34 -306 7 -188 c 1,6,-1
 172 -151 l 1,7,8
 207 -288 207 -288 401 -288 c 0,9,10
 516 -288 516 -288 587.5 -241.5 c 128,-1,11
 659 -195 659 -195 698 -93 c 1,12,-1
 -59 -93 l 1,13,-1
 -41 0 l 1,14,-1
 725 0 l 1,15,16
 739 68 739 68 752.5 136 c 128,-1,17
 766 204 766 204 779 271 c 1,18,-1
 777 271 l 1,19,20
 703 161 703 161 621 112 c 0,21,22
 577 86 577 86 528.5 74 c 128,-1,23
 480 62 480 62 424 62 c 0,24,25
 269 62 269 62 173 157 c 128,-1,26
 77 252 77 252 77 406 c 0,27,28
 77 490 77 490 94 583.5 c 128,-1,29
 111 677 111 677 142.5 763.5 c 128,-1,30
 174 850 174 850 217 913 c 0,31,32
 282 1008 282 1008 374 1054.5 c 128,-1,33
 466 1101 466 1101 588 1101 c 0,34,35
 707 1101 707 1101 789.5 1046 c 128,-1,36
 872 991 872 991 900 897 c 1,37,-1
 902 897 l 1,38,39
 907 922 907 922 917 963.5 c 128,-1,40
 927 1005 927 1005 937 1040.5 c 128,-1,41
 947 1076 947 1076 950 1082 c 1,42,-1
 1121 1082 l 1,43,-1
 1114 1052 l 2,44,45
 1103 1008 1103 1008 1092.5 959.5 c 128,-1,46
 1082 911 1082 911 1072 858 c 2,47,-1
 905 0 l 1,48,-1
 971 0 l 1,49,-1
 953 -93 l 1,50,-1
 879 -93 l 1,0,1
266 422 m 0,51,52
 266 311 266 311 322 253 c 128,-1,53
 378 195 378 195 480 195 c 0,54,55
 584 195 584 195 669 264 c 0,56,57
 755 332 755 332 801 452.5 c 128,-1,58
 847 573 847 573 847 704 c 0,59,60
 847 829 847 829 783 898.5 c 128,-1,61
 719 968 719 968 607 968 c 0,62,63
 489 968 489 968 419 901 c 0,64,65
 372 856 372 856 337.5 772.5 c 128,-1,66
 303 689 303 689 284.5 595 c 128,-1,67
 266 501 266 501 266 422 c 0,51,52
EndSplineSet
EndChar

StartChar: uni01F6
Encoding: 502 502 439
Width: 2118
Flags: W
LayerCount: 2
Fore
SplineSet
1273 295 m 0,0,1
 1273 117 1273 117 1479 117 c 0,2,3
 1605 117 1605 117 1675 180.5 c 128,-1,4
 1745 244 1745 244 1775 394 c 2,5,-1
 1908 1082 l 1,6,-1
 2089 1082 l 1,7,-1
 1950 365 l 2,8,9
 1910 162 1910 162 1792.5 71 c 128,-1,10
 1675 -20 1675 -20 1468 -20 c 0,11,12
 1284 -20 1284 -20 1185 60.5 c 128,-1,13
 1086 141 1086 141 1086 288 c 0,14,15
 1086 335 1086 335 1095 381 c 0,16,17
 1109 449 1109 449 1122 517 c 128,-1,18
 1135 585 1135 585 1148 653 c 1,19,-1
 381 653 l 1,20,-1
 254 0 l 1,21,-1
 63 0 l 1,22,-1
 337 1409 l 1,23,-1
 528 1409 l 1,24,-1
 412 813 l 1,25,-1
 1179 813 l 1,26,-1
 1295 1409 l 1,27,-1
 1481 1409 l 1,28,-1
 1284 394 l 2,29,30
 1273 333 1273 333 1273 295 c 0,0,1
EndSplineSet
EndChar

StartChar: uni01F7
Encoding: 503 503 440
Width: 1265
Flags: W
LayerCount: 2
Fore
SplineSet
167 -425 m 1,0,-1
 -24 -425 l 1,1,-1
 333 1409 l 1,2,-1
 517 1409 l 1,3,-1
 483 1239 l 1,4,5
 568 1334 568 1334 666 1382 c 128,-1,6
 764 1430 764 1430 874 1430 c 0,7,8
 1060 1430 1060 1430 1160.5 1330 c 128,-1,9
 1261 1230 1261 1230 1261 1047 c 0,10,11
 1261 817 1261 817 1123 574 c 0,12,13
 1031 412 1031 412 890 267.5 c 128,-1,14
 749 123 749 123 577 12.5 c 128,-1,15
 405 -98 405 -98 219 -160 c 1,16,-1
 167 -425 l 1,0,-1
1066 1038 m 0,17,18
 1066 1150 1066 1150 1008 1212.5 c 128,-1,19
 950 1275 950 1275 832 1275 c 0,20,21
 736 1275 736 1275 650 1224 c 256,22,23
 564 1173 564 1173 503 1083 c 128,-1,24
 442 993 442 993 422 890 c 2,25,-1
 252 10 l 1,26,27
 458 87 458 87 650 264 c 0,28,29
 779 382 779 382 872 517.5 c 128,-1,30
 965 653 965 653 1015.5 787.5 c 128,-1,31
 1066 922 1066 922 1066 1038 c 0,17,18
EndSplineSet
EndChar

StartChar: uni021C
Encoding: 540 540 477
Width: 1116
Flags: W
LayerCount: 2
Fore
SplineSet
373 653 m 1,0,1
 558 702 558 702 669 755 c 0,2,3
 777 808 777 808 841 881.5 c 128,-1,4
 905 955 905 955 905 1055 c 0,5,6
 905 1152 905 1152 841.5 1210.5 c 128,-1,7
 778 1269 778 1269 669 1269 c 0,8,9
 556 1269 556 1269 471.5 1229 c 128,-1,10
 387 1189 387 1189 302 1077 c 1,11,-1
 168 1166 l 1,12,13
 283 1312 283 1312 402.5 1371.5 c 128,-1,14
 522 1431 522 1431 689 1431 c 0,15,16
 812 1431 812 1431 903.5 1384.5 c 128,-1,17
 995 1338 995 1338 1045.5 1256.5 c 128,-1,18
 1096 1175 1096 1175 1096 1070 c 0,19,20
 1096 952 1096 952 1042 863 c 128,-1,21
 988 774 988 774 878 702 c 1,22,23
 938 645 938 645 967.5 569.5 c 128,-1,24
 997 494 997 494 997 410 c 0,25,26
 997 311 997 311 970 223 c 128,-1,27
 943 135 943 135 888 58 c 0,28,29
 816 -44 816 -44 696.5 -128.5 c 128,-1,30
 577 -213 577 -213 390.5 -286 c 128,-1,31
 204 -359 204 -359 -71 -427 c 1,32,-1
 -38 -257 l 1,33,34
 174 -204 174 -204 332 -138.5 c 128,-1,35
 490 -73 490 -73 594 9 c 0,36,37
 805 171 805 171 805 406 c 0,38,39
 805 471 805 471 785 526.5 c 128,-1,40
 765 582 765 582 724 620 c 1,41,42
 645 585 645 585 549.5 552 c 128,-1,43
 454 519 454 519 341 488 c 1,44,-1
 373 653 l 1,0,1
EndSplineSet
EndChar

StartChar: uni021D
Encoding: 541 541 478
Width: 894
Flags: W
LayerCount: 2
Fore
SplineSet
252 472 m 1,0,1
 343 498 343 498 408 521.5 c 128,-1,2
 473 545 473 545 512 567 c 0,3,4
 590 610 590 610 635 669.5 c 128,-1,5
 680 729 680 729 680 815 c 0,6,7
 680 888 680 888 633.5 928.5 c 128,-1,8
 587 969 587 969 511 969 c 0,9,10
 427 969 427 969 363 922 c 128,-1,11
 299 875 299 875 248 775 c 1,12,-1
 92 825 l 1,13,14
 152 964 152 964 256.5 1033 c 128,-1,15
 361 1102 361 1102 522 1102 c 0,16,17
 682 1102 682 1102 772.5 1028 c 128,-1,18
 863 954 863 954 863 824 c 0,19,20
 863 712 863 712 806 630 c 128,-1,21
 749 548 749 548 643 484 c 1,22,23
 694 434 694 434 723.5 367 c 128,-1,24
 753 300 753 300 753 221 c 0,25,26
 753 38 753 38 633 -98 c 0,27,28
 536 -207 536 -207 355 -289 c 128,-1,29
 174 -371 174 -371 -96 -426 c 1,30,-1
 -67 -271 l 1,31,32
 185 -209 185 -209 313 -141 c 0,33,34
 444 -72 444 -72 507 21.5 c 128,-1,35
 570 115 570 115 570 233 c 0,36,37
 570 285 570 285 554 329.5 c 128,-1,38
 538 374 538 374 506 416 c 1,39,40
 444 390 444 390 373 366.5 c 128,-1,41
 302 343 302 343 223 321 c 1,42,-1
 252 472 l 1,0,1
EndSplineSet
EndChar

StartChar: uni0220
Encoding: 544 544 481
Width: 1370
Flags: W
LayerCount: 2
Fore
SplineSet
837 -425 m 1,0,-1
 1101 924 l 2,1,2
 1115 997 1115 997 1115 1048 c 0,3,4
 1115 1157 1115 1157 1061 1215.5 c 128,-1,5
 1007 1274 1007 1274 883 1274 c 0,6,7
 788 1274 788 1274 689 1220 c 0,8,9
 589 1166 589 1166 518 1076.5 c 128,-1,10
 447 987 447 987 428 891 c 2,11,-1
 255 0 l 1,12,-1
 64 0 l 1,13,-1
 276 1092 l 1,14,-1
 333 1409 l 1,15,-1
 516 1409 l 1,16,17
 510 1363 510 1363 499.5 1300.5 c 128,-1,18
 489 1238 489 1238 475 1158 c 1,19,-1
 479 1158 l 1,20,21
 569 1295 569 1295 686.5 1362 c 128,-1,22
 804 1429 804 1429 939 1429 c 0,23,24
 1114 1429 1114 1429 1209 1340 c 128,-1,25
 1304 1251 1304 1251 1304 1072 c 0,26,27
 1304 998 1304 998 1287 904 c 2,28,-1
 1027 -425 l 1,29,-1
 837 -425 l 1,0,-1
EndSplineSet
EndChar

StartChar: uni0221
Encoding: 545 545 482
Width: 1286
Flags: W
LayerCount: 2
Fore
SplineSet
401 -21 m 0,0,1
 244 -21 244 -21 156.5 73.5 c 128,-1,2
 69 168 69 168 69 333 c 0,3,4
 69 535 69 535 131 727 c 0,5,6
 193 918 193 918 304 1009.5 c 128,-1,7
 415 1101 415 1101 588 1101 c 0,8,9
 711 1101 711 1101 788.5 1049 c 128,-1,10
 866 997 866 997 898 903 c 1,11,-1
 903 903 l 1,12,13
 910 944 910 944 917 984.5 c 128,-1,14
 924 1025 924 1025 931 1065 c 0,15,16
 951 1170 951 1170 972 1274.5 c 128,-1,17
 993 1379 993 1379 1013 1484 c 1,18,-1
 1193 1484 l 1,19,-1
 948 223 l 1,20,-1
 918 64 l 1,21,22
 982 87 982 87 1036 87 c 0,23,24
 1150 87 1150 87 1212 24.5 c 128,-1,25
 1274 -38 1274 -38 1274 -146 c 0,26,27
 1274 -277 1274 -277 1193.5 -351 c 128,-1,28
 1113 -425 1113 -425 970 -425 c 0,29,30
 865 -425 865 -425 800.5 -372.5 c 128,-1,31
 736 -320 736 -320 716 -231 c 1,32,33
 676 -268 676 -268 632 -312.5 c 128,-1,34
 588 -357 588 -357 541 -407 c 1,35,-1
 440 -309 l 1,36,37
 508 -232 508 -232 578 -165.5 c 128,-1,38
 648 -99 648 -99 721 -44 c 1,39,-1
 729 -6 l 1,40,-1
 737 37 l 2,41,42
 743 70 743 70 749.5 103 c 128,-1,43
 756 136 756 136 762 169 c 1,44,-1
 759 169 l 1,45,46
 685 68 685 68 602 23.5 c 128,-1,47
 519 -21 519 -21 401 -21 c 0,0,1
453 118 m 0,48,49
 645 118 645 118 742 281 c 0,50,51
 775 335 775 335 798.5 409.5 c 128,-1,52
 822 484 822 484 834.5 562 c 128,-1,53
 847 640 847 640 847 704 c 0,54,55
 847 829 847 829 783.5 898.5 c 128,-1,56
 720 968 720 968 607 968 c 0,57,58
 483 968 483 968 411 893 c 0,59,60
 363 843 363 843 328.5 749 c 128,-1,61
 294 655 294 655 275.5 551 c 128,-1,62
 257 447 257 447 257 365 c 0,63,64
 257 242 257 242 304 180 c 128,-1,65
 351 118 351 118 453 118 c 0,48,49
981 -281 m 0,66,67
 1038 -281 1038 -281 1076 -248.5 c 128,-1,68
 1114 -216 1114 -216 1114 -155 c 0,69,70
 1114 -110 1114 -110 1088 -84 c 128,-1,71
 1062 -58 1062 -58 1018 -58 c 0,72,73
 947 -58 947 -58 877 -107 c 1,74,-1
 872 -161 l 1,75,76
 872 -216 872 -216 901.5 -248.5 c 128,-1,77
 931 -281 931 -281 981 -281 c 0,66,67
EndSplineSet
EndChar

StartChar: uni0222
Encoding: 546 546 483
Width: 1238
Flags: W
LayerCount: 2
Fore
SplineSet
820 1430 m 1,0,1
 1013 1424 1013 1424 1117.5 1342 c 128,-1,2
 1222 1260 1222 1260 1222 1114 c 0,3,4
 1222 971 1222 971 1128.5 870 c 128,-1,5
 1035 769 1035 769 884 740 c 1,6,-1
 883 736 l 1,7,8
 1000 713 1000 713 1065 638 c 128,-1,9
 1130 563 1130 563 1130 447 c 0,10,11
 1130 288 1130 288 1040 175 c 0,12,13
 966 81 966 81 836.5 30.5 c 128,-1,14
 707 -20 707 -20 534 -20 c 0,15,16
 311 -20 311 -20 189 74.5 c 128,-1,17
 67 169 67 169 67 333 c 0,18,19
 67 493 67 493 166 601.5 c 128,-1,20
 265 710 265 710 442 738 c 1,21,-1
 443 742 l 1,22,23
 222 805 222 805 222 971 c 0,24,25
 222 1124 222 1124 357.5 1208 c 128,-1,26
 493 1292 493 1292 733 1292 c 1,27,-1
 708 1162 l 1,28,29
 556 1159 556 1159 480.5 1106 c 128,-1,30
 405 1053 405 1053 405 963 c 0,31,32
 405 888 405 888 475.5 848 c 128,-1,33
 546 808 546 808 678 808 c 0,34,35
 795 808 795 808 874 848 c 256,36,37
 953 888 953 888 994 956 c 128,-1,38
 1035 1024 1035 1024 1035 1108 c 0,39,40
 1035 1189 1035 1189 977.5 1240 c 128,-1,41
 920 1291 920 1291 794 1296 c 1,42,-1
 820 1430 l 1,0,1
548 120 m 0,43,44
 734 120 734 120 839 206 c 128,-1,45
 944 292 944 292 944 448 c 0,46,47
 944 557 944 557 869.5 614.5 c 128,-1,48
 795 672 795 672 649 672 c 0,49,50
 531 672 531 672 442 632 c 0,51,52
 354 592 354 592 303.5 518.5 c 128,-1,53
 253 445 253 445 253 348 c 0,54,55
 253 235 253 235 329 177.5 c 128,-1,56
 405 120 405 120 548 120 c 0,43,44
EndSplineSet
EndChar

StartChar: uni0223
Encoding: 547 547 484
Width: 1238
Flags: W
LayerCount: 2
Fore
SplineSet
688 874 m 0,0,1
 780 874 780 874 850 912 c 0,2,3
 918 950 918 950 958 1025 c 128,-1,4
 998 1100 998 1100 998 1188 c 0,5,6
 998 1310 998 1310 892 1377 c 1,7,-1
 982 1490 l 1,8,9
 1081 1438 1081 1438 1130.5 1362.5 c 128,-1,10
 1180 1287 1180 1287 1180 1189 c 0,11,12
 1180 1050 1180 1050 1098 948 c 128,-1,13
 1016 846 1016 846 871 803 c 1,14,-1
 870 799 l 1,15,16
 973 771 973 771 1030 692 c 128,-1,17
 1087 613 1087 613 1087 501 c 0,18,19
 1087 323 1087 323 1002 198 c 0,20,21
 932 94 932 94 808.5 37 c 128,-1,22
 685 -20 685 -20 520 -20 c 0,23,24
 320 -20 320 -20 208 78 c 128,-1,25
 96 176 96 176 96 346 c 0,26,27
 96 465 96 465 143 564 c 0,28,29
 190 662 190 662 272.5 727.5 c 128,-1,30
 355 793 355 793 461 818 c 1,31,-1
 462 822 l 1,32,33
 371 859 371 859 326 922 c 128,-1,34
 281 985 281 985 281 1075 c 0,35,36
 281 1217 281 1217 365.5 1320.5 c 128,-1,37
 450 1424 450 1424 619 1490 c 1,38,-1
 683 1377 l 1,39,40
 573 1324 573 1324 517.5 1248 c 128,-1,41
 462 1172 462 1172 462 1073 c 0,42,43
 462 978 462 978 522 926 c 128,-1,44
 582 874 582 874 688 874 c 0,0,1
648 743 m 0,45,46
 539 743 539 743 457 691 c 0,47,48
 374 639 374 639 327.5 548 c 128,-1,49
 281 457 281 457 281 351 c 0,50,51
 281 236 281 236 345.5 178.5 c 128,-1,52
 410 121 410 121 539 121 c 0,53,54
 653 121 653 121 735 170 c 0,55,56
 818 218 818 218 862.5 304.5 c 128,-1,57
 907 391 907 391 907 502 c 0,58,59
 907 612 907 612 837.5 677.5 c 128,-1,60
 768 743 768 743 648 743 c 0,45,46
EndSplineSet
EndChar

StartChar: uni0224
Encoding: 548 548 485
Width: 1251
Flags: W
LayerCount: 2
Fore
SplineSet
1079 -59 m 0,0,1
 1079 -93 1079 -93 1072.5 -127.5 c 128,-1,2
 1066 -162 1066 -162 1053.5 -196.5 c 128,-1,3
 1041 -231 1041 -231 1021 -266 c 1,4,-1
 878 -221 l 1,5,6
 918 -147 918 -147 918 -93 c 0,7,8
 918 0 918 0 791 0 c 2,9,-1
 -40 0 l 1,10,-1
 -13 143 l 1,11,-1
 1041 1253 l 1,12,-1
 276 1253 l 1,13,-1
 306 1409 l 1,14,-1
 1308 1409 l 1,15,-1
 1281 1270 l 1,16,-1
 227 156 l 1,17,-1
 833 156 l 2,18,19
 948 156 948 156 1013.5 100.5 c 128,-1,20
 1079 45 1079 45 1079 -59 c 0,0,1
EndSplineSet
EndChar

StartChar: uni0225
Encoding: 549 549 486
Width: 1024
Flags: W
LayerCount: 2
Fore
SplineSet
916 -79 m 0,0,1
 916 -139 916 -139 901 -182 c 128,-1,2
 886 -225 886 -225 863 -266 c 1,3,-1
 720 -221 l 1,4,5
 735 -193 735 -193 747.5 -164 c 128,-1,6
 760 -135 760 -135 760 -98 c 0,7,8
 760 -49 760 -49 728.5 -24.5 c 128,-1,9
 697 0 697 0 633 0 c 2,10,-1
 -44 0 l 1,11,-1
 -17 137 l 1,12,-1
 780 943 l 1,13,-1
 179 943 l 1,14,-1
 206 1082 l 1,15,-1
 1030 1082 l 1,16,-1
 1003 945 l 1,17,-1
 204 139 l 1,18,-1
 670 139 l 2,19,20
 785 139 785 139 850.5 82 c 128,-1,21
 916 25 916 25 916 -79 c 0,0,1
EndSplineSet
EndChar

StartChar: uni0234
Encoding: 564 564 501
Width: 602
Flags: W
LayerCount: 2
Fore
SplineSet
577 -146 m 0,0,1
 577 -277 577 -277 496.5 -351 c 128,-1,2
 416 -425 416 -425 273 -425 c 0,3,4
 168 -425 168 -425 103.5 -372.5 c 128,-1,5
 39 -320 39 -320 19 -231 c 1,6,7
 -21 -268 -21 -268 -65 -312.5 c 128,-1,8
 -109 -357 -109 -357 -156 -407 c 1,9,-1
 -257 -309 l 1,10,11
 -189 -232 -189 -232 -119 -165.5 c 128,-1,12
 -49 -99 -49 -99 24 -44 c 1,13,14
 26 -31 26 -31 29 -19 c 128,-1,15
 32 -7 32 -7 34 6 c 0,16,17
 36 18 36 18 38.5 29.5 c 128,-1,18
 41 41 41 41 43 53 c 2,19,-1
 321 1484 l 1,20,-1
 501 1484 l 1,21,-1
 224 65 l 1,22,23
 281 87 281 87 339 87 c 0,24,25
 453 87 453 87 515 24.5 c 128,-1,26
 577 -38 577 -38 577 -146 c 0,0,1
284 -281 m 0,27,28
 341 -281 341 -281 379 -248.5 c 128,-1,29
 417 -216 417 -216 417 -155 c 0,30,31
 417 -110 417 -110 391 -84 c 128,-1,32
 365 -58 365 -58 321 -58 c 0,33,34
 250 -58 250 -58 180 -107 c 1,35,-1
 175 -161 l 1,36,37
 175 -216 175 -216 204.5 -248.5 c 128,-1,38
 234 -281 234 -281 284 -281 c 0,27,28
EndSplineSet
EndChar

StartChar: uni0235
Encoding: 565 565 502
Width: 1288
Flags: W
LayerCount: 2
Fore
SplineSet
427 -309 m 1,0,1
 496 -230 496 -230 566.5 -164 c 128,-1,2
 637 -98 637 -98 708 -43 c 1,3,4
 710 -32 710 -32 712 -22 c 128,-1,5
 714 -12 714 -12 716 -2 c 0,6,7
 718 9 718 9 720.5 20 c 128,-1,8
 723 31 723 31 725 42 c 2,9,-1
 843 645 l 2,10,11
 861 734 861 734 861 795 c 0,12,13
 861 962 861 962 682 962 c 0,14,15
 598 962 598 962 526.5 918.5 c 128,-1,16
 455 875 455 875 404.5 795.5 c 128,-1,17
 354 716 354 716 332 606 c 2,18,-1
 214 0 l 1,19,-1
 34 0 l 1,20,-1
 200 851 l 2,21,22
 210 898 210 898 219.5 956 c 128,-1,23
 229 1014 229 1014 239 1082 c 1,24,-1
 409 1082 l 1,25,26
 409 1075 409 1075 404 1040.5 c 128,-1,27
 399 1006 399 1006 392.5 965.5 c 128,-1,28
 386 925 386 925 381 897 c 1,29,-1
 384 897 l 1,30,31
 467 1012 467 1012 550.5 1056.5 c 128,-1,32
 634 1101 634 1101 749 1101 c 0,33,34
 897 1101 897 1101 971.5 1028 c 128,-1,35
 1046 955 1046 955 1046 817 c 0,36,37
 1046 796 1046 796 1043.5 770.5 c 128,-1,38
 1041 745 1041 745 1036.5 716 c 128,-1,39
 1032 687 1032 687 1025 653 c 2,40,-1
 910 65 l 1,41,42
 967 87 967 87 1023 87 c 0,43,44
 1137 87 1137 87 1199 24.5 c 128,-1,45
 1261 -38 1261 -38 1261 -146 c 0,46,47
 1261 -277 1261 -277 1180.5 -351 c 128,-1,48
 1100 -425 1100 -425 957 -425 c 0,49,50
 852 -425 852 -425 787.5 -372.5 c 128,-1,51
 723 -320 723 -320 703 -231 c 1,52,53
 663 -268 663 -268 619 -312.5 c 128,-1,54
 575 -357 575 -357 528 -407 c 1,55,-1
 427 -309 l 1,0,1
968 -281 m 0,56,57
 1025 -281 1025 -281 1063 -248.5 c 128,-1,58
 1101 -216 1101 -216 1101 -155 c 0,59,60
 1101 -110 1101 -110 1075 -84 c 128,-1,61
 1049 -58 1049 -58 1005 -58 c 0,62,63
 934 -58 934 -58 864 -107 c 1,64,-1
 859 -161 l 1,65,66
 859 -216 859 -216 888.5 -248.5 c 128,-1,67
 918 -281 918 -281 968 -281 c 0,56,57
EndSplineSet
EndChar

StartChar: uni0236
Encoding: 566 566 503
Width: 712
Flags: W
LayerCount: 2
Fore
SplineSet
-160 96 m 1,0,1
 -24 250 -24 250 120 360 c 1,2,3
 122 369 122 369 124 378.5 c 128,-1,4
 126 388 126 388 127 397 c 0,5,6
 129 407 129 407 131 416.5 c 128,-1,7
 133 426 133 426 135 436 c 2,8,-1
 234 951 l 1,9,-1
 109 951 l 1,10,-1
 135 1082 l 1,11,-1
 262 1082 l 1,12,-1
 367 1324 l 1,13,-1
 487 1324 l 1,14,-1
 440 1082 l 1,15,-1
 640 1082 l 1,16,-1
 614 951 l 1,17,-1
 414 951 l 1,18,-1
 322 470 l 1,19,20
 385 492 385 492 436 492 c 0,21,22
 550 492 550 492 612 429.5 c 128,-1,23
 674 367 674 367 674 259 c 0,24,25
 674 127 674 127 594 53.5 c 128,-1,26
 514 -20 514 -20 372 -20 c 0,27,28
 263 -20 263 -20 199 28.5 c 128,-1,29
 135 77 135 77 116 174 c 1,30,31
 76 137 76 137 32 92.5 c 128,-1,32
 -12 48 -12 48 -59 -2 c 1,33,-1
 -160 96 l 1,0,1
388 124 m 0,34,35
 445 124 445 124 479.5 156.5 c 128,-1,36
 514 189 514 189 514 250 c 0,37,38
 514 295 514 295 488 321 c 128,-1,39
 462 347 462 347 418 347 c 0,40,41
 356 347 356 347 289 301 c 1,42,43
 282 270 282 270 282 244 c 0,44,45
 282 186 282 186 310.5 155 c 128,-1,46
 339 124 339 124 388 124 c 0,34,35
EndSplineSet
EndChar

StartChar: uni0237
Encoding: 567 567 504
Width: 455
Flags: W
LayerCount: 2
Fore
SplineSet
-100 -425 m 0,0,1
 -153 -425 -153 -425 -229 -411 c 1,2,-1
 -206 -275 l 1,3,4
 -180 -279 -180 -279 -159.5 -281 c 128,-1,5
 -139 -283 -139 -283 -123 -283 c 0,6,7
 -64 -283 -64 -283 -34.5 -241 c 128,-1,8
 -5 -199 -5 -199 13 -107 c 2,9,-1
 244 1082 l 1,10,-1
 424 1082 l 1,11,-1
 187 -134 l 2,12,13
 156 -292 156 -292 86 -358.5 c 128,-1,14
 16 -425 16 -425 -100 -425 c 0,0,1
EndSplineSet
EndChar

StartChar: uni0238
Encoding: 568 568 505
Width: 1809
Flags: W
LayerCount: 2
Fore
SplineSet
1753 748 m 0,0,1
 1753 647 1753 647 1738 548.5 c 128,-1,2
 1723 450 1723 450 1692 355 c 0,3,4
 1631 165 1631 165 1519 72.5 c 128,-1,5
 1407 -20 1407 -20 1234 -20 c 0,6,7
 1115 -20 1115 -20 1038.5 29.5 c 128,-1,8
 962 79 962 79 928 177 c 1,9,-1
 925 177 l 1,10,-1
 881 0 l 1,11,-1
 716 0 l 1,12,-1
 746 160 l 1,13,-1
 741 160 l 1,14,15
 668 65 668 65 587 22 c 128,-1,16
 506 -21 506 -21 388 -21 c 0,17,18
 231 -21 231 -21 143.5 73.5 c 128,-1,19
 56 168 56 168 56 333 c 0,20,21
 56 535 56 535 118 727 c 0,22,23
 180 918 180 918 291 1009.5 c 128,-1,24
 402 1101 402 1101 575 1101 c 0,25,26
 698 1101 698 1101 775.5 1049 c 128,-1,27
 853 997 853 997 885 903 c 1,28,-1
 890 903 l 1,29,30
 897 944 897 944 904 984.5 c 128,-1,31
 911 1025 911 1025 918 1065 c 0,32,33
 938 1170 938 1170 959 1274.5 c 128,-1,34
 980 1379 980 1379 1000 1484 c 1,35,-1
 1180 1484 l 1,36,-1
 1097 1061 l 2,37,38
 1090 1030 1090 1030 1082 994.5 c 128,-1,39
 1074 959 1074 959 1063 921 c 1,40,-1
 1067 921 l 1,41,42
 1140 1016 1140 1016 1221 1059 c 128,-1,43
 1302 1102 1302 1102 1421 1102 c 0,44,45
 1578 1102 1578 1102 1665.5 1007.5 c 128,-1,46
 1753 913 1753 913 1753 748 c 0,0,1
440 118 m 0,47,48
 632 118 632 118 729 281 c 0,49,50
 762 335 762 335 785.5 409.5 c 128,-1,51
 809 484 809 484 821.5 562 c 128,-1,52
 834 640 834 640 834 704 c 0,53,54
 834 829 834 829 770.5 898.5 c 128,-1,55
 707 968 707 968 594 968 c 0,56,57
 470 968 470 968 398 893 c 0,58,59
 350 843 350 843 315.5 749 c 128,-1,60
 281 655 281 655 262.5 551 c 128,-1,61
 244 447 244 447 244 365 c 0,62,63
 244 242 244 242 291 180 c 128,-1,64
 338 118 338 118 440 118 c 0,47,48
1369 963 m 0,65,66
 1178 963 1178 963 1080 801 c 0,67,68
 1048 747 1048 747 1024 672 c 128,-1,69
 1000 597 1000 597 987.5 519.5 c 128,-1,70
 975 442 975 442 975 377 c 0,71,72
 975 252 975 252 1038.5 182.5 c 128,-1,73
 1102 113 1102 113 1215 113 c 0,74,75
 1338 113 1338 113 1408 186 c 0,76,77
 1444 222 1444 222 1472.5 284.5 c 128,-1,78
 1501 347 1501 347 1522 422.5 c 128,-1,79
 1543 498 1543 498 1554 575 c 128,-1,80
 1565 652 1565 652 1565 716 c 0,81,82
 1565 839 1565 839 1518 901 c 128,-1,83
 1471 963 1471 963 1369 963 c 0,65,66
EndSplineSet
EndChar

StartChar: uni0239
Encoding: 569 569 506
Width: 1804
Flags: W
LayerCount: 2
Fore
SplineSet
1416 1103 m 0,0,1
 1573 1103 1573 1103 1660.5 1008.5 c 128,-1,2
 1748 914 1748 914 1748 749 c 0,3,4
 1748 543 1748 543 1687 354 c 0,5,6
 1626 163 1626 163 1514.5 72 c 128,-1,7
 1403 -19 1403 -19 1231 -19 c 0,8,9
 1111 -19 1111 -19 1034.5 30.5 c 128,-1,10
 958 80 958 80 924 179 c 1,11,-1
 919 179 l 1,12,-1
 805 -425 l 1,13,-1
 625 -425 l 1,14,-1
 713 21 l 2,15,16
 724 75 724 75 732.5 110 c 128,-1,17
 741 145 741 145 746 161 c 1,18,-1
 742 161 l 1,19,20
 669 66 669 66 588 23 c 128,-1,21
 507 -20 507 -20 388 -20 c 0,22,23
 231 -20 231 -20 143.5 74.5 c 128,-1,24
 56 169 56 169 56 334 c 0,25,26
 56 536 56 536 118 728 c 0,27,28
 180 919 180 919 291 1010.5 c 128,-1,29
 402 1102 402 1102 575 1102 c 0,30,31
 694 1102 694 1102 770.5 1052.5 c 128,-1,32
 847 1003 847 1003 881 905 c 1,33,-1
 884 905 l 1,34,-1
 928 1082 l 1,35,-1
 1093 1082 l 1,36,-1
 1063 922 l 1,37,-1
 1068 922 l 1,38,39
 1143 1020 1143 1020 1222 1061.5 c 128,-1,40
 1301 1103 1301 1103 1416 1103 c 0,0,1
440 119 m 0,41,42
 632 119 632 119 729 282 c 0,43,44
 762 336 762 336 785.5 410.5 c 128,-1,45
 809 485 809 485 821.5 563 c 128,-1,46
 834 641 834 641 834 705 c 0,47,48
 834 830 834 830 770.5 899.5 c 128,-1,49
 707 969 707 969 594 969 c 0,50,51
 470 969 470 969 398 894 c 0,52,53
 350 844 350 844 315.5 750 c 128,-1,54
 281 656 281 656 262.5 552 c 128,-1,55
 244 448 244 448 244 366 c 0,56,57
 244 243 244 243 291 181 c 128,-1,58
 338 119 338 119 440 119 c 0,41,42
1364 964 m 0,59,60
 1232 964 1232 964 1149 889 c 0,61,62
 1093 839 1093 839 1054 752 c 128,-1,63
 1015 665 1015 665 995 565.5 c 128,-1,64
 975 466 975 466 975 378 c 0,65,66
 975 248 975 248 1038 181 c 128,-1,67
 1101 114 1101 114 1210 114 c 0,68,69
 1333 114 1333 114 1403 187 c 0,70,71
 1451 235 1451 235 1486 327.5 c 128,-1,72
 1521 420 1521 420 1540.5 525.5 c 128,-1,73
 1560 631 1560 631 1560 717 c 0,74,75
 1560 840 1560 840 1513 902 c 128,-1,76
 1466 964 1466 964 1364 964 c 0,59,60
EndSplineSet
EndChar

StartChar: uni023A
Encoding: 570 570 507
Width: 1366
Flags: W
LayerCount: 2
Fore
SplineSet
1050 991 m 1,0,-1
 1256 0 l 1,1,-1
 1061 0 l 1,2,-1
 986 412 l 1,3,-1
 587 412 l 1,4,-1
 172 -107 l 1,5,-1
 0 -107 l 1,6,-1
 85 0 l 1,7,-1
 -101 0 l 1,8,-1
 747 1409 l 1,9,-1
 964 1409 l 1,10,-1
 1015 1163 l 1,11,-1
 1295 1514 l 1,12,-1
 1469 1514 l 1,13,-1
 1050 991 l 1,0,-1
431 561 m 1,14,-1
 533 561 l 1,15,-1
 878 993 l 1,16,17
 866 1061 866 1061 854 1128.5 c 128,-1,18
 842 1196 842 1196 830 1265 c 1,19,20
 829 1261 829 1261 821.5 1247 c 128,-1,21
 814 1233 814 1233 801 1209 c 2,22,-1
 431 561 l 1,14,-1
706 561 m 1,23,-1
 958 561 l 1,24,-1
 911 816 l 1,25,-1
 706 561 l 1,23,-1
347 412 m 1,26,-1
 165 99 l 1,27,-1
 414 412 l 1,28,-1
 347 412 l 1,26,-1
EndSplineSet
EndChar

StartChar: uni023B
Encoding: 571 571 508
Width: 1479
Flags: W
LayerCount: 2
Fore
SplineSet
1348 1300 m 1,0,1
 1453 1213 1453 1213 1490 1085 c 1,2,-1
 1310 1030 l 1,3,4
 1287 1100 1287 1100 1233 1157 c 1,5,-1
 469 201 l 1,6,7
 568 135 568 135 713 135 c 0,8,9
 861 135 861 135 989 208.5 c 128,-1,10
 1117 282 1117 282 1215 426 c 1,11,-1
 1358 337 l 1,12,13
 1232 149 1232 149 1072 64.5 c 128,-1,14
 912 -20 912 -20 700 -20 c 0,15,16
 498 -20 498 -20 361 66 c 1,17,-1
 222 -107 l 1,18,-1
 50 -107 l 1,19,-1
 257 152 l 1,20,21
 185 231 185 231 149 335 c 128,-1,22
 113 439 113 439 113 569 c 0,23,24
 113 815 113 815 218 1014 c 256,25,26
 323 1213 323 1213 509.5 1321.5 c 128,-1,27
 696 1430 696 1430 926 1430 c 0,28,29
 1102 1430 1102 1430 1231 1372 c 1,30,-1
 1345 1514 l 1,31,-1
 1519 1514 l 1,32,-1
 1348 1300 l 1,0,1
302 566 m 0,33,34
 302 408 302 408 373 298 c 1,35,-1
 1121 1234 l 1,36,37
 1034 1274 1034 1274 916 1274 c 0,38,39
 731 1274 731 1274 592 1186 c 0,40,41
 452 1098 452 1098 377 937 c 128,-1,42
 302 776 302 776 302 566 c 0,33,34
EndSplineSet
EndChar

StartChar: uni023C
Encoding: 572 572 509
Width: 1024
Flags: W
LayerCount: 2
Fore
SplineSet
898 1013 m 1,0,1
 991 928 991 928 1001 784 c 1,2,-1
 824 759 l 1,3,4
 819 814 819 814 801 853 c 1,5,-1
 366 142 l 1,6,7
 412 122 412 122 469 122 c 0,8,9
 569 122 569 122 640.5 177 c 128,-1,10
 712 232 712 232 758 352 c 1,11,-1
 914 303 l 1,12,13
 792 -20 792 -20 465 -20 c 0,14,15
 361 -20 361 -20 286 11 c 1,16,-1
 20 -425 l 1,17,-1
 -135 -425 l 1,18,-1
 175 84 l 1,19,20
 67 192 67 192 67 395 c 0,21,22
 67 596 67 596 140 767 c 0,23,24
 212 939 212 939 331.5 1020.5 c 128,-1,25
 451 1102 451 1102 625 1102 c 0,26,27
 709 1102 709 1102 782 1078 c 1,28,-1
 1030 1484 l 1,29,-1
 1186 1484 l 1,30,-1
 898 1013 l 1,0,1
251 389 m 0,31,32
 251 302 251 302 273 245 c 1,33,-1
 702 947 l 1,34,35
 663 961 663 961 619 961 c 0,36,37
 492 961 492 961 415 894 c 0,38,39
 376 860 376 860 345.5 804.5 c 128,-1,40
 315 749 315 749 294 679.5 c 128,-1,41
 273 610 273 610 262 535.5 c 128,-1,42
 251 461 251 461 251 389 c 0,31,32
EndSplineSet
EndChar

